Jonova-Regular.ufo
<glyph name="exclam" format="2">
  <advance width="736"/>
  <unicode hex="0021"/>
  <guideline x="239" y="0" angle="90"/>
  <outline>
    <contour>
      <point x="433" y="391" type="line" name="sv02"/>
      <point x="362" y="1434" type="line" name="sh01"/>
      <point x="392" y="1464" type="line" name="at01"/>
      <point x="558" y="1464" type="line"/>
      <point x="588" y="1434" type="line" name="sh02"/>
      <point x="515" y="391" type="line"/>
    </contour>
    <contour>
      <point x="362" y="83" type="qcurve" name="sh03"/>
      <point x="362" y="106"/>
      <point x="380" y="147"/>
      <point x="411" y="178"/>
      <point x="452" y="196"/>
      <point x="475" y="196" type="qcurve" name="sv01"/>
      <point x="498" y="196"/>
      <point x="539" y="178"/>
      <point x="570" y="147"/>
      <point x="588" y="106"/>
      <point x="588" y="83" type="qcurve" name="sh04"/>
      <point x="588" y="60"/>
      <point x="570" y="19"/>
      <point x="539" y="-12"/>
      <point x="498" y="-30"/>
      <point x="475" y="-30" type="qcurve" name="ab01"/>
      <point x="452" y="-30"/>
      <point x="411" y="-12"/>
      <point x="380" y="19"/>
      <point x="362" y="60"/>
    </contour>
  </outline>
</glyph>
<glyph name="sign:quotedbl" format="2">
  <advance width="736"/>
  <unicode hex="0022"/>
  <guideline x="0" y="860" angle="0"/>
  <guideline x="0" y="963" angle="0"/>
  <guideline x="240" y="0" angle="90"/>
  <guideline x="158" y="0" angle="90"/>
  <outline>
    <contour>
      <point x="165" y="901" type="line" name="av01"/>
      <point x="105" y="1434" type="line" name="sh01"/>
      <point x="135" y="1464" type="line" name="at01"/>
      <point x="277" y="1464" type="line"/>
      <point x="307" y="1434" type="line" name="sh02"/>
      <point x="247" y="901" type="line"/>
    </contour>
    <contour>
      <point x="489" y="901" type="line" name="av02"/>
      <point x="429" y="1434" type="line" name="sh03"/>
      <point x="459" y="1464" type="line" name="at02"/>
      <point x="601" y="1464" type="line"/>
      <point x="631" y="1434" type="line" name="sh04"/>
      <point x="571" y="901" type="line"/>
    </contour>
  </outline>
</glyph>
<glyph name="curr:dollar" format="2">
  <advance width="1120"/>
  <unicode hex="0024"/>
  <guideline x="0" y="1362" angle="0"/>
  <guideline x="0" y="-199" angle="10"/>
  <guideline x="0" y="72" angle="0"/>
  <guideline x="512" y="0" angle="90"/>
  <outline>
    <contour>
      <point x="767" y="1207" type="line" name="ih01"/>
      <point x="722" y="1279"/>
      <point x="611" y="1352"/>
      <point x="545" y="1362" type="qcurve" name="sh01"/>
      <point x="545" y="839" type="line"/>
      <point x="624" y="803"/>
      <point x="764" y="720"/>
      <point x="869" y="610"/>
      <point x="930" y="465"/>
      <point x="930" y="368" type="qcurve" name="dh04"/>
      <point x="930" y="291"/>
      <point x="871" y="155"/>
      <point x="768" y="48"/>
      <point x="627" y="-21"/>
      <point x="545" y="-30" type="qcurve" name="ab01"/>
      <point x="545" y="-152" type="line" name="dh02"/>
      <point x="443" y="-170" type="line" name="dh01"/>
      <point x="443" y="-30" type="line" name="ab02"/>
      <point x="383" y="-29"/>
      <point x="279" y="-2"/>
      <point x="192" y="41"/>
      <point x="120" y="96"/>
      <point x="92" y="125" type="qcurve" name="sh05"/>
      <point x="195" y="227" type="line"/>
      <point x="210" y="202"/>
      <point x="257" y="149"/>
      <point x="319" y="104"/>
      <point x="397" y="74"/>
      <point x="443" y="72" type="qcurve" name="sh06"/>
      <point x="443" y="663" type="line"/>
      <point x="366" y="695"/>
      <point x="239" y="776"/>
      <point x="147" y="881"/>
      <point x="96" y="1014"/>
      <point x="96" y="1097" type="qcurve" name="sh04"/>
      <point x="96" y="1161"/>
      <point x="148" y="1286"/>
      <point x="240" y="1388"/>
      <point x="368" y="1456"/>
      <point x="443" y="1464" type="qcurve" name="sh07"/>
      <point x="443" y="1586" type="line"/>
      <point x="545" y="1604" type="line" name="sh08"/>
      <point x="545" y="1464" type="line" name="at01"/>
      <point x="596" y="1462"/>
      <point x="691" y="1433"/>
      <point x="775" y="1390"/>
      <point x="844" y="1336"/>
      <point x="869" y="1309" type="qcurve"/>
    </contour>
    <contour>
      <point x="768" y="321" type="qcurve" name="dh03"/>
      <point x="768" y="366"/>
      <point x="739" y="444"/>
      <point x="683" y="515"/>
      <point x="599" y="581"/>
      <point x="545" y="613" type="qcurve" name="sh09"/>
      <point x="545" y="72" type="line" name="sv02"/>
      <point x="595" y="79"/>
      <point x="677" y="117"/>
      <point x="736" y="179"/>
      <point x="768" y="265"/>
    </contour>
    <contour>
      <point x="258" y="1136" type="qcurve" name="sh03"/>
      <point x="258" y="1090"/>
      <point x="281" y="1025"/>
      <point x="327" y="972"/>
      <point x="396" y="923"/>
      <point x="443" y="893" type="qcurve" name="sh02"/>
      <point x="443" y="1362" type="line" name="sv01"/>
      <point x="413" y="1357"/>
      <point x="348" y="1325"/>
      <point x="293" y="1270"/>
      <point x="258" y="1190"/>
    </contour>
  </outline>
</glyph>
<glyph name="sign:percent" format="2">
  <advance width="1600"/>
  <unicode hex="0025"/>
  <guideline x="0" y="1690" angle="350"/>
  <guideline x="201" y="0" angle="90"/>
  <guideline x="1405" y="0" angle="90"/>
  <guideline x="374" y="0" angle="55"/>
  <outline>
    <contour>
      <point x="1378" y="1434" type="line" name="ih01"/>
      <point x="353" y="-30" type="line" name="sh02"/>
      <point x="222" y="0" type="line" name="ih02"/>
      <point x="1248" y="1464" type="line" name="sh03"/>
    </contour>
    <contour>
      <point x="383" y="1434" type="qcurve" name="at01"/>
      <point x="437" y="1434"/>
      <point x="539" y="1390"/>
      <point x="618" y="1300"/>
      <point x="667" y="1162"/>
      <point x="667" y="1068" type="qcurve" name="dh02"/>
      <point x="667" y="974"/>
      <point x="618" y="836"/>
      <point x="539" y="746" name="hr00"/>
      <point x="437" y="702"/>
      <point x="383" y="702" type="qcurve" name="av01"/>
      <point x="330" y="702"/>
      <point x="228" y="746"/>
      <point x="148" y="836"/>
      <point x="100" y="974"/>
      <point x="100" y="1068" type="qcurve" name="sh01"/>
      <point x="100" y="1162"/>
      <point x="148" y="1300"/>
      <point x="228" y="1390"/>
      <point x="330" y="1434"/>
    </contour>
    <contour>
      <point x="383" y="1352" type="qcurve" name="sv01"/>
      <point x="347" y="1352"/>
      <point x="288" y="1324"/>
      <point x="246" y="1258"/>
      <point x="222" y="1149"/>
      <point x="222" y="1068" type="qcurve" name="sh04"/>
      <point x="222" y="987"/>
      <point x="246" y="878"/>
      <point x="288" y="812"/>
      <point x="347" y="784"/>
      <point x="383" y="784" type="qcurve" name="sv02"/>
      <point x="419" y="784"/>
      <point x="478" y="812"/>
      <point x="521" y="878"/>
      <point x="545" y="987"/>
      <point x="545" y="1068" type="qcurve" name="dh01"/>
      <point x="545" y="1149"/>
      <point x="521" y="1258"/>
      <point x="478" y="1324"/>
      <point x="419" y="1352"/>
    </contour>
    <contour>
      <point x="1216" y="732" type="qcurve" name="av02"/>
      <point x="1270" y="732"/>
      <point x="1372" y="688"/>
      <point x="1451" y="598"/>
      <point x="1500" y="460"/>
      <point x="1500" y="366" type="qcurve" name="dh06"/>
      <point x="1500" y="272"/>
      <point x="1451" y="134"/>
      <point x="1372" y="44"/>
      <point x="1270" y="0"/>
      <point x="1216" y="0" type="qcurve" name="ab01"/>
      <point x="1163" y="0"/>
      <point x="1061" y="44"/>
      <point x="981" y="134"/>
      <point x="933" y="272"/>
      <point x="933" y="366" type="qcurve" name="dh03"/>
      <point x="933" y="460"/>
      <point x="981" y="598"/>
      <point x="1061" y="688"/>
      <point x="1163" y="732"/>
    </contour>
    <contour>
      <point x="1216" y="650" type="qcurve" name="sv03"/>
      <point x="1180" y="650"/>
      <point x="1121" y="622"/>
      <point x="1079" y="556"/>
      <point x="1055" y="447"/>
      <point x="1055" y="366" type="qcurve" name="dh04"/>
      <point x="1055" y="285"/>
      <point x="1079" y="176"/>
      <point x="1121" y="110"/>
      <point x="1180" y="82"/>
      <point x="1216" y="82" type="qcurve" name="sv04"/>
      <point x="1252" y="82"/>
      <point x="1311" y="110"/>
      <point x="1354" y="176"/>
      <point x="1378" y="285"/>
      <point x="1378" y="366" type="qcurve" name="dh05"/>
      <point x="1378" y="447"/>
      <point x="1354" y="556"/>
      <point x="1311" y="622"/>
      <point x="1252" y="650"/>
    </contour>
  </outline>
</glyph>
<glyph name="sign:ampersand" format="2">
  <advance width="1248"/>
  <unicode hex="0026"/>
  <guideline x="0" y="759" angle="350"/>
  <guideline x="1155" y="0" angle="120"/>
  <guideline x="1105" y="0" angle="90"/>
  <outline>
    <contour>
      <point x="593" y="968" type="qcurve" name="sv01"/>
      <point x="648" y="1003"/>
      <point x="720" y="1056"/>
      <point x="762" y="1106"/>
      <point x="778" y="1160"/>
      <point x="778" y="1196" type="qcurve" name="dh05"/>
      <point x="778" y="1221"/>
      <point x="762" y="1269"/>
      <point x="728" y="1308"/>
      <point x="676" y="1332"/>
      <point x="641" y="1332" type="qcurve" name="sv02"/>
      <point x="615" y="1332"/>
      <point x="567" y="1311"/>
      <point x="531" y="1270"/>
      <point x="510" y="1208"/>
      <point x="510" y="1168" type="qcurve" name="dh04"/>
      <point x="510" y="1148"/>
      <point x="527" y="1095"/>
      <point x="552" y="1039"/>
      <point x="581" y="987"/>
    </contour>
    <contour>
      <point x="527" y="749" type="line" name="iv01"/>
      <point x="413" y="669"/>
      <point x="294" y="501"/>
      <point x="294" y="391" type="qcurve" name="dh02"/>
      <point x="294" y="311"/>
      <point x="338" y="191"/>
      <point x="411" y="111"/>
      <point x="503" y="72"/>
      <point x="551" y="72" type="qcurve" name="sv03"/>
      <point x="592" y="72"/>
      <point x="670" y="83"/>
      <point x="743" y="111"/>
      <point x="813" y="160"/>
      <point x="846" y="198" type="qcurve" name="sh03"/>
    </contour>
    <contour>
      <point x="980" y="-30" type="line" name="sh01"/>
      <point x="886" y="125" type="line"/>
      <point x="853" y="92"/>
      <point x="777" y="36"/>
      <point x="688" y="-6"/>
      <point x="586" y="-30"/>
      <point x="527" y="-30" type="qcurve" name="ab01"/>
      <point x="443" y="-30"/>
      <point x="295" y="33"/>
      <point x="186" y="146"/>
      <point x="122" y="300"/>
      <point x="122" y="391" type="qcurve" name="dh01"/>
      <point x="122" y="466"/>
      <point x="169" y="606"/>
      <point x="255" y="729"/>
      <point x="377" y="834"/>
      <point x="451" y="875" type="qcurve"/>
      <point x="451" y="885" type="line" name="ih01"/>
      <point x="420" y="936"/>
      <point x="383" y="1010"/>
      <point x="364" y="1072"/>
      <point x="358" y="1131"/>
      <point x="358" y="1167" type="qcurve" name="dh03"/>
      <point x="358" y="1215"/>
      <point x="395" y="1310"/>
      <point x="467" y="1386"/>
      <point x="574" y="1434"/>
      <point x="643" y="1434" type="qcurve" name="at01"/>
      <point x="710" y="1434"/>
      <point x="816" y="1391"/>
      <point x="890" y="1322"/>
      <point x="930" y="1235"/>
      <point x="930" y="1191" type="qcurve" name="dh06"/>
      <point x="930" y="1131"/>
      <point x="898" y="1040"/>
      <point x="833" y="962"/>
      <point x="737" y="888"/>
      <point x="673" y="845" type="qcurve"/>
      <point x="673" y="835" type="line" name="sh04"/>
      <point x="958" y="343" type="line" name="sh05"/>
      <point x="981" y="388"/>
      <point x="999" y="503"/>
      <point x="999" y="584" type="qcurve" name="av01"/>
      <point x="1130" y="559" type="line" name="sh07"/>
      <point x="1121" y="526"/>
      <point x="1089" y="441"/>
      <point x="1051" y="358"/>
      <point x="1014" y="287"/>
      <point x="1000" y="268" type="qcurve" name="sh02"/>
      <point x="1154" y="0" type="line" name="sh06"/>
    </contour>
  </outline>
</glyph>
<glyph name="sign:parenleft" format="2">
  <advance width="736"/>
  <unicode hex="0028"/>
  <guideline x="0" y="1332" angle="0"/>
  <guideline x="680" y="0" angle="90"/>
  <guideline x="705" y="0" angle="80"/>
  <guideline x="913" y="0" angle="100"/>
  <outline>
    <contour>
      <point x="654" y="1464" type="line" name="sh03"/>
      <point x="564" y="1390"/>
      <point x="425" y="1196"/>
      <point x="332" y="971"/>
      <point x="284" y="722"/>
      <point x="284" y="593" type="qcurve" name="sh01"/>
      <point x="284" y="305"/>
      <point x="473" y="-130"/>
      <point x="654" y="-278" type="qcurve" name="sh02"/>
      <point x="634" y="-384" type="line" name="av01"/>
      <point x="390" y="-226"/>
      <point x="132" y="258"/>
      <point x="132" y="593" type="qcurve" name="ah01"/>
      <point x="132" y="927"/>
      <point x="390" y="1412"/>
      <point x="634" y="1570" type="qcurve" name="av02"/>
    </contour>
  </outline>
</glyph>
<glyph name="parenright" format="2">
  <advance width="736"/>
  <unicode hex="0029"/>
  <outline>
    <contour>
      <point x="102" y="1570" type="line" name="av01"/>
      <point x="346" y="1412"/>
      <point x="604" y="927"/>
      <point x="604" y="593" type="qcurve" name="sh02"/>
      <point x="604" y="258"/>
      <point x="346" y="-226"/>
      <point x="102" y="-384" type="qcurve" name="av02"/>
      <point x="82" y="-278" type="line" name="ah01"/>
      <point x="263" y="-130"/>
      <point x="452" y="305"/>
      <point x="452" y="593" type="qcurve" name="sh01"/>
      <point x="452" y="722"/>
      <point x="404" y="971"/>
      <point x="311" y="1196"/>
      <point x="172" y="1390"/>
      <point x="82" y="1464" type="qcurve" name="sh03"/>
    </contour>
  </outline>
</glyph>
<glyph name="sign:hyphenminus" format="2">
  <advance width="736"/>
  <unicode hex="002D"/>
  <outline>
    <contour>
      <point x="82" y="548" type="line" name="sv01"/>
      <point x="654" y="548" type="line"/>
      <point x="654" y="426" type="line"/>
      <point x="82" y="426" type="line" name="mh01"/>
    </contour>
  </outline>
</glyph>
<glyph name="sign:period" format="2">
  <advance width="576"/>
  <unicode hex="002E"/>
  <outline>
    <contour>
      <point x="182" y="93" type="qcurve" name="sh01"/>
      <point x="182" y="118"/>
      <point x="201" y="163"/>
      <point x="235" y="197"/>
      <point x="279" y="216"/>
      <point x="305" y="216" type="qcurve" name="sv01"/>
      <point x="330" y="216"/>
      <point x="375" y="197"/>
      <point x="408" y="163"/>
      <point x="428" y="118"/>
      <point x="428" y="93" type="qcurve" name="sh02"/>
      <point x="428" y="68"/>
      <point x="408" y="23"/>
      <point x="375" y="-10"/>
      <point x="330" y="-30"/>
      <point x="305" y="-30" type="qcurve" name="ab01"/>
      <point x="279" y="-30"/>
      <point x="235" y="-10"/>
      <point x="201" y="23"/>
      <point x="182" y="68"/>
    </contour>
  </outline>
</glyph>
<glyph name="digit:one" format="2">
  <advance width="1120"/>
  <unicode hex="0031"/>
  <guideline x="455" y="0" angle="100"/>
  <guideline x="224" y="0" angle="90"/>
  <outline>
    <contour>
      <point x="688" y="1464" type="line" name="at01"/>
      <point x="688" y="0" type="line" name="dh02"/>
      <point x="526" y="0" type="line" name="dh01"/>
      <point x="526" y="1266" type="line" name="sv01"/>
      <point x="516" y="1266" type="line"/>
      <point x="242" y="1207" type="line" name="sv02"/>
      <point x="224" y="1309" type="line" name="ah01"/>
      <point x="658" y="1464" type="line"/>
    </contour>
  </outline>
</glyph>
<glyph name="digit:two" format="2">
  <advance width="1120"/>
  <unicode hex="0032"/>
  <guideline x="0" y="1529" angle="315"/>
  <guideline x="107" y="0" angle="79.91"/>
  <guideline x="-351" y="0" angle="90"/>
  <guideline x="971" y="0" angle="80"/>
  <guideline x="996" y="0" angle="90"/>
  <outline>
    <contour>
      <point x="220" y="1309" type="line" name="hr00"/>
      <point x="247" y="1337"/>
      <point x="324" y="1393"/>
      <point x="418" y="1437"/>
      <point x="526" y="1464"/>
      <point x="585" y="1464" type="qcurve" name="at01"/>
      <point x="664" y="1464"/>
      <point x="805" y="1418"/>
      <point x="911" y="1324"/>
      <point x="972" y="1182"/>
      <point x="972" y="1086" type="qcurve" name="sh01"/>
      <point x="972" y="998"/>
      <point x="888" y="809"/>
      <point x="733" y="583"/>
      <point x="513" y="307"/>
      <point x="376" y="132" type="qcurve"/>
      <point x="376" y="122" type="line" name="sv01"/>
      <point x="996" y="142" type="line" name="sv02"/>
      <point x="971" y="0" type="line" name="sh02"/>
      <point x="153" y="0" type="line"/>
      <point x="153" y="20" type="line"/>
      <point x="276" y="177"/>
      <point x="470" y="430"/>
      <point x="616" y="634"/>
      <point x="718" y="796"/>
      <point x="781" y="929"/>
      <point x="810" y="1042"/>
      <point x="810" y="1095" type="qcurve" name="sh03"/>
      <point x="810" y="1153"/>
      <point x="778" y="1252"/>
      <point x="719" y="1322"/>
      <point x="636" y="1362"/>
      <point x="585" y="1362" type="qcurve" name="sv03"/>
      <point x="506" y="1362"/>
      <point x="379" y="1279"/>
      <point x="322" y="1207" type="qcurve" name="mv01"/>
    </contour>
  </outline>
</glyph>
<glyph name="digit:four" format="2">
  <advance width="1120"/>
  <unicode hex="0034"/>
  <guideline x="0" y="1558" angle="350"/>
  <guideline x="0" y="472" angle="2.04"/>
  <guideline x="956" y="0" angle="90"/>
  <guideline x="919" y="0" angle="80"/>
  <guideline x="1008" y="0" angle="90"/>
  <outline>
    <contour>
      <point x="682" y="1464" type="line" name="sh04"/>
      <point x="712" y="1464" type="line"/>
      <point x="844" y="1434" type="line" name="sh05"/>
      <point x="273" y="481" type="line" name="sh07"/>
      <point x="682" y="496" type="line" name="dv02"/>
      <point x="682" y="667" type="line" name="sh03"/>
      <point x="814" y="707" type="line"/>
      <point x="844" y="707" type="line" name="sh08"/>
      <point x="844" y="502" type="line" name="sv01"/>
      <point x="1008" y="508" type="line"/>
      <point x="983" y="365" type="line" name="ah01"/>
      <point x="844" y="365" type="line"/>
      <point x="844" y="0" type="line" name="sh01"/>
      <point x="682" y="0" type="line" name="sh02"/>
      <point x="682" y="365" type="line" name="dv01"/>
      <point x="84" y="365" type="line" name="sh06"/>
      <point x="84" y="385" type="line"/>
    </contour>
  </outline>
</glyph>
<glyph name="digit:five" format="2">
  <advance width="1120"/>
  <unicode hex="0035"/>
  <guideline x="0" y="1159" angle="315"/>
  <guideline x="0" y="-17" angle="45"/>
  <guideline x="889" y="0" angle="90"/>
  <guideline x="666" y="0" angle="80"/>
  <outline>
    <contour>
      <point x="182" y="777" type="line" name="sh01"/>
      <point x="182" y="1434" type="line" name="at01"/>
      <point x="919" y="1434" type="line"/>
      <point x="897" y="1309" type="line" name="ih01"/>
      <point x="344" y="1332" type="line" name="sh05"/>
      <point x="344" y="893" type="line" name="sv01"/>
      <point x="354" y="893" type="line" name="sh06"/>
      <point x="387" y="910"/>
      <point x="485" y="931"/>
      <point x="536" y="931" type="qcurve" name="av01"/>
      <point x="631" y="931"/>
      <point x="794" y="858"/>
      <point x="914" y="729"/>
      <point x="982" y="552"/>
      <point x="982" y="447" type="qcurve" name="sh02"/>
      <point x="982" y="351"/>
      <point x="918" y="178"/>
      <point x="795" y="47"/>
      <point x="613" y="-30"/>
      <point x="496" y="-30" type="qcurve" name="ab01"/>
      <point x="432" y="-30"/>
      <point x="318" y="-2"/>
      <point x="222" y="42"/>
      <point x="147" y="97"/>
      <point x="122" y="125" type="qcurve" name="ah01"/>
      <point x="224" y="227" type="line" name="ih02"/>
      <point x="242" y="200"/>
      <point x="297" y="145"/>
      <point x="367" y="100"/>
      <point x="450" y="72"/>
      <point x="495" y="72" type="qcurve" name="sv02"/>
      <point x="560" y="72"/>
      <point x="675" y="126"/>
      <point x="760" y="225"/>
      <point x="810" y="363"/>
      <point x="810" y="447" type="qcurve" name="sh03"/>
      <point x="810" y="543"/>
      <point x="755" y="686"/>
      <point x="671" y="781"/>
      <point x="571" y="829"/>
      <point x="526" y="829" type="qcurve" name="sv03"/>
      <point x="465" y="829"/>
      <point x="381" y="803"/>
      <point x="344" y="777" type="qcurve" name="sh04"/>
    </contour>
  </outline>
</glyph>
<glyph name="digit:six" format="2">
  <advance width="1120"/>
  <unicode hex="0036"/>
  <guideline x="0" y="2095" angle="0"/>
  <guideline x="0" y="1286" angle="3"/>
  <guideline x="2429" y="0" angle="90"/>
  <guideline x="565" y="0" angle="90"/>
  <guideline x="1085" y="0" angle="100"/>
  <guideline x="600" y="0" angle="80"/>
  <outline>
    <contour>
      <point x="858" y="1464" type="qcurve" name="ih01"/>
      <point x="840" y="1362" type="line" name="sv01"/>
      <point x="717" y="1362"/>
      <point x="509" y="1256"/>
      <point x="356" y="1068"/>
      <point x="270" y="811"/>
      <point x="270" y="661" type="qcurve" name="sh04"/>
      <point x="280" y="661" type="line" name="sv02"/>
      <point x="306" y="709"/>
      <point x="377" y="780"/>
      <point x="457" y="827"/>
      <point x="543" y="849"/>
      <point x="585" y="849" type="qcurve" name="sv03"/>
      <point x="681" y="849"/>
      <point x="838" y="785" name="fv01"/>
      <point x="950" y="669"/>
      <point x="1012" y="508"/>
      <point x="1012" y="412" type="qcurve" name="sh01"/>
      <point x="1012" y="308"/>
      <point x="942" y="144"/>
      <point x="824" y="30"/>
      <point x="669" y="-30"/>
      <point x="585" y="-30" type="qcurve" name="ab01"/>
      <point x="497" y="-30"/>
      <point x="326" y="49"/>
      <point x="191" y="209"/>
      <point x="108" y="451"/>
      <point x="108" y="613" type="qcurve" name="sh03"/>
      <point x="108" y="710"/>
      <point x="143" y="912"/>
      <point x="218" y="1101"/>
      <point x="337" y="1268"/>
      <point x="503" y="1392"/>
      <point x="721" y="1464"/>
    </contour>
    <contour>
      <point x="585" y="747" type="qcurve" name="iv01"/>
      <point x="514" y="747"/>
      <point x="407" y="691"/>
      <point x="336" y="601"/>
      <point x="300" y="488"/>
      <point x="300" y="432" type="qcurve" name="sh05"/>
      <point x="300" y="353"/>
      <point x="338" y="221"/>
      <point x="412" y="125"/>
      <point x="517" y="72"/>
      <point x="585" y="72" type="qcurve" name="sv04"/>
      <point x="649" y="72"/>
      <point x="744" y="122"/>
      <point x="808" y="212"/>
      <point x="840" y="337"/>
      <point x="840" y="412" type="qcurve" name="sh02"/>
      <point x="840" y="483"/>
      <point x="808" y="606"/>
      <point x="744" y="696"/>
      <point x="649" y="747"/>
    </contour>
  </outline>
</glyph>
<glyph name="seven" format="2">
  <advance width="1120"/>
  <unicode hex="0037"/>
  <guideline x="0" y="806" angle="3"/>
  <guideline x="213" y="0" angle="65"/>
  <guideline x="-82" y="0" angle="80"/>
  <guideline x="420" y="0" angle="100"/>
  <outline>
    <contour>
      <point x="171" y="1434" type="line" name="hr00"/>
      <point x="988" y="1434" type="line" name="at01"/>
      <point x="988" y="1414" type="line" name="sh01"/>
      <point x="425" y="-30" type="line" name="dh01"/>
      <point x="257" y="0" type="line" name="dh02"/>
      <point x="810" y="1302" type="line" name="sh02"/>
      <point x="810" y="1312" type="line"/>
      <point x="146" y="1292" type="line" name="ah01"/>
    </contour>
  </outline>
</glyph>
<glyph name="digit:nine" format="2">
  <advance width="1120"/>
  <unicode hex="0039"/>
  <guideline x="0" y="187" angle="25"/>
  <guideline x="500" y="0" angle="90"/>
  <guideline x="221" y="0" angle="80"/>
  <outline>
    <contour>
      <point x="234" y="72" type="line" name="sv01"/>
      <point x="362" y="72"/>
      <point x="588" y="174"/>
      <point x="756" y="359"/>
      <point x="854" y="617"/>
      <point x="854" y="773" type="qcurve" name="sh01"/>
      <point x="844" y="773" type="line"/>
      <point x="819" y="722"/>
      <point x="743" y="650"/>
      <point x="657" y="605"/>
      <point x="568" y="585"/>
      <point x="529" y="585" type="qcurve" name="dv01"/>
      <point x="433" y="585"/>
      <point x="276" y="649"/>
      <point x="164" y="765"/>
      <point x="102" y="926"/>
      <point x="102" y="1022" type="qcurve" name="sh02"/>
      <point x="102" y="1126"/>
      <point x="175" y="1290"/>
      <point x="297" y="1404"/>
      <point x="455" y="1464"/>
      <point x="539" y="1464" type="qcurve" name="at01"/>
      <point x="627" y="1464"/>
      <point x="798" y="1388" name="fv01"/>
      <point x="933" y="1230"/>
      <point x="1016" y="987"/>
      <point x="1016" y="821" type="qcurve" name="dh02"/>
      <point x="1016" y="714"/>
      <point x="976" y="505"/>
      <point x="892" y="316"/>
      <point x="764" y="155"/>
      <point x="586" y="37"/>
      <point x="358" y="-30"/>
      <point x="217" y="-30" type="qcurve" name="ab01"/>
    </contour>
    <contour>
      <point x="529" y="687" type="qcurve" name="dv02"/>
      <point x="600" y="687"/>
      <point x="710" y="743"/>
      <point x="785" y="833"/>
      <point x="824" y="946"/>
      <point x="824" y="1002" type="qcurve" name="dh01"/>
      <point x="824" y="1085"/>
      <point x="786" y="1218"/>
      <point x="712" y="1312"/>
      <point x="606" y="1362"/>
      <point x="539" y="1362" type="qcurve" name="sv02"/>
      <point x="475" y="1362"/>
      <point x="376" y="1312"/>
      <point x="309" y="1222"/>
      <point x="274" y="1097"/>
      <point x="274" y="1022" type="qcurve" name="sh03"/>
      <point x="274" y="951"/>
      <point x="306" y="828"/>
      <point x="370" y="738"/>
      <point x="465" y="687"/>
    </contour>
  </outline>
</glyph>
<glyph name="semicolon" format="2">
  <advance width="576"/>
  <unicode hex="003B"/>
  <guideline x="-232" y="0" angle="135"/>
  <outline>
    <contour>
      <point x="228" y="881" type="qcurve" name="sh04"/>
      <point x="228" y="906"/>
      <point x="247" y="951"/>
      <point x="281" y="984"/>
      <point x="325" y="1004"/>
      <point x="351" y="1004" type="qcurve" name="at01"/>
      <point x="376" y="1004"/>
      <point x="421" y="984"/>
      <point x="454" y="951" name="hr00"/>
      <point x="474" y="906"/>
      <point x="474" y="881" type="qcurve" name="sh03"/>
      <point x="474" y="855"/>
      <point x="454" y="811"/>
      <point x="421" y="777"/>
      <point x="376" y="758"/>
      <point x="351" y="758" type="qcurve" name="sv01"/>
      <point x="325" y="758"/>
      <point x="281" y="777"/>
      <point x="247" y="811"/>
      <point x="228" y="855"/>
    </contour>
    <contour>
      <point x="242" y="79" type="line"/>
      <point x="379" y="216" type="line" name="av01"/>
      <point x="400" y="216" type="line"/>
      <point x="411" y="201"/>
      <point x="437" y="156"/>
      <point x="459" y="95"/>
      <point x="474" y="18"/>
      <point x="474" y="-30" type="qcurve" name="sh02"/>
      <point x="474" y="-90"/>
      <point x="432" y="-198"/>
      <point x="366" y="-292"/>
      <point x="284" y="-370"/>
      <point x="243" y="-400" type="qcurve" name="av02"/>
      <point x="170" y="-327" type="line" name="ah01"/>
      <point x="194" y="-305"/>
      <point x="242" y="-256"/>
      <point x="279" y="-199"/>
      <point x="302" y="-132"/>
      <point x="302" y="-93" type="qcurve" name="sh05"/>
      <point x="302" y="-66"/>
      <point x="293" y="-26"/>
      <point x="277" y="9"/>
      <point x="255" y="41"/>
      <point x="242" y="59" type="qcurve" name="sh01"/>
    </contour>
  </outline>
</glyph>
<glyph name="less" format="2">
  <advance width="1152"/>
  <unicode hex="003C"/>
  <guideline x="0" y="529" angle="330"/>
  <guideline x="0" y="445" angle="30"/>
  <guideline x="0" y="1377" angle="0"/>
  <guideline x="0" y="714" angle="0"/>
  <guideline x="973" y="0" angle="80"/>
  <guideline x="967" y="0" angle="90"/>
  <guideline x="1145" y="0" angle="100"/>
  <outline>
    <contour>
      <point x="334" y="478" type="line" name="mh01"/>
      <point x="990" y="98" type="line" name="sh01"/>
      <point x="967" y="-30" type="line" name="ab01"/>
      <point x="162" y="436" type="line"/>
      <point x="162" y="538" type="line" name="ah01"/>
      <point x="966" y="1004" type="line" name="at01"/>
      <point x="989" y="876" type="line" name="ah02"/>
      <point x="334" y="498" type="line"/>
    </contour>
  </outline>
</glyph>
<glyph name="math:equal" format="2">
  <advance width="1152"/>
  <unicode hex="003D"/>
  <guideline x="602" y="0" angle="90"/>
  <outline>
    <contour>
      <point x="1026" y="748" type="line" name="dv04"/>
      <point x="1026" y="626" type="line" name="dv03"/>
      <point x="126" y="626" type="line"/>
      <point x="126" y="748" type="line"/>
    </contour>
    <contour>
      <point x="1026" y="350" type="line" name="dv02"/>
      <point x="1026" y="228" type="line" name="dv01"/>
      <point x="126" y="228" type="line"/>
      <point x="126" y="350" type="line"/>
    </contour>
  </outline>
</glyph>
<glyph name="sign:at" format="2">
  <advance width="2048"/>
  <unicode hex="0040"/>
  <guideline x="0" y="447" angle="0"/>
  <guideline x="1414" y="0" angle="135"/>
  <guideline x="1308" y="0" angle="80"/>
  <outline>
    <contour>
      <point x="603" y="398" type="qcurve" name="ah01"/>
      <point x="603" y="491"/>
      <point x="664" y="666"/>
      <point x="774" y="801"/>
      <point x="924" y="882"/>
      <point x="1013" y="882" type="qcurve" name="dv06"/>
      <point x="1101" y="882"/>
      <point x="1229" y="814"/>
      <point x="1275" y="760" type="qcurve" name="mh01"/>
      <point x="1285" y="760" type="line"/>
      <point x="1302" y="852" type="line" name="sh01"/>
      <point x="1434" y="882" type="line"/>
      <point x="1464" y="882" type="line" name="ah02"/>
      <point x="1356" y="271" type="line" name="sh02"/>
      <point x="1351" y="241"/>
      <point x="1345" y="196"/>
      <point x="1345" y="182" type="qcurve"/>
      <point x="1345" y="167"/>
      <point x="1353" y="139"/>
      <point x="1372" y="116"/>
      <point x="1403" y="102"/>
      <point x="1427" y="102" type="qcurve" name="sv01"/>
      <point x="1494" y="102"/>
      <point x="1614" y="159"/>
      <point x="1703" y="271"/>
      <point x="1755" y="439"/>
      <point x="1755" y="550" type="qcurve" name="sh04"/>
      <point x="1755" y="632"/>
      <point x="1713" y="793"/>
      <point x="1630" y="939"/>
      <point x="1507" y="1065"/>
      <point x="1346" y="1156"/>
      <point x="1148" y="1208"/>
      <point x="1031" y="1208" type="qcurve" name="dv03"/>
      <point x="929" y="1208"/>
      <point x="741" y="1152"/>
      <point x="576" y="1051"/>
      <point x="441" y="911"/>
      <point x="345" y="742"/>
      <point x="292" y="549"/>
      <point x="292" y="447" type="qcurve" name="sh06"/>
      <point x="292" y="345"/>
      <point x="345" y="154"/>
      <point x="441" y="-14"/>
      <point x="576" y="-154"/>
      <point x="740" y="-254"/>
      <point x="929" y="-310"/>
      <point x="1031" y="-310" type="qcurve" name="dv02"/>
      <point x="1166" y="-310"/>
      <point x="1402" y="-206"/>
      <point x="1518" y="-105" type="qcurve" name="sv02"/>
      <point x="1605" y="-192" type="line" name="ah03"/>
      <point x="1540" y="-252"/>
      <point x="1395" y="-335"/>
      <point x="1245" y="-388"/>
      <point x="1098" y="-412"/>
      <point x="1031" y="-412" type="qcurve" name="dv01"/>
      <point x="912" y="-412"/>
      <point x="692" y="-350"/>
      <point x="501" y="-238"/>
      <point x="343" y="-81"/>
      <point x="231" y="110"/>
      <point x="170" y="329"/>
      <point x="170" y="447" type="qcurve" name="sh05"/>
      <point x="170" y="566"/>
      <point x="231" y="787"/>
      <point x="343" y="979"/>
      <point x="501" y="1136"/>
      <point x="692" y="1248"/>
      <point x="912" y="1310"/>
      <point x="1031" y="1310" type="qcurve" name="dv04"/>
      <point x="1162" y="1310"/>
      <point x="1390" y="1251"/>
      <point x="1578" y="1146"/>
      <point x="1724" y="1001"/>
      <point x="1825" y="831"/>
      <point x="1877" y="642"/>
      <point x="1877" y="544" type="qcurve" name="sh03"/>
      <point x="1877" y="480"/>
      <point x="1852" y="349"/>
      <point x="1800" y="228"/>
      <point x="1719" y="123"/>
      <point x="1608" y="45"/>
      <point x="1464" y="0"/>
      <point x="1375" y="0" type="qcurve" name="ab01"/>
      <point x="1348" y="0"/>
      <point x="1298" y="18"/>
      <point x="1256" y="47"/>
      <point x="1223" y="83"/>
      <point x="1214" y="102" type="qcurve" name="sv03"/>
      <point x="1204" y="102" type="line" name="sv04"/>
      <point x="1179" y="81"/>
      <point x="1118" y="44"/>
      <point x="1049" y="16"/>
      <point x="975" y="0"/>
      <point x="937" y="0" type="qcurve" name="ab02"/>
      <point x="856" y="0"/>
      <point x="731" y="60"/>
      <point x="646" y="167"/>
      <point x="603" y="312"/>
    </contour>
    <contour>
      <point x="725" y="393" type="qcurve" name="sh07"/>
      <point x="725" y="334"/>
      <point x="754" y="229"/>
      <point x="810" y="149"/>
      <point x="894" y="102"/>
      <point x="949" y="102" type="qcurve" name="sv05"/>
      <point x="1012" y="102"/>
      <point x="1120" y="169"/>
      <point x="1200" y="279"/>
      <point x="1246" y="416"/>
      <point x="1246" y="487" type="qcurve" name="sh08"/>
      <point x="1246" y="539"/>
      <point x="1224" y="644"/>
      <point x="1171" y="728"/>
      <point x="1085" y="780"/>
      <point x="1022" y="780" type="qcurve" name="dv05"/>
      <point x="960" y="780"/>
      <point x="851" y="718"/>
      <point x="771" y="612"/>
      <point x="725" y="471"/>
    </contour>
  </outline>
</glyph>
<glyph name="D" format="2">
  <advance width="1504"/>
  <unicode hex="0044"/>
  <anchor x="672" y="1600" name="AccentAbove"/>
  <anchor x="1022" y="1600" name="AccentAboveRight"/>
  <anchor x="624" y="0" name="AccentBelow"/>
  <anchor x="452" y="0" name="AccentCedilla"/>
  <anchor x="772" y="712" name="AccentOverlay"/>
  <outline>
    <contour>
      <point x="374" y="122" type="line" name="hr00"/>
      <point x="600" y="122" type="line" name="sv01"/>
      <point x="745" y="122"/>
      <point x="970" y="210"/>
      <point x="1124" y="368"/>
      <point x="1204" y="586"/>
      <point x="1204" y="717" type="qcurve" name="sh02"/>
      <point x="1204" y="873"/>
      <point x="1119" y="1097"/>
      <point x="960" y="1243"/>
      <point x="734" y="1312"/>
      <point x="593" y="1312" type="qcurve" name="sv02"/>
      <point x="374" y="1312" type="line" name="sh04"/>
    </contour>
    <contour>
      <point x="192" y="1434" type="line" name="sh03"/>
      <point x="619" y="1434" type="line" name="at01"/>
      <point x="801" y="1434"/>
      <point x="1090" y="1336"/>
      <point x="1290" y="1151"/>
      <point x="1396" y="885"/>
      <point x="1396" y="717" type="qcurve" name="sh01"/>
      <point x="1396" y="619"/>
      <point x="1346" y="436"/>
      <point x="1251" y="277"/>
      <point x="1115" y="145"/>
      <point x="945" y="52"/>
      <point x="743" y="0"/>
      <point x="629" y="0" type="qcurve" name="ab01"/>
      <point x="192" y="0" type="line"/>
    </contour>
  </outline>
</glyph>
<glyph name="latn:E" format="2">
  <advance width="1088"/>
  <unicode hex="0045"/>
  <guideline x="986" y="0" angle="90"/>
  <guideline x="731" y="0" angle="80"/>
  <anchor x="624" y="1600" name="AccentAbove"/>
  <anchor x="974" y="1600" name="AccentAboveRight"/>
  <anchor x="878" y="0" name="AccentAttachedBelow"/>
  <anchor x="624" y="0" name="AccentBelow"/>
  <anchor x="624" y="780" name="AccentOverlay"/>
  <outline>
    <contour>
      <point x="182" y="1434" type="line" name="sh01"/>
      <point x="986" y="1434" type="line" name="sh02"/>
      <point x="961" y="1292" type="line"/>
      <point x="364" y="1312" type="line" name="sh03"/>
      <point x="364" y="839" type="line" name="iv01"/>
      <point x="879" y="839" type="line" name="sh04"/>
      <point x="857" y="717" type="line"/>
      <point x="364" y="717" type="line" name="sh05"/>
      <point x="364" y="122" type="line" name="sv01"/>
      <point x="986" y="142" type="line" name="ah01"/>
      <point x="961" y="0" type="line"/>
      <point x="182" y="0" type="line" name="ab01"/>
    </contour>
  </outline>
</glyph>
<glyph name="latn:F" format="2">
  <advance width="1088"/>
  <unicode hex="0046"/>
  <guideline x="947" y="0" angle="90"/>
  <guideline x="733" y="0" angle="80"/>
  <anchor x="624" y="1600" name="AccentAbove"/>
  <anchor x="974" y="1600" name="AccentAboveRight"/>
  <anchor x="624" y="0" name="AccentBelow"/>
  <anchor x="624" y="780" name="AccentOverlay"/>
  <outline>
    <contour>
      <point x="182" y="1434" type="line" name="sh01"/>
      <point x="986" y="1434" type="line" name="ah01"/>
      <point x="961" y="1292" type="line"/>
      <point x="364" y="1312" type="line" name="sh02"/>
      <point x="364" y="839" type="line" name="iv01"/>
      <point x="879" y="839" type="line"/>
      <point x="857" y="717" type="line"/>
      <point x="364" y="717" type="line" name="sh03"/>
      <point x="364" y="0" type="line" name="ab01"/>
      <point x="182" y="0" type="line"/>
    </contour>
  </outline>
</glyph>
<glyph name="latn:G" format="2">
  <advance width="1600"/>
  <unicode hex="0047"/>
  <guideline x="0" y="-85" angle="45"/>
  <guideline x="865" y="0" angle="90"/>
  <guideline x="789" y="0" angle="80"/>
  <anchor x="864" y="1600" name="AccentAbove"/>
  <anchor x="1214" y="1600" name="AccentAboveRight"/>
  <anchor x="864" y="0" name="AccentBelow"/>
  <anchor x="800" y="670" name="AccentOverlay"/>
  <outline>
    <contour>
      <point x="886" y="717" type="line" name="dv01"/>
      <point x="1420" y="717" type="line"/>
      <point x="1420" y="206" type="line" name="sh01"/>
      <point x="1367" y="146"/>
      <point x="1236" y="58"/>
      <point x="1092" y="-1"/>
      <point x="938" y="-30"/>
      <point x="863" y="-30" type="qcurve" name="ab01"/>
      <point x="765" y="-30"/>
      <point x="575" y="19"/>
      <point x="406" y="110"/>
      <point x="263" y="242"/>
      <point x="158" y="408"/>
      <point x="100" y="605"/>
      <point x="100" y="717" type="qcurve" name="sh02"/>
      <point x="100" y="826"/>
      <point x="157" y="1021"/>
      <point x="259" y="1187"/>
      <point x="401" y="1321"/>
      <point x="570" y="1414"/>
      <point x="762" y="1464"/>
      <point x="864" y="1464" type="qcurve" name="at01"/>
      <point x="952" y="1464"/>
      <point x="1118" y="1427"/>
      <point x="1262" y="1364"/>
      <point x="1379" y="1279"/>
      <point x="1420" y="1230" type="qcurve" name="sh03"/>
      <point x="1304" y="1112" type="line" name="mh01"/>
      <point x="1271" y="1159"/>
      <point x="1183" y="1243"/>
      <point x="1073" y="1306"/>
      <point x="941" y="1342"/>
      <point x="865" y="1342" type="qcurve" name="sv01"/>
      <point x="757" y="1342" name="fh01"/>
      <point x="551" y="1251"/>
      <point x="390" y="1086"/>
      <point x="292" y="856"/>
      <point x="292" y="717" type="qcurve" name="sh04"/>
      <point x="292" y="586"/>
      <point x="381" y="359"/>
      <point x="536" y="189"/>
      <point x="744" y="92"/>
      <point x="863" y="92" type="qcurve" name="sv02"/>
      <point x="920" y="92"/>
      <point x="1031" y="113"/>
      <point x="1130" y="149"/>
      <point x="1211" y="198"/>
      <point x="1238" y="227" type="qcurve" name="sh05"/>
      <point x="1238" y="595" type="line"/>
      <point x="865" y="595" type="line" name="ah01"/>
    </contour>
  </outline>
</glyph>
<glyph name="latn:H" format="2">
  <advance width="1504"/>
  <unicode hex="0048"/>
  <anchor x="752" y="1600" name="AccentAbove"/>
  <anchor x="1102" y="1600" name="AccentAboveRight"/>
  <anchor x="752" y="0" name="AccentBelow"/>
  <anchor x="268" y="0" name="AccentCedilla"/>
  <anchor x="752" y="670" name="AccentOverlay"/>
  <outline>
    <contour>
      <point x="364" y="1464" type="line" name="sh03"/>
      <point x="364" y="839" type="line" name="iv01"/>
      <point x="1140" y="839" type="line"/>
      <point x="1140" y="1434" type="line" name="sh05"/>
      <point x="1322" y="1464" type="line" name="sh04"/>
      <point x="1322" y="0" type="line" name="ab01"/>
      <point x="1140" y="0" type="line" name="sh06"/>
      <point x="1140" y="717" type="line"/>
      <point x="364" y="717" type="line" name="sv01"/>
      <point x="364" y="0" type="line" name="sh02"/>
      <point x="182" y="0" type="line" name="sh01"/>
      <point x="182" y="1434" type="line" name="at01"/>
    </contour>
  </outline>
</glyph>
<glyph name="I" format="2">
  <advance width="576"/>
  <unicode hex="0049"/>
  <guideline x="-77" y="0" angle="83"/>
  <anchor x="288" y="1600" name="AccentAbove"/>
  <anchor x="438" y="1600" name="AccentAboveRight"/>
  <anchor x="288" y="0" name="AccentAttachedBelow"/>
  <anchor x="288" y="0" name="AccentBelow"/>
  <anchor x="288" y="712" name="AccentOverlay"/>
  <outline>
    <contour>
      <point x="379" y="1464" type="line" name="at01"/>
      <point x="379" y="0" type="line" name="sh02"/>
      <point x="197" y="0" type="line" name="sh01"/>
      <point x="197" y="1434" type="line" name="at02"/>
    </contour>
  </outline>
</glyph>
<glyph name="J" format="2">
  <advance width="736"/>
  <unicode hex="004A"/>
  <guideline x="16" y="0" angle="90"/>
  <guideline x="21" y="0" angle="80"/>
  <anchor x="452" y="1600" name="AccentAbove"/>
  <anchor x="602" y="1600" name="AccentAboveRight"/>
  <anchor x="288" y="0" name="AccentBelow"/>
  <anchor x="452" y="712" name="AccentOverlay"/>
  <outline>
    <contour>
      <point x="372" y="1434" type="line" name="dh01"/>
      <point x="554" y="1464" type="line" name="dh02"/>
      <point x="554" y="492" type="line"/>
      <point x="554" y="324"/>
      <point x="469" y="119"/>
      <point x="322" y="7"/>
      <point x="127" y="-30"/>
      <point x="16" y="-30" type="qcurve" name="ab01"/>
      <point x="40" y="112" type="line" name="sv01"/>
      <point x="78" y="112"/>
      <point x="156" y="120" name="sh01"/>
      <point x="230" y="143"/>
      <point x="295" y="185"/>
      <point x="344" y="252"/>
      <point x="372" y="349"/>
      <point x="372" y="415" type="qcurve" name="mv01"/>
    </contour>
  </outline>
</glyph>
<glyph name="L" format="2">
  <advance width="1088"/>
  <unicode hex="004C"/>
  <guideline x="985" y="0" angle="80"/>
  <anchor x="624" y="0" name="AccentBelow"/>
  <anchor x="288" y="1600" name="AccentDefault"/>
  <anchor x="288" y="712" name="AccentMiddle"/>
  <outline>
    <contour>
      <point x="364" y="1464" type="line" name="at01"/>
      <point x="364" y="122" type="line" name="sh02"/>
      <point x="1010" y="142" type="line" name="sh03"/>
      <point x="985" y="0" type="line"/>
      <point x="182" y="0" type="line" name="sh01"/>
      <point x="182" y="1434" type="line" name="at02"/>
    </contour>
  </outline>
</glyph>
<glyph name="M" format="2">
  <advance width="1824"/>
  <unicode hex="004D"/>
  <guideline x="0" y="1061" angle="0"/>
  <guideline x="827" y="0" angle="112"/>
  <guideline x="1036" y="0" angle="112"/>
  <guideline x="916" y="0" angle="68"/>
  <guideline x="782" y="0" angle="68"/>
  <guideline x="1735" y="0" angle="100"/>
  <guideline x="207" y="0" angle="80"/>
  <guideline x="1529" y="0" angle="100"/>
  <guideline x="82" y="0" angle="80"/>
  <anchor x="914" y="0" name="AccentBelow"/>
  <anchor x="914" y="1600" name="AccentDefault"/>
  <anchor x="864" y="712" name="AccentMiddle"/>
  <outline>
    <contour>
      <point x="408" y="1061" type="line" name="mh01"/>
      <point x="398" y="1061" type="line"/>
      <point x="206" y="-30" type="line" name="sh02"/>
      <point x="86" y="0" type="line" name="sh01"/>
      <point x="339" y="1434" type="line" name="sh03"/>
      <point x="448" y="1464" type="line"/>
      <point x="903" y="314" type="line" name="ih01"/>
      <point x="913" y="314" type="line"/>
      <point x="1378" y="1464" type="line" name="at01"/>
      <point x="1486" y="1434" type="line" name="sh05"/>
      <point x="1738" y="0" type="line" name="sh04"/>
      <point x="1538" y="-30" type="line" name="sh06"/>
      <point x="1356" y="1061" type="line" name="mh03"/>
      <point x="1346" y="1061" type="line" name="sv01"/>
      <point x="904" y="-30" type="line" name="ih02"/>
      <point x="839" y="-30" type="line" name="mh02"/>
    </contour>
  </outline>
</glyph>
<glyph name="latn:N" format="2">
  <advance width="1504"/>
  <unicode hex="004E"/>
  <guideline x="1438" y="0" angle="128"/>
  <guideline x="1210" y="0" angle="128"/>
  <anchor x="752" y="1600" name="AccentAbove"/>
  <anchor x="1207" y="1600" name="AccentAboveRight"/>
  <anchor x="752" y="0" name="AccentBelow"/>
  <anchor x="752" y="712" name="AccentOverlay"/>
  <outline>
    <contour>
      <point x="294" y="1464" type="line" name="mh01"/>
      <point x="1200" y="305" type="line" name="mh02"/>
      <point x="1210" y="305" type="line" name="sh02"/>
      <point x="1210" y="1464" type="line" name="at01"/>
      <point x="1332" y="1434" type="line" name="at03"/>
      <point x="1332" y="0" type="line" name="sh01"/>
      <point x="1210" y="0" type="line" name="mh03"/>
      <point x="304" y="1159" type="line" name="mh04"/>
      <point x="294" y="1159" type="line"/>
      <point x="294" y="0" type="line" name="sh04"/>
      <point x="172" y="0" type="line" name="sh03"/>
      <point x="172" y="1434" type="line" name="at02"/>
    </contour>
  </outline>
</glyph>
<glyph name="O" format="2">
  <advance width="1600"/>
  <unicode hex="004F"/>
  <anchor x="800" y="1600" name="AccentAbove"/>
  <anchor x="1150" y="1600" name="AccentAboveRight"/>
  <anchor x="800" y="0" name="AccentBelow"/>
  <anchor x="800" y="712" name="AccentOverlay"/>
  <outline>
    <contour>
      <point x="100" y="717" type="qcurve" name="sh01"/>
      <point x="100" y="832"/>
      <point x="155" y="1032"/>
      <point x="252" y="1198"/>
      <point x="385" y="1328"/>
      <point x="541" y="1417"/>
      <point x="712" y="1464"/>
      <point x="800" y="1464" type="qcurve" name="at01"/>
      <point x="888" y="1464"/>
      <point x="1059" y="1417"/>
      <point x="1215" y="1328"/>
      <point x="1348" y="1198"/>
      <point x="1445" y="1032"/>
      <point x="1500" y="832"/>
      <point x="1500" y="717" type="qcurve" name="sh02"/>
      <point x="1500" y="602"/>
      <point x="1445" y="402"/>
      <point x="1348" y="236"/>
      <point x="1215" y="106"/>
      <point x="1059" y="17"/>
      <point x="887" y="-30"/>
      <point x="800" y="-30" type="qcurve" name="ab01"/>
      <point x="713" y="-30"/>
      <point x="541" y="17"/>
      <point x="385" y="106"/>
      <point x="252" y="236"/>
      <point x="155" y="402"/>
      <point x="100" y="602"/>
    </contour>
    <contour>
      <point x="292" y="717" type="qcurve" name="sh03"/>
      <point x="292" y="558"/>
      <point x="384" y="323"/>
      <point x="531" y="168"/>
      <point x="711" y="92"/>
      <point x="800" y="92" type="qcurve" name="sv01"/>
      <point x="859" y="92"/>
      <point x="980" y="126"/>
      <point x="1093" y="194"/>
      <point x="1192" y="297"/>
      <point x="1266" y="436"/>
      <point x="1308" y="611"/>
      <point x="1308" y="717" type="qcurve" name="sh04"/>
      <point x="1308" y="823"/>
      <point x="1266" y="998"/>
      <point x="1192" y="1137"/>
      <point x="1093" y="1240"/>
      <point x="980" y="1308"/>
      <point x="859" y="1342"/>
      <point x="800" y="1342" type="qcurve" name="sv02"/>
      <point x="711" y="1342"/>
      <point x="531" y="1266"/>
      <point x="384" y="1111"/>
      <point x="292" y="876"/>
    </contour>
  </outline>
</glyph>
<glyph name="Q" format="2">
  <advance width="1600"/>
  <unicode hex="0051"/>
  <guideline x="0" y="-164" angle="0"/>
  <guideline x="1068" y="0" angle="90"/>
  <guideline x="385" y="0" angle="135"/>
  <anchor x="800" y="1600" name="AccentAbove"/>
  <anchor x="1150" y="1600" name="AccentAboveRight"/>
  <anchor x="800" y="0" name="AccentBelow"/>
  <anchor x="800" y="712" name="AccentOverlay"/>
  <outline>
    <contour>
      <point x="100" y="717" type="qcurve" name="sh01"/>
      <point x="100" y="832"/>
      <point x="155" y="1032"/>
      <point x="252" y="1198"/>
      <point x="385" y="1328"/>
      <point x="541" y="1417"/>
      <point x="712" y="1464"/>
      <point x="800" y="1464" type="qcurve" name="at01"/>
      <point x="888" y="1464"/>
      <point x="1059" y="1417"/>
      <point x="1215" y="1328"/>
      <point x="1348" y="1198"/>
      <point x="1445" y="1032"/>
      <point x="1500" y="832"/>
      <point x="1500" y="717" type="qcurve" name="sh02"/>
      <point x="1500" y="593"/>
      <point x="1433" y="380"/>
      <point x="1319" y="207"/>
      <point x="1166" y="77"/>
      <point x="1080" y="36" type="qcurve"/>
      <point x="1080" y="26" type="line" name="sh03"/>
      <point x="1165" y="5"/>
      <point x="1298" y="-59"/>
      <point x="1400" y="-137"/>
      <point x="1473" y="-225"/>
      <point x="1500" y="-271" type="qcurve" name="sh04"/>
      <point x="1384" y="-388" type="line" name="sh05"/>
      <point x="1360" y="-349"/>
      <point x="1305" y="-266"/>
      <point x="1235" y="-187"/>
      <point x="1146" y="-115"/>
      <point x="1032" y="-62"/>
      <point x="889" y="-30"/>
      <point x="800" y="-30" type="qcurve" name="ih01"/>
      <point x="713" y="-30"/>
      <point x="541" y="17"/>
      <point x="385" y="106"/>
      <point x="252" y="236"/>
      <point x="155" y="402"/>
      <point x="100" y="602"/>
    </contour>
    <contour>
      <point x="292" y="717" type="qcurve" name="sh06"/>
      <point x="292" y="558"/>
      <point x="384" y="323"/>
      <point x="531" y="168"/>
      <point x="711" y="92"/>
      <point x="800" y="92" type="qcurve" name="sv01"/>
      <point x="859" y="92"/>
      <point x="980" y="126"/>
      <point x="1093" y="194"/>
      <point x="1192" y="297"/>
      <point x="1266" y="436"/>
      <point x="1308" y="611"/>
      <point x="1308" y="717" type="qcurve" name="sh07"/>
      <point x="1308" y="823"/>
      <point x="1266" y="998"/>
      <point x="1192" y="1137"/>
      <point x="1093" y="1240"/>
      <point x="980" y="1308"/>
      <point x="859" y="1342"/>
      <point x="800" y="1342" type="qcurve" name="sv02"/>
      <point x="711" y="1342"/>
      <point x="531" y="1266"/>
      <point x="384" y="1111"/>
      <point x="292" y="876"/>
    </contour>
  </outline>
</glyph>
<glyph name="R" format="2">
  <advance width="1248"/>
  <unicode hex="0052"/>
  <guideline x="0" y="615" angle="0"/>
  <guideline x="1199" y="0" angle="130"/>
  <guideline x="963" y="0" angle="130"/>
  <anchor x="576" y="1600" name="AccentAbove"/>
  <anchor x="926" y="1600" name="AccentAboveRight"/>
  <anchor x="576" y="0" name="AccentBelow"/>
  <anchor x="576" y="712" name="AccentOverlay"/>
  <outline>
    <contour>
      <point x="182" y="1434" type="line" name="sh01"/>
      <point x="589" y="1434" type="line"/>
      <point x="716" y="1434"/>
      <point x="907" y="1380"/>
      <point x="1035" y="1277"/>
      <point x="1100" y="1128"/>
      <point x="1100" y="1034" type="qcurve" name="sh02"/>
      <point x="1100" y="972"/>
      <point x="1060" y="867"/>
      <point x="992" y="782"/>
      <point x="904" y="715"/>
      <point x="810" y="668"/>
      <point x="715" y="638"/>
      <point x="674" y="632" type="qcurve" name="sh06"/>
      <point x="674" y="625" type="line"/>
      <point x="1196" y="0" type="line" name="sh07"/>
      <point x="987" y="-30" type="line" name="sh08"/>
      <point x="525" y="595" type="line" name="sh05"/>
      <point x="364" y="595" type="line" name="sh04"/>
      <point x="364" y="0" type="line" name="ab01"/>
      <point x="182" y="0" type="line"/>
    </contour>
    <contour>
      <point x="364" y="1312" type="line" name="sh03"/>
      <point x="364" y="717" type="line"/>
      <point x="563" y="717" type="line" name="sv01"/>
      <point x="633" y="717"/>
      <point x="758" y="762"/>
      <point x="853" y="844"/>
      <point x="908" y="962"/>
      <point x="908" y="1034" type="qcurve" name="sh09"/>
      <point x="908" y="1104"/>
      <point x="864" y="1209"/>
      <point x="784" y="1278"/>
      <point x="673" y="1312"/>
      <point x="607" y="1312" type="qcurve"/>
    </contour>
  </outline>
</glyph>
<glyph name="latn:S" format="2">
  <advance width="1152"/>
  <unicode hex="0053"/>
  <guideline x="0" y="851" angle="340"/>
  <guideline x="0" y="1061" angle="340"/>
  <guideline x="595" y="0" angle="90"/>
  <guideline x="-242" y="0" angle="45"/>
  <guideline x="-105" y="0" angle="45"/>
  <anchor x="576" y="1600" name="AccentAbove"/>
  <anchor x="926" y="1600" name="AccentAboveRight"/>
  <anchor x="576" y="0" name="AccentBelow"/>
  <anchor x="512" y="0" name="AccentCedilla"/>
  <anchor x="624" y="712" name="AccentOverlay"/>
  <outline>
    <contour>
      <point x="1016" y="1230" type="qcurve" name="sh01"/>
      <point x="899" y="1113" type="line" name="av01"/>
      <point x="879" y="1159"/>
      <point x="813" y="1242"/>
      <point x="730" y="1305"/>
      <point x="634" y="1342"/>
      <point x="585" y="1342" type="qcurve" name="sv01"/>
      <point x="540" y="1342"/>
      <point x="462" y="1308"/>
      <point x="403" y="1249"/>
      <point x="369" y="1170"/>
      <point x="369" y="1126" type="qcurve" name="sh03"/>
      <point x="369" y="1061"/>
      <point x="417" y="968"/>
      <point x="495" y="900"/>
      <point x="594" y="852"/>
      <point x="645" y="833" type="qcurve" name="mv01"/>
      <point x="723" y="804"/>
      <point x="870" y="727"/>
      <point x="983" y="622"/>
      <point x="1052" y="486"/>
      <point x="1052" y="398" type="qcurve" name="sh04"/>
      <point x="1052" y="315"/>
      <point x="983" y="161"/>
      <point x="857" y="42"/>
      <point x="682" y="-30"/>
      <point x="577" y="-30" type="qcurve" name="ab01"/>
      <point x="489" y="-30"/>
      <point x="346" y="12"/>
      <point x="229" y="78"/>
      <point x="137" y="162"/>
      <point x="100" y="204" type="qcurve" name="sh05"/>
      <point x="217" y="322" type="line" name="sv03"/>
      <point x="240" y="283"/>
      <point x="304" y="202"/>
      <point x="390" y="135"/>
      <point x="499" y="92"/>
      <point x="567" y="92" type="qcurve" name="sv02"/>
      <point x="634" y="92"/>
      <point x="743" y="139"/>
      <point x="819" y="213"/>
      <point x="860" y="305"/>
      <point x="860" y="351" type="qcurve" name="sh06"/>
      <point x="860" y="409"/>
      <point x="829" y="499"/>
      <point x="758" y="573"/>
      <point x="641" y="636"/>
      <point x="556" y="668" type="qcurve" name="iv01"/>
      <point x="471" y="699"/>
      <point x="334" y="779"/>
      <point x="238" y="882"/>
      <point x="187" y="1014"/>
      <point x="187" y="1097" type="qcurve" name="sh02"/>
      <point x="187" y="1173"/>
      <point x="250" y="1307"/>
      <point x="358" y="1407"/>
      <point x="503" y="1464"/>
      <point x="586" y="1464" type="qcurve" name="at01"/>
      <point x="667" y="1464"/>
      <point x="802" y="1420"/>
      <point x="911" y="1351"/>
      <point x="991" y="1268"/>
    </contour>
  </outline>
</glyph>
<glyph name="latn:T" format="2">
  <advance width="1152"/>
  <unicode hex="0054"/>
  <guideline x="0" y="1116" angle="0"/>
  <guideline x="896" y="0" angle="80"/>
  <guideline x="-186" y="0" angle="80"/>
  <guideline x="576" y="0" angle="90"/>
  <guideline x="35" y="0" angle="90"/>
  <guideline x="57" y="0" angle="90"/>
  <anchor x="576" y="1600" name="AccentAbove"/>
  <anchor x="926" y="1600" name="AccentAboveRight"/>
  <anchor x="576" y="0" name="AccentBelow"/>
  <anchor x="554" y="0" name="AccentCedilla"/>
  <anchor x="576" y="712" name="AccentOverlay"/>
  <outline>
    <contour>
      <point x="57" y="1434" type="line" name="at01"/>
      <point x="1120" y="1434" type="line"/>
      <point x="1095" y="1292" type="line"/>
      <point x="667" y="1312" type="line" name="sv02"/>
      <point x="667" y="0" type="line" name="dh02"/>
      <point x="485" y="0" type="line" name="dh01"/>
      <point x="485" y="1312" type="line" name="sv01"/>
      <point x="32" y="1292" type="line" name="mv01"/>
    </contour>
  </outline>
</glyph>
<glyph name="latn:U" format="2">
  <advance width="1504"/>
  <unicode hex="0055"/>
  <guideline x="0" y="562" angle="0"/>
  <guideline x="780" y="0" angle="90"/>
  <anchor x="772" y="1600" name="AccentAbove"/>
  <anchor x="1122" y="1600" name="AccentAboveRight"/>
  <anchor x="838" y="0" name="AccentAttachedBelow"/>
  <anchor x="772" y="0" name="AccentBelow"/>
  <anchor x="800" y="712" name="AccentOverlay"/>
  <outline>
    <contour>
      <point x="364" y="1464" type="line" name="at01"/>
      <point x="364" y="542" type="line" name="sh02"/>
      <point x="364" y="411"/>
      <point x="435" y="238"/>
      <point x="551" y="134"/>
      <point x="697" y="92"/>
      <point x="772" y="92" type="qcurve" name="sv01"/>
      <point x="854" y="92"/>
      <point x="1008" y="137"/>
      <point x="1128" y="242"/>
      <point x="1200" y="414"/>
      <point x="1200" y="542" type="qcurve" name="sh04"/>
      <point x="1200" y="1464" type="line" name="at02"/>
      <point x="1322" y="1434" type="line"/>
      <point x="1322" y="562" type="line" name="sh03"/>
      <point x="1322" y="410"/>
      <point x="1241" y="187"/>
      <point x="1092" y="41"/>
      <point x="881" y="-30"/>
      <point x="752" y="-30" type="qcurve" name="ab01"/>
      <point x="623" y="-30"/>
      <point x="413" y="41"/>
      <point x="263" y="186"/>
      <point x="182" y="409"/>
      <point x="182" y="562" type="qcurve" name="sh01"/>
      <point x="182" y="1434" type="line"/>
    </contour>
  </outline>
</glyph>
<glyph name="V" format="2">
  <advance width="1248"/>
  <unicode hex="0056"/>
  <guideline x="564" y="0" angle="70"/>
  <guideline x="687" y="0" angle="70"/>
  <guideline x="564" y="0" angle="110"/>
  <guideline x="770" y="0" angle="110"/>
  <anchor x="624" y="0" name="AccentBelow"/>
  <anchor x="624" y="1600" name="AccentDefault"/>
  <anchor x="624" y="712" name="AccentMiddle"/>
  <outline>
    <contour>
      <point x="657" y="283" type="line" name="av01"/>
      <point x="667" y="283" type="line"/>
      <point x="1090" y="1464" type="line" name="sh02"/>
      <point x="1210" y="1434" type="line" name="sh01"/>
      <point x="687" y="0" type="line" name="ab01"/>
      <point x="564" y="0" type="line" name="mh01"/>
      <point x="42" y="1434" type="line" name="sh03"/>
      <point x="242" y="1464" type="line" name="sh04"/>
    </contour>
  </outline>
</glyph>
<glyph name="W" format="2">
  <advance width="1888"/>
  <unicode hex="0057"/>
  <guideline x="0" y="348" angle="0"/>
  <guideline x="454" y="0" angle="106"/>
  <guideline x="1522" y="0" angle="108"/>
  <guideline x="1433" y="0" angle="74"/>
  <guideline x="1310" y="0" angle="74"/>
  <guideline x="662" y="0" angle="106"/>
  <guideline x="576" y="0" angle="72"/>
  <guideline x="449" y="0" angle="72"/>
  <guideline x="1311" y="0" angle="108"/>
  <guideline x="983" y="0" angle="90"/>
  <anchor x="984" y="1600" name="AccentAbove"/>
  <anchor x="1734" y="1600" name="AccentAboveRight"/>
  <anchor x="984" y="0" name="AccentBelow"/>
  <anchor x="984" y="712" name="AccentOverlay"/>
  <outline>
    <contour>
      <point x="1409" y="348" type="line" name="mh01"/>
      <point x="1419" y="348" type="line"/>
      <point x="1726" y="1464" type="line" name="sh02"/>
      <point x="1846" y="1434" type="line" name="sh01"/>
      <point x="1434" y="0" type="line" name="ab01"/>
      <point x="1312" y="0" type="line" name="mh02"/>
      <point x="954" y="1131" type="line" name="ih01"/>
      <point x="944" y="1131" type="line"/>
      <point x="576" y="0" type="line" name="mh05"/>
      <point x="454" y="0" type="line" name="mh06"/>
      <point x="42" y="1434" type="line" name="sh03"/>
      <point x="242" y="1464" type="line" name="sh04"/>
      <point x="552" y="348" type="line" name="ih02"/>
      <point x="562" y="348" type="line" name="mh07"/>
      <point x="924" y="1464" type="line" name="mh03"/>
      <point x="1046" y="1464" type="line" name="mh04"/>
    </contour>
  </outline>
</glyph>
<glyph name="latn:X" format="2">
  <advance width="1248"/>
  <unicode hex="0058"/>
  <guideline x="0" y="725" angle="0"/>
  <guideline x="218" y="0" angle="58"/>
  <guideline x="72" y="0" angle="58"/>
  <guideline x="1187" y="0" angle="122"/>
  <guideline x="968" y="0" angle="122"/>
  <guideline x="72" y="0" angle="90"/>
  <guideline x="986" y="0" angle="90"/>
  <anchor x="624" y="1600" name="AccentAbove"/>
  <anchor x="974" y="1600" name="AccentAboveRight"/>
  <anchor x="624" y="0" name="AccentBelow"/>
  <anchor x="624" y="712" name="AccentOverlay"/>
  <outline>
    <contour>
      <point x="593" y="600" type="line" name="ih01"/>
      <point x="199" y="-30" type="line" name="sh03"/>
      <point x="72" y="0" type="line" name="sh01"/>
      <point x="520" y="717" type="line" name="ih02"/>
      <point x="72" y="1434" type="line" name="sh04"/>
      <point x="272" y="1464" type="line" name="sh06"/>
      <point x="620" y="892" type="line" name="mv01"/>
      <point x="630" y="892" type="line" name="iv01"/>
      <point x="987" y="1464" type="line" name="sh07"/>
      <point x="1114" y="1434" type="line" name="sh05"/>
      <point x="702" y="775" type="line" name="mv02"/>
      <point x="1186" y="0" type="line" name="sh02"/>
      <point x="986" y="-30" type="line" name="sh08"/>
      <point x="603" y="600" type="line"/>
    </contour>
  </outline>
</glyph>
<glyph name="Y" format="2">
  <advance width="1248"/>
  <unicode hex="0059"/>
  <guideline x="312" y="0" angle="62"/>
  <guideline x="1020" y="0" angle="118"/>
  <guideline x="804" y="0" angle="118"/>
  <guideline x="448" y="0" angle="62"/>
  <anchor x="624" y="1600" name="AccentAbove"/>
  <anchor x="974" y="1600" name="AccentAboveRight"/>
  <anchor x="672" y="0" name="AccentBelow"/>
  <anchor x="624" y="712" name="AccentOverlay"/>
  <outline>
    <contour>
      <point x="666" y="660" type="line" name="av01"/>
      <point x="1090" y="1464" type="line" name="sh02"/>
      <point x="1210" y="1434" type="line" name="sh01"/>
      <point x="731" y="532" type="line" name="iv01"/>
      <point x="731" y="0" type="line" name="dh02"/>
      <point x="549" y="0" type="line" name="dh01"/>
      <point x="549" y="514" type="line"/>
      <point x="42" y="1434" type="line" name="sh03"/>
      <point x="242" y="1464" type="line" name="sh04"/>
      <point x="656" y="660" type="line" name="ih01"/>
    </contour>
  </outline>
</glyph>
<glyph name="Z" format="2">
  <advance width="1248"/>
  <unicode hex="005A"/>
  <guideline x="0" y="1283" angle="3"/>
  <guideline x="29" y="0" angle="56"/>
  <guideline x="239" y="0" angle="56"/>
  <guideline x="-60" y="0" angle="80"/>
  <guideline x="1168" y="0" angle="80"/>
  <guideline x="1167" y="0" angle="90"/>
  <guideline x="1193" y="0" angle="90"/>
  <anchor x="672" y="1600" name="AccentAbove"/>
  <anchor x="1022" y="1600" name="AccentAboveRight"/>
  <anchor x="672" y="0" name="AccentBelow"/>
  <anchor x="642" y="712" name="AccentOverlay"/>
  <outline>
    <contour>
      <point x="193" y="1434" type="line" name="ah01"/>
      <point x="1193" y="1434" type="line" name="sh02"/>
      <point x="1193" y="1414" type="line" name="mh01"/>
      <point x="328" y="132" type="line" name="sh04"/>
      <point x="328" y="122" type="line" name="sv01"/>
      <point x="1193" y="143" type="line" name="av01"/>
      <point x="1168" y="0" type="line" name="sh01"/>
      <point x="42" y="0" type="line" name="sh03"/>
      <point x="42" y="20" type="line" name="mh02"/>
      <point x="907" y="1302" type="line" name="sh05"/>
      <point x="907" y="1312" type="line" name="sv02"/>
      <point x="168" y="1292" type="line" name="av02"/>
    </contour>
  </outline>
</glyph>
<glyph name="sign:bracketleft" format="2">
  <advance width="736"/>
  <unicode hex="005B"/>
  <guideline x="360" y="0" angle="80"/>
  <guideline x="532" y="0" angle="100"/>
  <guideline x="654" y="0" angle="90"/>
  <outline>
    <contour>
      <point x="274" y="1464" type="line" name="dh01"/>
      <point x="654" y="1464" type="line"/>
      <point x="636" y="1362" type="line" name="sv01"/>
      <point x="416" y="1362" type="line" name="dh02"/>
      <point x="416" y="-176" type="line"/>
      <point x="636" y="-176" type="line" name="dv02"/>
      <point x="654" y="-278" type="line" name="dv01"/>
      <point x="274" y="-278" type="line"/>
    </contour>
  </outline>
</glyph>
<glyph name="backslash" format="2">
  <advance width="576"/>
  <unicode hex="005C"/>
  <guideline x="640" y="0" angle="112"/>
  <outline>
    <contour>
      <point x="68" y="1586" type="line" name="dh01"/>
      <point x="626" y="-134" type="line" name="dh04"/>
      <point x="508" y="-152" type="line" name="dh03"/>
      <point x="-50" y="1569" type="line" name="dh02"/>
    </contour>
  </outline>
</glyph>
<glyph name="a" format="2">
  <advance width="1120"/>
  <unicode hex="0061"/>
  <guideline x="0" y="464" angle="6"/>
  <guideline x="1001" y="0" angle="135"/>
  <guideline x="331" y="0" angle="90"/>
  <guideline x="919" y="0" angle="80"/>
  <anchor x="560" y="0" name="AccentBelow"/>
  <anchor x="532" y="1100" name="AccentDefault"/>
  <anchor x="560" y="486" name="AccentMiddle"/>
  <anchor x="650" y="0" name="AccentOgonek"/>
  <outline>
    <contour>
      <point x="153" y="849" type="line" name="ih01"/>
      <point x="234" y="925"/>
      <point x="450" y="1004"/>
      <point x="565" y="1004" type="qcurve" name="at01"/>
      <point x="640" y="1004"/>
      <point x="785" y="960"/>
      <point x="899" y="862"/>
      <point x="970" y="708"/>
      <point x="970" y="597" type="qcurve"/>
      <point x="970" y="174" type="line" name="sh04"/>
      <point x="970" y="72"/>
      <point x="1048" y="72" type="qcurve" name="sh03"/>
      <point x="1030" y="-30" type="line" name="ab01"/>
      <point x="976" y="-30"/>
      <point x="901" y="3"/>
      <point x="852" y="54"/>
      <point x="824" y="115"/>
      <point x="818" y="142" type="qcurve"/>
      <point x="808" y="142" type="line" name="sh05"/>
      <point x="784" y="115"/>
      <point x="708" y="55"/>
      <point x="611" y="4"/>
      <point x="496" y="-30"/>
      <point x="435" y="-30" type="qcurve" name="ab02"/>
      <point x="371" y="-30"/>
      <point x="258" y="4" name="fv01"/>
      <point x="173" y="69"/>
      <point x="124" y="164"/>
      <point x="124" y="225" type="qcurve" name="sh01"/>
      <point x="124" y="313"/>
      <point x="218" y="449"/>
      <point x="395" y="541"/>
      <point x="649" y="589"/>
      <point x="808" y="589" type="qcurve" name="sh06"/>
      <point x="808" y="637" type="line"/>
      <point x="808" y="716"/>
      <point x="762" y="819"/>
      <point x="691" y="879"/>
      <point x="605" y="902"/>
      <point x="565" y="902" type="qcurve" name="sv01"/>
      <point x="525" y="902"/>
      <point x="440" y="879"/>
      <point x="358" y="839"/>
      <point x="284" y="781"/>
      <point x="255" y="747" type="qcurve" name="mh01"/>
    </contour>
    <contour>
      <point x="808" y="507" type="line" name="sh07"/>
      <point x="763" y="507"/>
      <point x="651" y="501"/>
      <point x="535" y="482"/>
      <point x="425" y="447"/>
      <point x="338" y="389"/>
      <point x="286" y="305"/>
      <point x="286" y="246" type="qcurve" name="sh02"/>
      <point x="286" y="164"/>
      <point x="384" y="72"/>
      <point x="472" y="72" type="qcurve" name="sv02"/>
      <point x="523" y="72"/>
      <point x="619" y="104"/>
      <point x="705" y="157"/>
      <point x="779" y="226"/>
      <point x="808" y="263" type="qcurve"/>
    </contour>
  </outline>
</glyph>
<glyph name="b" format="2">
  <advance width="1120"/>
  <unicode hex="0062"/>
  <guideline x="539" y="0" angle="90"/>
  <anchor x="594" y="1600" name="AccentAbove"/>
  <anchor x="744" y="1400" name="AccentAboveRight"/>
  <anchor x="560" y="0" name="AccentBelow"/>
  <anchor x="594" y="486" name="AccentOverlay"/>
  <outline>
    <contour>
      <point x="304" y="190" type="line" name="sh02"/>
      <point x="352" y="139"/>
      <point x="480" y="72"/>
      <point x="552" y="72" type="qcurve" name="sv01"/>
      <point x="600" y="72"/>
      <point x="713" y="114"/>
      <point x="811" y="212"/>
      <point x="876" y="372"/>
      <point x="876" y="489" type="qcurve" name="sh04"/>
      <point x="876" y="587"/>
      <point x="822" y="741"/>
      <point x="734" y="847"/>
      <point x="621" y="902"/>
      <point x="562" y="902" type="qcurve" name="sv02"/>
      <point x="516" y="902"/>
      <point x="438" y="881"/>
      <point x="373" y="848"/>
      <point x="323" y="806"/>
      <point x="304" y="785" type="qcurve"/>
    </contour>
    <contour>
      <point x="142" y="1464" type="line" name="at02"/>
      <point x="274" y="1494" type="line" name="av01"/>
      <point x="304" y="1494" type="line"/>
      <point x="304" y="902" type="line" name="sh05"/>
      <point x="314" y="902" type="line"/>
      <point x="336" y="921"/>
      <point x="397" y="958"/>
      <point x="468" y="987"/>
      <point x="549" y="1004"/>
      <point x="593" y="1004" type="qcurve" name="at01"/>
      <point x="686" y="1004"/>
      <point x="851" y="928"/>
      <point x="976" y="791"/>
      <point x="1048" y="602"/>
      <point x="1048" y="488" type="qcurve" name="sh03"/>
      <point x="1048" y="357"/>
      <point x="967" y="163"/>
      <point x="832" y="34"/>
      <point x="656" y="-30"/>
      <point x="562" y="-30" type="qcurve" name="ab01"/>
      <point x="519" y="-30"/>
      <point x="432" y="-12"/>
      <point x="332" y="37"/>
      <point x="215" y="123"/>
      <point x="142" y="190" type="qcurve" name="sh01"/>
    </contour>
  </outline>
</glyph>
<glyph name="c" format="2">
  <advance width="1024"/>
  <unicode hex="0063"/>
  <guideline x="1066" y="0" angle="135"/>
  <guideline x="92" y="0" angle="45"/>
  <guideline x="942" y="0" angle="90"/>
  <guideline x="840" y="0" angle="90"/>
  <anchor x="532" y="1100" name="AccentAbove"/>
  <anchor x="882" y="1100" name="AccentAboveRight"/>
  <anchor x="560" y="0" name="AccentBelow"/>
  <anchor x="512" y="0" name="AccentCedilla"/>
  <anchor x="532" y="486" name="AccentOverlay"/>
  <outline>
    <contour>
      <point x="840" y="747" type="line" name="av01"/>
      <point x="827" y="768"/>
      <point x="780" y="822"/>
      <point x="715" y="869"/>
      <point x="631" y="902"/>
      <point x="580" y="902" type="qcurve" name="sv01"/>
      <point x="509" y="902"/>
      <point x="389" y="837"/>
      <point x="302" y="724"/>
      <point x="254" y="573"/>
      <point x="254" y="487" type="qcurve" name="sh02"/>
      <point x="254" y="400"/>
      <point x="302" y="249"/>
      <point x="389" y="137"/>
      <point x="508" y="72"/>
      <point x="580" y="72" type="qcurve" name="sv02"/>
      <point x="631" y="72"/>
      <point x="715" y="105"/>
      <point x="780" y="152"/>
      <point x="827" y="206"/>
      <point x="840" y="227" type="qcurve" name="av02"/>
      <point x="942" y="125" type="line" name="sh03"/>
      <point x="916" y="96"/>
      <point x="844" y="41"/>
      <point x="754" y="-3"/>
      <point x="644" y="-30"/>
      <point x="580" y="-30" type="qcurve" name="ab01"/>
      <point x="473" y="-30"/>
      <point x="291" y="48"/>
      <point x="157" y="186"/>
      <point x="82" y="376"/>
      <point x="82" y="487" type="qcurve" name="sh01"/>
      <point x="82" y="598"/>
      <point x="158" y="788"/>
      <point x="292" y="926"/>
      <point x="474" y="1004"/>
      <point x="580" y="1004" type="qcurve" name="at01"/>
      <point x="644" y="1004"/>
      <point x="754" y="976"/>
      <point x="845" y="932"/>
      <point x="916" y="877"/>
      <point x="942" y="849" type="qcurve" name="sh04"/>
    </contour>
  </outline>
</glyph>
<glyph name="latn:d" format="2">
  <advance width="1120"/>
  <unicode hex="0064"/>
  <guideline x="526" y="0" angle="90"/>
  <anchor x="480" y="1600" name="AccentAbove"/>
  <anchor x="830" y="1600" name="AccentAboveRight"/>
  <anchor x="560" y="0" name="AccentBelow"/>
  <anchor x="512" y="0" name="AccentCedilla"/>
  <anchor x="532" y="486" name="AccentOverlay"/>
  <outline>
    <contour>
      <point x="818" y="1464" type="line" name="at02"/>
      <point x="950" y="1494" type="line" name="av01"/>
      <point x="980" y="1494" type="line" name="ah01"/>
      <point x="980" y="179" type="line" name="sh01"/>
      <point x="980" y="125"/>
      <point x="1016" y="72"/>
      <point x="1058" y="72" type="qcurve" name="sh02"/>
      <point x="1040" y="-30" type="line" name="ab01"/>
      <point x="982" y="-30"/>
      <point x="904" y="7"/>
      <point x="856" y="60"/>
      <point x="832" y="119"/>
      <point x="828" y="142" type="qcurve" name="mv01"/>
      <point x="818" y="142" type="line" name="sh04"/>
      <point x="798" y="114"/>
      <point x="744" y="54"/>
      <point x="671" y="3"/>
      <point x="576" y="-30"/>
      <point x="515" y="-30" type="qcurve" name="ab02"/>
      <point x="431" y="-30"/>
      <point x="275" y="40"/>
      <point x="155" y="172"/>
      <point x="82" y="365"/>
      <point x="82" y="488" type="qcurve" name="sh05"/>
      <point x="82" y="594"/>
      <point x="153" y="782"/>
      <point x="274" y="922"/>
      <point x="435" y="1004"/>
      <point x="524" y="1004" type="qcurve" name="at01"/>
      <point x="568" y="1004"/>
      <point x="650" y="986"/>
      <point x="724" y="957"/>
      <point x="785" y="921"/>
      <point x="808" y="902" type="qcurve" name="sv01"/>
      <point x="818" y="902" type="line" name="sh06"/>
    </contour>
    <contour>
      <point x="818" y="785" type="line"/>
      <point x="799" y="806"/>
      <point x="747" y="848"/>
      <point x="681" y="881"/>
      <point x="601" y="902"/>
      <point x="555" y="902" type="qcurve" name="sv02"/>
      <point x="492" y="902"/>
      <point x="383" y="844"/>
      <point x="301" y="736"/>
      <point x="254" y="583"/>
      <point x="254" y="489" type="qcurve" name="sh07"/>
      <point x="254" y="375"/>
      <point x="306" y="217"/>
      <point x="389" y="117"/>
      <point x="493" y="72"/>
      <point x="545" y="72" type="qcurve" name="sv03"/>
      <point x="592" y="72"/>
      <point x="673" y="105"/>
      <point x="742" y="158"/>
      <point x="797" y="227"/>
      <point x="818" y="263" type="qcurve" name="sh03"/>
    </contour>
  </outline>
</glyph>
<glyph name="e" format="2">
  <advance width="1024"/>
  <unicode hex="0065"/>
  <guideline x="0" y="1517" angle="0"/>
  <guideline x="1057" y="0" angle="135"/>
  <anchor x="560" y="0" name="AccentBelow"/>
  <anchor x="532" y="1100" name="AccentDefault"/>
  <anchor x="532" y="550" name="AccentMiddle"/>
  <anchor x="400" y="0" name="AccentOgonek"/>
  <outline>
    <contour>
      <point x="244" y="487" type="line" name="sh02"/>
      <point x="244" y="373"/>
      <point x="301" y="215"/>
      <point x="394" y="116"/>
      <point x="513" y="72"/>
      <point x="575" y="72" type="qcurve" name="sv01"/>
      <point x="623" y="72"/>
      <point x="705" y="103"/>
      <point x="769" y="149"/>
      <point x="817" y="204"/>
      <point x="831" y="227" type="qcurve" name="sh05"/>
      <point x="932" y="125" type="line" name="sh06"/>
      <point x="916" y="106"/>
      <point x="850" y="53"/>
      <point x="757" y="4"/>
      <point x="639" y="-30"/>
      <point x="570" y="-30" type="qcurve" name="ab01"/>
      <point x="459" y="-30"/>
      <point x="276" y="39"/>
      <point x="145" y="174"/>
      <point x="72" y="375"/>
      <point x="72" y="507" type="qcurve" name="sh01"/>
      <point x="72" y="617"/>
      <point x="146" y="800"/>
      <point x="274" y="931"/>
      <point x="442" y="1004"/>
      <point x="537" y="1004" type="qcurve" name="at01"/>
      <point x="621" y="1004"/>
      <point x="774" y="944"/>
      <point x="892" y="817"/>
      <point x="962" y="622"/>
      <point x="962" y="487" type="qcurve" name="sh03"/>
    </contour>
    <contour>
      <point x="810" y="589" type="line" name="sh04"/>
      <point x="810" y="649"/>
      <point x="771" y="762"/>
      <point x="698" y="849"/>
      <point x="594" y="902"/>
      <point x="529" y="902" type="qcurve" name="sv02"/>
      <point x="467" y="902"/>
      <point x="366" y="853"/>
      <point x="292" y="769"/>
      <point x="248" y="655"/>
      <point x="244" y="589" type="qcurve" name="sh07"/>
    </contour>
  </outline>
</glyph>
<glyph name="f" format="2">
  <advance width="736"/>
  <unicode hex="0066"/>
  <guideline x="0" y="906" angle="357"/>
  <guideline x="473" y="0" angle="80"/>
  <guideline x="-77" y="0" angle="80"/>
  <anchor x="432" y="1600" name="AccentAbove"/>
  <anchor x="782" y="1600" name="AccentAboveRight"/>
  <anchor x="400" y="0" name="AccentBelow"/>
  <anchor x="400" y="486" name="AccentOverlay"/>
  <outline>
    <contour>
      <point x="100" y="1004" type="line" name="hr00"/>
      <point x="251" y="1004" type="line" name="sh02"/>
      <point x="251" y="1106"/>
      <point x="286" y="1258"/>
      <point x="349" y="1367"/>
      <point x="438" y="1437"/>
      <point x="545" y="1478"/>
      <point x="669" y="1494"/>
      <point x="736" y="1494" type="qcurve" name="av01"/>
      <point x="718" y="1392" type="line" name="sv01"/>
      <point x="651" y="1392"/>
      <point x="539" y="1364"/>
      <point x="458" y="1290"/>
      <point x="413" y="1164"/>
      <point x="413" y="1066" type="qcurve"/>
      <point x="413" y="1004" type="line" name="sh04"/>
      <point x="650" y="1004" type="line"/>
      <point x="627" y="872" type="line" name="sh05"/>
      <point x="413" y="886" type="line" name="sh03"/>
      <point x="413" y="0" type="line"/>
      <point x="251" y="0" type="line" name="ab01"/>
      <point x="251" y="893" type="line" name="sh01"/>
      <point x="82" y="902" type="line" name="sh06"/>
    </contour>
  </outline>
</glyph>
<glyph name="g" format="2">
  <advance width="1120"/>
  <unicode hex="0067"/>
  <guideline x="523" y="0" angle="90"/>
  <anchor x="560" y="-400" name="AccentBelow"/>
  <anchor x="512" y="1100" name="AccentDefault"/>
  <anchor x="512" y="486" name="AccentMiddle"/>
  <outline>
    <contour>
      <point x="816" y="974" type="line" name="at01"/>
      <point x="948" y="1004" type="line"/>
      <point x="978" y="1004" type="line"/>
      <point x="978" y="0" type="line" name="sh01"/>
      <point x="978" y="-126"/>
      <point x="901" y="-310"/>
      <point x="774" y="-431"/>
      <point x="607" y="-490"/>
      <point x="517" y="-490" type="qcurve" name="ab01"/>
      <point x="462" y="-490"/>
      <point x="351" y="-471"/>
      <point x="248" y="-432"/>
      <point x="157" y="-374"/>
      <point x="121" y="-335" type="qcurve" name="sh03"/>
      <point x="223" y="-233" type="line" name="av01"/>
      <point x="275" y="-305"/>
      <point x="426" y="-388"/>
      <point x="517" y="-388" type="qcurve" name="sv01"/>
      <point x="575" y="-388"/>
      <point x="684" y="-353"/>
      <point x="766" y="-271"/>
      <point x="816" y="-138"/>
      <point x="816" y="-40" type="qcurve" name="sh04"/>
      <point x="816" y="142" type="line" name="sv03"/>
      <point x="806" y="142" type="line"/>
      <point x="800" y="127"/>
      <point x="755" y="79"/>
      <point x="682" y="33"/>
      <point x="583" y="0"/>
      <point x="523" y="0" type="qcurve" name="ab02"/>
      <point x="442" y="0"/>
      <point x="287" y="71"/>
      <point x="166" y="200"/>
      <point x="92" y="379"/>
      <point x="92" y="488" type="qcurve" name="sh02"/>
      <point x="92" y="599"/>
      <point x="166" y="778"/>
      <point x="287" y="905"/>
      <point x="442" y="974"/>
      <point x="524" y="974" type="qcurve" name="at02"/>
      <point x="560" y="974"/>
      <point x="635" y="961"/>
      <point x="708" y="933"/>
      <point x="777" y="886"/>
      <point x="806" y="852" type="qcurve" name="sv05"/>
      <point x="816" y="852" type="line" name="sh06"/>
    </contour>
    <contour>
      <point x="816" y="743" type="line"/>
      <point x="765" y="813"/>
      <point x="632" y="872"/>
      <point x="554" y="872" type="qcurve" name="sv04"/>
      <point x="494" y="872"/>
      <point x="388" y="817"/>
      <point x="309" y="716"/>
      <point x="264" y="575"/>
      <point x="264" y="488" type="qcurve" name="sh07"/>
      <point x="264" y="386"/>
      <point x="315" y="240"/>
      <point x="397" y="146"/>
      <point x="500" y="102"/>
      <point x="553" y="102" type="qcurve" name="sv02"/>
      <point x="605" y="102"/>
      <point x="691" y="132"/>
      <point x="758" y="177"/>
      <point x="804" y="230"/>
      <point x="816" y="254" type="qcurve" name="sh05"/>
    </contour>
  </outline>
</glyph>
<glyph name="h" format="2">
  <advance width="1120"/>
  <unicode hex="0068"/>
  <guideline x="1035" y="0" angle="80"/>
  <anchor x="594" y="1600" name="AccentAbove"/>
  <anchor x="744" y="1400" name="AccentAboveRight"/>
  <anchor x="594" y="0" name="AccentBelow"/>
  <anchor x="204" y="0" name="AccentCedilla"/>
  <anchor x="532" y="486" name="AccentOverlay"/>
  <outline>
    <contour>
      <point x="152" y="1464" type="line" name="at02"/>
      <point x="284" y="1494" type="line" name="av01"/>
      <point x="314" y="1494" type="line"/>
      <point x="314" y="837" type="line" name="sh03"/>
      <point x="324" y="837" type="line"/>
      <point x="387" y="916"/>
      <point x="546" y="1004"/>
      <point x="652" y="1004" type="qcurve" name="at01"/>
      <point x="721" y="1004"/>
      <point x="838" y="963" name="fv01"/>
      <point x="923" y="884"/>
      <point x="970" y="770"/>
      <point x="970" y="697" type="qcurve" name="mv01"/>
      <point x="970" y="196" type="line" name="sh04"/>
      <point x="970" y="130"/>
      <point x="1005" y="72"/>
      <point x="1048" y="72" type="qcurve" name="sh05"/>
      <point x="1030" y="-30" type="line" name="ab01"/>
      <point x="969" y="-30"/>
      <point x="885" y="9"/>
      <point x="832" y="77"/>
      <point x="808" y="171"/>
      <point x="808" y="227" type="qcurve" name="sh06"/>
      <point x="808" y="697" type="line" name="mv02"/>
      <point x="808" y="743"/>
      <point x="781" y="819"/>
      <point x="732" y="873"/>
      <point x="662" y="902"/>
      <point x="619" y="902" type="qcurve" name="sv01"/>
      <point x="569" y="902"/>
      <point x="480" y="869"/>
      <point x="403" y="812"/>
      <point x="339" y="738"/>
      <point x="314" y="696" type="qcurve" name="sv02"/>
      <point x="314" y="0" type="line" name="sh02"/>
      <point x="152" y="0" type="line" name="sh01"/>
    </contour>
  </outline>
</glyph>
<glyph name="i" format="2">
  <advance width="576"/>
  <unicode hex="0069"/>
  <guideline x="501" y="0" angle="80"/>
  <guideline x="288" y="0" angle="90"/>
  <anchor x="288" y="1600" name="AccentAbove"/>
  <anchor x="438" y="1200" name="AccentAboveRight"/>
  <anchor x="288" y="0" name="AccentAttachedBelow"/>
  <anchor x="288" y="0" name="AccentBelow"/>
  <anchor x="288" y="486" name="AccentOverlay"/>
  <outline>
    <contour>
      <point x="207" y="974" type="line" name="at01"/>
      <point x="339" y="1004" type="line"/>
      <point x="369" y="1004" type="line"/>
      <point x="369" y="0" type="line" name="sh02"/>
      <point x="207" y="0" type="line" name="sh01"/>
    </contour>
    <contour>
      <point x="192" y="1272" type="qcurve" name="ih01"/>
      <point x="192" y="1312"/>
      <point x="248" y="1368"/>
      <point x="288" y="1368" type="qcurve" name="sv01"/>
      <point x="328" y="1368"/>
      <point x="384" y="1312"/>
      <point x="384" y="1272" type="qcurve" name="sh03"/>
      <point x="384" y="1232"/>
      <point x="328" y="1176"/>
      <point x="288" y="1176" type="qcurve" name="av01"/>
      <point x="248" y="1176"/>
      <point x="192" y="1232"/>
    </contour>
  </outline>
</glyph>
<glyph name="k" format="2">
  <advance width="1024"/>
  <unicode hex="006B"/>
  <guideline x="0" y="75" angle="45"/>
  <guideline x="0" y="240" angle="45"/>
  <guideline x="0" y="613" angle="0"/>
  <guideline x="983" y="0" angle="120"/>
  <guideline x="792" y="0" angle="120"/>
  <guideline x="1737" y="0" angle="90"/>
  <anchor x="560" y="0" name="AccentBelow"/>
  <anchor x="532" y="1600" name="AccentDefault"/>
  <anchor x="288" y="1200" name="AccentMiddle"/>
  <outline>
    <contour>
      <point x="983" y="0" type="line" name="sh01"/>
      <point x="802" y="-30" type="line" name="sh02"/>
      <point x="484" y="549" type="line" name="mh01"/>
      <point x="474" y="549" type="line"/>
      <point x="314" y="389" type="line" name="sv01"/>
      <point x="314" y="0" type="line" name="sh04"/>
      <point x="152" y="0" type="line" name="sh03"/>
      <point x="152" y="1464" type="line" name="at01"/>
      <point x="284" y="1494" type="line" name="av01"/>
      <point x="314" y="1494" type="line" name="sh05"/>
      <point x="314" y="565" type="line" name="av02"/>
      <point x="324" y="565" type="line"/>
      <point x="764" y="1004" type="line" name="sh06"/>
      <point x="899" y="974" type="line" name="ih01"/>
      <point x="596" y="670" type="line" name="ih02"/>
    </contour>
  </outline>
</glyph>
<glyph name="latn:l" format="2">
  <advance width="576"/>
  <unicode hex="006C"/>
  <guideline x="531" y="0" angle="90"/>
  <anchor x="288" y="1600" name="AccentAbove"/>
  <anchor x="438" y="1400" name="AccentAboveRight"/>
  <anchor x="336" y="0" name="AccentBelow"/>
  <anchor x="288" y="486" name="AccentOverlay"/>
  <outline>
    <contour>
      <point x="207" y="1464" type="line" name="at01"/>
      <point x="339" y="1494" type="line" name="av01"/>
      <point x="369" y="1494" type="line" name="dh01"/>
      <point x="369" y="293" type="line" name="sh02"/>
      <point x="369" y="226"/>
      <point x="400" y="140"/>
      <point x="448" y="91"/>
      <point x="505" y="72"/>
      <point x="530" y="72" type="qcurve" name="sh03"/>
      <point x="512" y="-30" type="line" name="ab01"/>
      <point x="455" y="-30"/>
      <point x="345" y="0"/>
      <point x="259" y="75" name="fh01"/>
      <point x="207" y="202"/>
      <point x="207" y="300" type="qcurve" name="sh01"/>
    </contour>
  </outline>
</glyph>
<glyph name="latn:m" format="2">
  <advance width="1664"/>
  <unicode hex="006D"/>
  <anchor x="832" y="1100" name="AccentAbove"/>
  <anchor x="1382" y="1100" name="AccentAboveRight"/>
  <anchor x="832" y="0" name="AccentBelow"/>
  <anchor x="832" y="486" name="AccentOverlay"/>
  <outline>
    <contour>
      <point x="142" y="944" type="line" name="sh01"/>
      <point x="274" y="974" type="line" name="at01"/>
      <point x="304" y="974" type="line" name="sh02"/>
      <point x="304" y="838" type="line" name="sv02"/>
      <point x="315" y="838" type="line" name="sh03"/>
      <point x="348" y="882"/>
      <point x="415" y="945"/>
      <point x="489" y="985"/>
      <point x="572" y="1004"/>
      <point x="620" y="1004" type="qcurve" name="at02"/>
      <point x="673" y="1004"/>
      <point x="760" y="977" name="fv01"/>
      <point x="829" y="930" name="fv02"/>
      <point x="879" y="865"/>
      <point x="895" y="828" type="qcurve"/>
      <point x="905" y="828" type="line" name="sh06"/>
      <point x="939" y="872"/>
      <point x="1008" y="938"/>
      <point x="1083" y="982"/>
      <point x="1168" y="1004"/>
      <point x="1219" y="1004" type="qcurve" name="at03"/>
      <point x="1272" y="1004" name="hr00"/>
      <point x="1380" y="969"/>
      <point x="1467" y="898" name="fv03"/>
      <point x="1522" y="789"/>
      <point x="1522" y="716" type="qcurve"/>
      <point x="1522" y="197" type="line" name="sh08"/>
      <point x="1522" y="131"/>
      <point x="1557" y="72"/>
      <point x="1600" y="72" type="qcurve" name="sh09"/>
      <point x="1582" y="-30" type="line" name="ab01"/>
      <point x="1473" y="-30"/>
      <point x="1360" y="98"/>
      <point x="1360" y="227" type="qcurve" name="sh07"/>
      <point x="1360" y="696" type="line"/>
      <point x="1360" y="744"/>
      <point x="1334" y="820"/>
      <point x="1289" y="874"/>
      <point x="1227" y="902"/>
      <point x="1191" y="902" type="qcurve" name="sv01"/>
      <point x="1147" y="902"/>
      <point x="1072" y="872"/>
      <point x="1006" y="817"/>
      <point x="944" y="742"/>
      <point x="913" y="697" type="qcurve"/>
      <point x="913" y="0" type="line" name="sh05"/>
      <point x="751" y="0" type="line" name="sh04"/>
      <point x="751" y="716" type="line"/>
      <point x="751" y="749"/>
      <point x="728" y="816"/>
      <point x="686" y="869"/>
      <point x="626" y="902"/>
      <point x="590" y="902" type="qcurve" name="sv03"/>
      <point x="542" y="902"/>
      <point x="464" y="871"/>
      <point x="397" y="817"/>
      <point x="335" y="741"/>
      <point x="304" y="696" type="qcurve" name="sh10"/>
      <point x="304" y="0" type="line" name="ab02"/>
      <point x="142" y="0" type="line"/>
    </contour>
  </outline>
</glyph>
<glyph name="n" format="2">
  <advance width="1120"/>
  <unicode hex="006E"/>
  <anchor x="624" y="1100" name="AccentAbove"/>
  <anchor x="974" y="1100" name="AccentAboveRight"/>
  <anchor x="560" y="0" name="AccentBelow"/>
  <anchor x="560" y="486" name="AccentOverlay"/>
  <outline>
    <contour>
      <point x="970" y="197" type="line" name="sh01"/>
      <point x="970" y="131"/>
      <point x="1005" y="72"/>
      <point x="1048" y="72" type="qcurve" name="sh02"/>
      <point x="1030" y="-30" type="line" name="ab01"/>
      <point x="965" y="-30"/>
      <point x="880" y="11"/>
      <point x="829" y="82"/>
      <point x="808" y="175"/>
      <point x="808" y="227" type="qcurve" name="sh03"/>
      <point x="808" y="687" type="line" name="hr00"/>
      <point x="808" y="790"/>
      <point x="710" y="902"/>
      <point x="619" y="902" type="qcurve" name="sv01"/>
      <point x="525" y="902"/>
      <point x="378" y="797"/>
      <point x="314" y="697" type="qcurve" name="sv03"/>
      <point x="314" y="0" type="line" name="sh05"/>
      <point x="152" y="0" type="line" name="sh04"/>
      <point x="152" y="944" type="line"/>
      <point x="284" y="974" type="line" name="at01"/>
      <point x="314" y="974" type="line"/>
      <point x="314" y="837" type="line" name="sh06"/>
      <point x="324" y="837" type="line" name="sv02"/>
      <point x="394" y="925"/>
      <point x="551" y="1004"/>
      <point x="642" y="1004" type="qcurve" name="at02"/>
      <point x="715" y="1004"/>
      <point x="835" y="963" name="fv01"/>
      <point x="922" y="887"/>
      <point x="970" y="776"/>
      <point x="970" y="707" type="qcurve"/>
    </contour>
  </outline>
</glyph>
<glyph name="latn:q" format="2">
  <advance width="1120"/>
  <unicode hex="0071"/>
  <guideline x="563" y="0" angle="90"/>
  <anchor x="560" y="1100" name="AccentAbove"/>
  <anchor x="910" y="1100" name="AccentAboveRight"/>
  <anchor x="560" y="-300" name="AccentBelow"/>
  <anchor x="560" y="486" name="AccentOverlay"/>
  <outline>
    <contour>
      <point x="826" y="784" type="line" name="hr00"/>
      <point x="778" y="835"/>
      <point x="650" y="902"/>
      <point x="578" y="902" type="qcurve" name="sv01"/>
      <point x="530" y="902"/>
      <point x="417" y="860"/>
      <point x="319" y="762"/>
      <point x="254" y="602"/>
      <point x="254" y="485" type="qcurve" name="sh02"/>
      <point x="254" y="387"/>
      <point x="308" y="233"/>
      <point x="396" y="127"/>
      <point x="509" y="72"/>
      <point x="568" y="72" type="qcurve" name="sv02"/>
      <point x="614" y="72"/>
      <point x="692" y="93"/>
      <point x="757" y="126"/>
      <point x="807" y="168"/>
      <point x="826" y="189" type="qcurve" name="sh05"/>
    </contour>
    <contour>
      <point x="988" y="-460" type="line" name="sh03"/>
      <point x="856" y="-490" type="line" name="ab01"/>
      <point x="826" y="-490" type="line" name="sh04"/>
      <point x="826" y="72" type="line" name="sv03"/>
      <point x="816" y="72" type="line" name="sv04"/>
      <point x="794" y="53"/>
      <point x="733" y="16"/>
      <point x="662" y="-13"/>
      <point x="581" y="-30"/>
      <point x="537" y="-30" type="qcurve" name="ab02"/>
      <point x="444" y="-30"/>
      <point x="279" y="46"/>
      <point x="154" y="183"/>
      <point x="82" y="372"/>
      <point x="82" y="486" type="qcurve" name="sh01"/>
      <point x="82" y="617"/>
      <point x="163" y="811"/>
      <point x="298" y="940"/>
      <point x="474" y="1004"/>
      <point x="568" y="1004" type="qcurve" name="at01"/>
      <point x="611" y="1004"/>
      <point x="698" y="986"/>
      <point x="798" y="937"/>
      <point x="915" y="851"/>
      <point x="988" y="784" type="qcurve"/>
    </contour>
  </outline>
</glyph>
<glyph name="r" format="2">
  <advance width="736"/>
  <unicode hex="0072"/>
  <guideline x="539" y="0" angle="80"/>
  <anchor x="432" y="1100" name="AccentAbove"/>
  <anchor x="582" y="1100" name="AccentAboveRight"/>
  <anchor x="336" y="0" name="AccentBelow"/>
  <anchor x="288" y="486" name="AccentOverlay"/>
  <outline>
    <contour>
      <point x="314" y="974" type="line" name="sh03"/>
      <point x="314" y="808" type="line"/>
      <point x="324" y="808" type="line" name="sv02"/>
      <point x="369" y="905"/>
      <point x="484" y="1004"/>
      <point x="566" y="1004" type="qcurve" name="at01"/>
      <point x="588" y="1004"/>
      <point x="632" y="992"/>
      <point x="669" y="974"/>
      <point x="697" y="953"/>
      <point x="704" y="944" type="qcurve" name="sh04"/>
      <point x="677" y="786" type="line" name="av01"/>
      <point x="658" y="806"/>
      <point x="583" y="842"/>
      <point x="540" y="842" type="qcurve" name="sv01"/>
      <point x="480" y="842"/>
      <point x="394" y="783"/>
      <point x="340" y="699"/>
      <point x="314" y="607"/>
      <point x="314" y="574" type="qcurve" name="sv03"/>
      <point x="314" y="0" type="line" name="sh02"/>
      <point x="152" y="0" type="line" name="sh01"/>
      <point x="152" y="944" type="line"/>
      <point x="284" y="974" type="line"/>
    </contour>
  </outline>
</glyph>
<glyph name="s" format="2">
  <advance width="864"/>
  <unicode hex="0073"/>
  <guideline x="0" y="750" angle="340"/>
  <guideline x="0" y="581" angle="340"/>
  <guideline x="0" y="1348" angle="320"/>
  <guideline x="435" y="0" angle="90"/>
  <guideline x="-105" y="0" angle="45"/>
  <guideline x="-33" y="0" angle="45"/>
  <anchor x="432" y="0" name="AccentBelow"/>
  <anchor x="400" y="0" name="AccentCedilla"/>
  <anchor x="432" y="1100" name="AccentDefault"/>
  <anchor x="432" y="486" name="AccentMiddle"/>
  <outline>
    <contour>
      <point x="194" y="227" type="line" name="ih01"/>
      <point x="214" y="193"/>
      <point x="266" y="136"/>
      <point x="328" y="95"/>
      <point x="396" y="72"/>
      <point x="431" y="72" type="qcurve" name="sv01"/>
      <point x="466" y="72"/>
      <point x="534" y="91"/>
      <point x="587" y="132" name="fv01"/>
      <point x="620" y="194"/>
      <point x="620" y="238" type="qcurve" name="dh02"/>
      <point x="620" y="272"/>
      <point x="596" y="325"/>
      <point x="542" y="372"/>
      <point x="456" y="414"/>
      <point x="394" y="437" type="qcurve" name="sv02"/>
      <point x="350" y="453"/>
      <point x="261" y="507"/>
      <point x="190" y="583" name="fh01"/>
      <point x="145" y="685"/>
      <point x="145" y="749" type="qcurve" name="sh01"/>
      <point x="145" y="807"/>
      <point x="190" y="902"/>
      <point x="268" y="968" name="fv02"/>
      <point x="371" y="1004"/>
      <point x="429" y="1004" type="qcurve" name="at01"/>
      <point x="477" y="1004"/>
      <point x="569" y="980"/>
      <point x="652" y="938"/>
      <point x="723" y="882"/>
      <point x="751" y="849" type="qcurve" name="sv04"/>
      <point x="650" y="747" type="line" name="ih02"/>
      <point x="634" y="778"/>
      <point x="589" y="834"/>
      <point x="533" y="877"/>
      <point x="467" y="902"/>
      <point x="430" y="902" type="qcurve" name="sv03"/>
      <point x="402" y="902"/>
      <point x="354" y="884"/>
      <point x="318" y="850"/>
      <point x="297" y="800"/>
      <point x="297" y="768" type="qcurve" name="sh02"/>
      <point x="297" y="733"/>
      <point x="328" y="673" name="fv03"/>
      <point x="379" y="624"/>
      <point x="444" y="587"/>
      <point x="478" y="575" type="qcurve" name="iv01"/>
      <point x="553" y="548"/>
      <point x="664" y="484" name="fh02"/>
      <point x="737" y="404" name="fh03"/>
      <point x="772" y="306"/>
      <point x="772" y="246" type="qcurve" name="dh01"/>
      <point x="772" y="182"/>
      <point x="715" y="80" name="fv04"/>
      <point x="620" y="8"/>
      <point x="497" y="-30"/>
      <point x="430" y="-30" type="qcurve" name="ab01"/>
      <point x="235" y="-30"/>
      <point x="92" y="125" type="qcurve" name="mh01"/>
    </contour>
  </outline>
</glyph>
<glyph name="t" format="2">
  <advance width="736"/>
  <unicode hex="0074"/>
  <guideline x="0" y="152" angle="0"/>
  <guideline x="0" y="906" angle="357"/>
  <guideline x="473" y="0" angle="80"/>
  <guideline x="-78" y="0" angle="80"/>
  <guideline x="630" y="0" angle="90"/>
  <anchor x="336" y="1600" name="AccentAbove"/>
  <anchor x="486" y="1300" name="AccentAboveRight"/>
  <anchor x="432" y="0" name="AccentBelow"/>
  <anchor x="432" y="0" name="AccentCedilla"/>
  <anchor x="336" y="486" name="AccentOverlay"/>
  <outline>
    <contour>
      <point x="413" y="1322" type="line" name="sh03"/>
      <point x="413" y="1004" type="line" name="at01"/>
      <point x="650" y="1004" type="line"/>
      <point x="627" y="872" type="line" name="sh05"/>
      <point x="413" y="886" type="line" name="sv02"/>
      <point x="413" y="297" type="line" name="sh02"/>
      <point x="413" y="240"/>
      <point x="431" y="155"/>
      <point x="479" y="99"/>
      <point x="563" y="72"/>
      <point x="629" y="72" type="qcurve" name="sh04"/>
      <point x="611" y="-30" type="line" name="ab01"/>
      <point x="504" y="-30"/>
      <point x="365" y="8"/>
      <point x="284" y="92"/>
      <point x="251" y="228"/>
      <point x="251" y="326" type="qcurve" name="sh01"/>
      <point x="251" y="893" type="line" name="sv01"/>
      <point x="82" y="902" type="line" name="sv03"/>
      <point x="100" y="1004" type="line"/>
      <point x="251" y="1004" type="line" name="sh06"/>
      <point x="251" y="1292" type="line" name="sv04"/>
      <point x="383" y="1322" type="line"/>
    </contour>
  </outline>
</glyph>
<glyph name="latn:u" format="2">
  <advance width="1120"/>
  <unicode hex="0075"/>
  <guideline x="1034" y="0" angle="80"/>
  <anchor x="560" y="1100" name="AccentAbove"/>
  <anchor x="910" y="1100" name="AccentAboveRight"/>
  <anchor x="960" y="0" name="AccentAttachedBelow"/>
  <anchor x="560" y="0" name="AccentBelow"/>
  <anchor x="970" y="798" name="AccentHorn"/>
  <anchor x="560" y="486" name="AccentOverlay"/>
  <outline>
    <contour>
      <point x="314" y="1004" type="line" name="at01"/>
      <point x="314" y="305" type="line" name="sh02"/>
      <point x="314" y="240"/>
      <point x="348" y="151"/>
      <point x="404" y="96"/>
      <point x="475" y="72"/>
      <point x="512" y="72" type="qcurve" name="sv01"/>
      <point x="567" y="72"/>
      <point x="657" y="107"/>
      <point x="730" y="163"/>
      <point x="786" y="230"/>
      <point x="808" y="263" type="qcurve" name="sh04"/>
      <point x="808" y="974" type="line"/>
      <point x="940" y="1004" type="line" name="at02"/>
      <point x="970" y="1004" type="line"/>
      <point x="970" y="189" type="line" name="sh03"/>
      <point x="970" y="123"/>
      <point x="1008" y="72"/>
      <point x="1048" y="72" type="qcurve" name="sh05"/>
      <point x="1030" y="-30" type="line" name="sv02"/>
      <point x="975" y="-30"/>
      <point x="901" y="2"/>
      <point x="853" y="52"/>
      <point x="826" y="113"/>
      <point x="818" y="142" type="qcurve" name="iv01"/>
      <point x="808" y="142" type="line"/>
      <point x="791" y="116"/>
      <point x="732" y="56"/>
      <point x="648" y="4"/>
      <point x="542" y="-30"/>
      <point x="479" y="-30" type="qcurve" name="ab01"/>
      <point x="417" y="-30"/>
      <point x="300" y="4"/>
      <point x="208" y="79"/>
      <point x="152" y="197"/>
      <point x="152" y="280" type="qcurve" name="sh01"/>
      <point x="152" y="974" type="line"/>
      <point x="284" y="1004" type="line"/>
    </contour>
  </outline>
</glyph>
<glyph name="latn:v" format="2">
  <advance width="1024"/>
  <unicode hex="0076"/>
  <guideline x="637" y="0" angle="112"/>
  <guideline x="451" y="0" angle="112"/>
  <guideline x="573" y="0" angle="68"/>
  <guideline x="451" y="0" angle="68"/>
  <guideline x="486" y="0" angle="90"/>
  <anchor x="512" y="1100" name="AccentAbove"/>
  <anchor x="862" y="1100" name="AccentAboveRight"/>
  <anchor x="512" y="0" name="AccentBelow"/>
  <anchor x="512" y="486" name="AccentOverlay"/>
  <outline>
    <contour>
      <point x="232" y="1004" type="line" name="sh02"/>
      <point x="539" y="230" type="line" name="ih01"/>
      <point x="549" y="230" type="line"/>
      <point x="856" y="1004" type="line" name="sh04"/>
      <point x="966" y="974" type="line" name="sh03"/>
      <point x="573" y="0" type="line" name="dh02"/>
      <point x="451" y="0" type="line" name="dh01"/>
      <point x="58" y="974" type="line" name="sh01"/>
    </contour>
  </outline>
</glyph>
<glyph name="w" format="2">
  <advance width="1440"/>
  <unicode hex="0077"/>
  <guideline x="0" y="269" angle="0"/>
  <guideline x="945" y="0" angle="108"/>
  <guideline x="557" y="0" angle="108"/>
  <guideline x="1067" y="0" angle="72"/>
  <guideline x="495" y="0" angle="72"/>
  <guideline x="945" y="0" angle="72"/>
  <guideline x="374" y="0" angle="108"/>
  <guideline x="1128" y="0" angle="108"/>
  <guideline x="373" y="0" angle="72"/>
  <guideline x="751" y="0" angle="90"/>
  <anchor x="752" y="1100" name="AccentAbove"/>
  <anchor x="1102" y="1100" name="AccentAboveRight"/>
  <anchor x="752" y="0" name="AccentBelow"/>
  <anchor x="752" y="486" name="AccentOverlay"/>
  <outline>
    <contour>
      <point x="1384" y="974" type="line" name="sh01"/>
      <point x="1067" y="0" type="line" name="dh06"/>
      <point x="945" y="0" type="line" name="dh05"/>
      <point x="725" y="678" type="line"/>
      <point x="715" y="678" type="line" name="mh01"/>
      <point x="495" y="0" type="line" name="dh03"/>
      <point x="373" y="0" type="line" name="dh04"/>
      <point x="56" y="974" type="line" name="sh02"/>
      <point x="230" y="1004" type="line" name="sh03"/>
      <point x="460" y="269" type="line" name="mh02"/>
      <point x="470" y="269" type="line"/>
      <point x="689" y="974" type="line" name="dh02"/>
      <point x="811" y="974" type="line" name="dh01"/>
      <point x="1032" y="269" type="line" name="sv01"/>
      <point x="1042" y="269" type="line"/>
      <point x="1271" y="1004" type="line" name="sh04"/>
    </contour>
  </outline>
</glyph>
<glyph name="latn:x" format="2">
  <advance width="1024"/>
  <unicode hex="0078"/>
  <guideline x="0" y="840" angle="0"/>
  <guideline x="0" y="133" angle="0"/>
  <guideline x="205" y="0" angle="52"/>
  <guideline x="58" y="0" angle="52"/>
  <guideline x="766" y="0" angle="126"/>
  <guideline x="505" y="0" angle="90"/>
  <guideline x="58" y="0" angle="90"/>
  <guideline x="966" y="0" angle="90"/>
  <guideline x="966" y="0" angle="126"/>
  <anchor x="512" y="1100" name="AccentAbove"/>
  <anchor x="862" y="1100" name="AccentAboveRight"/>
  <anchor x="512" y="0" name="AccentBelow"/>
  <anchor x="512" y="486" name="AccentOverlay"/>
  <outline>
    <contour>
      <point x="233" y="1004" type="line" name="sh03"/>
      <point x="524" y="602" type="line"/>
      <point x="534" y="602" type="line"/>
      <point x="843" y="1004" type="line" name="sh06"/>
      <point x="966" y="974" type="line" name="sh05"/>
      <point x="599" y="509" type="line" name="ih01"/>
      <point x="599" y="499" type="line"/>
      <point x="966" y="0" type="line" name="sh04"/>
      <point x="788" y="-30" type="line" name="sh07"/>
      <point x="501" y="372" type="line" name="mh01"/>
      <point x="491" y="372" type="line"/>
      <point x="181" y="-30" type="line" name="sh08"/>
      <point x="58" y="0" type="line" name="sh01"/>
      <point x="425" y="464" type="line"/>
      <point x="425" y="474" type="line" name="ih02"/>
      <point x="58" y="974" type="line" name="sh02"/>
    </contour>
  </outline>
</glyph>
<glyph name="latn:y" format="2">
  <advance width="960"/>
  <unicode hex="0079"/>
  <guideline x="602" y="0" angle="72"/>
  <guideline x="632" y="0" angle="112"/>
  <guideline x="484" y="0" angle="72"/>
  <guideline x="446" y="0" angle="112"/>
  <guideline x="132" y="0" angle="90"/>
  <anchor x="512" y="1100" name="AccentAbove"/>
  <anchor x="862" y="1100" name="AccentAboveRight"/>
  <anchor x="512" y="-300" name="AccentBelow"/>
  <anchor x="512" y="486" name="AccentOverlay"/>
  <outline>
    <contour>
      <point x="226" y="1004" type="line" name="sh02"/>
      <point x="540" y="204" type="line" name="ih01"/>
      <point x="550" y="204" type="line"/>
      <point x="809" y="1004" type="line" name="sh04"/>
      <point x="918" y="974" type="line" name="sh03"/>
      <point x="592" y="-30" type="line" name="dh02"/>
      <point x="543" y="-181"/>
      <point x="444" y="-362"/>
      <point x="337" y="-459"/>
      <point x="218" y="-490"/>
      <point x="132" y="-490" type="qcurve" name="ab01"/>
      <point x="150" y="-388" type="line" name="ih02"/>
      <point x="186" y="-388"/>
      <point x="277" y="-366"/>
      <point x="359" y="-291"/>
      <point x="435" y="-150"/>
      <point x="474" y="-30" type="qcurve" name="dh01"/>
      <point x="52" y="974" type="line" name="sh01"/>
    </contour>
  </outline>
</glyph>
<glyph name="sign:braceleft" format="2">
  <advance width="736"/>
  <unicode hex="007B"/>
  <guideline x="636" y="0" angle="90"/>
  <outline>
    <contour>
      <point x="636" y="1362" type="line" name="sv01"/>
      <point x="573" y="1362"/>
      <point x="499" y="1337"/>
      <point x="461" y="1283"/>
      <point x="450" y="1196"/>
      <point x="450" y="1135" type="qcurve" name="sh01"/>
      <point x="450" y="972" type="line"/>
      <point x="450" y="904"/>
      <point x="433" y="780"/>
      <point x="382" y="679"/>
      <point x="289" y="608"/>
      <point x="213" y="593" type="qcurve" name="iv01"/>
      <point x="289" y="578"/>
      <point x="382" y="507"/>
      <point x="433" y="406"/>
      <point x="450" y="282"/>
      <point x="450" y="214" type="qcurve"/>
      <point x="450" y="39" type="line" name="dh02"/>
      <point x="450" y="-23"/>
      <point x="461" y="-105"/>
      <point x="499" y="-155"/>
      <point x="573" y="-176"/>
      <point x="636" y="-176" type="qcurve" name="dv02"/>
      <point x="654" y="-278" type="line" name="ah02"/>
      <point x="568" y="-278"/>
      <point x="439" y="-252"/>
      <point x="352" y="-184"/>
      <point x="308" y="-70"/>
      <point x="308" y="19" type="qcurve" name="dh01"/>
      <point x="308" y="194" type="line"/>
      <point x="308" y="270"/>
      <point x="298" y="398"/>
      <point x="252" y="490"/>
      <point x="157" y="542"/>
      <point x="72" y="542" type="qcurve" name="dv01"/>
      <point x="72" y="644" type="line" name="ah01"/>
      <point x="159" y="644"/>
      <point x="254" y="696"/>
      <point x="299" y="788"/>
      <point x="308" y="916"/>
      <point x="308" y="992" type="qcurve" name="sh02"/>
      <point x="308" y="1157" type="line"/>
      <point x="308" y="1245"/>
      <point x="352" y="1364"/>
      <point x="439" y="1434"/>
      <point x="568" y="1464"/>
      <point x="654" y="1464" type="qcurve" name="sh03"/>
    </contour>
  </outline>
</glyph>
<glyph name="bar" format="2">
  <advance width="736"/>
  <unicode hex="007C"/>
  <outline>
    <contour>
      <point x="439" y="1536" type="line" name="av01"/>
      <point x="439" y="-490" type="line" name="dh02"/>
      <point x="297" y="-490" type="line" name="dh01"/>
      <point x="297" y="1536" type="line"/>
    </contour>
  </outline>
</glyph>
<glyph name="braceright" format="2">
  <advance width="736"/>
  <unicode hex="007D"/>
  <outline>
    <contour>
      <point x="72" y="1464" type="line" name="sh01"/>
      <point x="157" y="1464"/>
      <point x="287" y="1434"/>
      <point x="374" y="1364"/>
      <point x="418" y="1245"/>
      <point x="418" y="1157" type="qcurve" name="sh02"/>
      <point x="418" y="992" type="line"/>
      <point x="418" y="916"/>
      <point x="426" y="788"/>
      <point x="471" y="696"/>
      <point x="567" y="644"/>
      <point x="654" y="644" type="qcurve" name="dv02"/>
      <point x="654" y="542" type="line" name="ah01"/>
      <point x="569" y="542"/>
      <point x="474" y="490"/>
      <point x="428" y="398"/>
      <point x="418" y="270"/>
      <point x="418" y="194" type="qcurve"/>
      <point x="418" y="19" type="line" name="dh02"/>
      <point x="418" y="-70"/>
      <point x="374" y="-184"/>
      <point x="287" y="-252"/>
      <point x="157" y="-278"/>
      <point x="72" y="-278" type="qcurve" name="ah02"/>
      <point x="90" y="-176" type="line" name="dv01"/>
      <point x="153" y="-176"/>
      <point x="227" y="-155"/>
      <point x="265" y="-105"/>
      <point x="276" y="-23"/>
      <point x="276" y="39" type="qcurve" name="dh01"/>
      <point x="276" y="214" type="line"/>
      <point x="276" y="282"/>
      <point x="293" y="406"/>
      <point x="344" y="507"/>
      <point x="437" y="578"/>
      <point x="513" y="593" type="qcurve" name="iv01"/>
      <point x="437" y="608"/>
      <point x="344" y="679"/>
      <point x="293" y="780"/>
      <point x="276" y="904"/>
      <point x="276" y="972" type="qcurve" name="sh03"/>
      <point x="276" y="1135" type="line"/>
      <point x="276" y="1196"/>
      <point x="265" y="1283"/>
      <point x="227" y="1337"/>
      <point x="153" y="1362"/>
      <point x="90" y="1362" type="qcurve" name="sv01"/>
    </contour>
  </outline>
</glyph>
<glyph name="asciitilde" format="2">
  <advance width="1248"/>
  <unicode hex="007E"/>
  <guideline x="0" y="1127" angle="0"/>
  <guideline x="1836" y="0" angle="135"/>
  <guideline x="1241" y="0" angle="90"/>
  <guideline x="642" y="0" angle="135"/>
  <outline>
    <contour>
      <point x="108" y="407" type="line" name="sh01"/>
      <point x="108" y="435"/>
      <point x="144" y="515"/>
      <point x="214" y="589"/>
      <point x="316" y="641"/>
      <point x="383" y="641" type="qcurve" name="dv04"/>
      <point x="438" y="641"/>
      <point x="529" y="614"/>
      <point x="609" y="573"/>
      <point x="680" y="525"/>
      <point x="750" y="484"/>
      <point x="823" y="457"/>
      <point x="864" y="457" type="qcurve" name="dv02"/>
      <point x="906" y="457"/>
      <point x="970" y="489"/>
      <point x="1015" y="541"/>
      <point x="1038" y="607"/>
      <point x="1038" y="641" type="qcurve" name="sh03"/>
      <point x="1068" y="641" type="line"/>
      <point x="1140" y="569" type="line" name="sh02"/>
      <point x="1140" y="541"/>
      <point x="1104" y="461"/>
      <point x="1034" y="387"/>
      <point x="930" y="335"/>
      <point x="863" y="335" type="qcurve" name="dv01"/>
      <point x="804" y="335"/>
      <point x="712" y="362"/>
      <point x="635" y="403"/>
      <point x="567" y="451"/>
      <point x="499" y="492"/>
      <point x="426" y="519"/>
      <point x="382" y="519" type="qcurve" name="dv03"/>
      <point x="341" y="519"/>
      <point x="277" y="487"/>
      <point x="233" y="435"/>
      <point x="210" y="369"/>
      <point x="210" y="335" type="qcurve" name="sh04"/>
      <point x="180" y="335" type="line"/>
    </contour>
  </outline>
</glyph>
<glyph name="exclamdown" format="2">
  <advance width="736"/>
  <unicode hex="00A1"/>
  <outline>
    <contour>
      <point x="418" y="580" type="line" name="hr00"/>
      <point x="540" y="580" type="line" name="sv02"/>
      <point x="592" y="-460" type="line" name="dh02"/>
      <point x="367" y="-460" type="line" name="dh01"/>
    </contour>
    <contour>
      <point x="367" y="891" type="qcurve" name="sh01"/>
      <point x="367" y="915"/>
      <point x="384" y="956"/>
      <point x="414" y="987"/>
      <point x="455" y="1004"/>
      <point x="479" y="1004" type="qcurve" name="at01"/>
      <point x="501" y="1004"/>
      <point x="542" y="987"/>
      <point x="574" y="956"/>
      <point x="592" y="915"/>
      <point x="592" y="891" type="qcurve" name="sh02"/>
      <point x="592" y="869"/>
      <point x="574" y="828"/>
      <point x="542" y="797"/>
      <point x="501" y="778"/>
      <point x="479" y="778" type="qcurve" name="sv01"/>
      <point x="455" y="778"/>
      <point x="414" y="797"/>
      <point x="384" y="828"/>
      <point x="367" y="869"/>
    </contour>
  </outline>
</glyph>
<glyph name="curr:sterling" format="2">
  <advance width="1120"/>
  <unicode hex="00A3"/>
  <guideline x="167" y="0" angle="100"/>
  <guideline x="992" y="0" angle="90"/>
  <outline>
    <contour>
      <point x="141" y="803" type="line" name="hr00"/>
      <point x="359" y="803" type="line" name="ih01"/>
      <point x="359" y="830"/>
      <point x="341" y="906"/>
      <point x="319" y="993" name="hr01"/>
      <point x="301" y="1086"/>
      <point x="301" y="1130" type="qcurve" name="dh01"/>
      <point x="301" y="1203"/>
      <point x="346" y="1325" name="hr02"/>
      <point x="438" y="1414"/>
      <point x="578" y="1464" name="hr03"/>
      <point x="673" y="1464" type="qcurve" name="at01"/>
      <point x="734" y="1464"/>
      <point x="838" y="1429"/>
      <point x="919" y="1380" name="hr04"/>
      <point x="977" y="1327"/>
      <point x="992" y="1309" type="qcurve" name="ah03"/>
      <point x="891" y="1207" type="line" name="mv01"/>
      <point x="875" y="1237"/>
      <point x="830" y="1293"/>
      <point x="776" y="1336" name="hr05"/>
      <point x="713" y="1362"/>
      <point x="680" y="1362" type="qcurve" name="sv01"/>
      <point x="624" y="1362"/>
      <point x="543" y="1325"/>
      <point x="489" y="1261"/>
      <point x="463" y="1173"/>
      <point x="463" y="1122" type="qcurve" name="dh02"/>
      <point x="463" y="1090"/>
      <point x="475" y="1003"/>
      <point x="489" y="913"/>
      <point x="501" y="830"/>
      <point x="501" y="803" type="qcurve" name="sh01"/>
      <point x="831" y="803" type="line" name="ah02"/>
      <point x="810" y="678" type="line" name="mv02"/>
      <point x="501" y="693" type="line" name="sh02"/>
      <point x="501" y="601"/>
      <point x="464" y="433"/>
      <point x="406" y="286"/>
      <point x="335" y="161"/>
      <point x="301" y="112" type="qcurve" name="sh03"/>
      <point x="301" y="102" type="line" name="sv02"/>
      <point x="370" y="102"/>
      <point x="473" y="93"/>
      <point x="557" y="81"/>
      <point x="632" y="72"/>
      <point x="673" y="72" type="qcurve" name="sv03"/>
      <point x="717" y="72"/>
      <point x="788" y="105"/>
      <point x="842" y="153"/>
      <point x="880" y="207"/>
      <point x="891" y="227" type="qcurve"/>
      <point x="992" y="125" type="line" name="ah04"/>
      <point x="975" y="106"/>
      <point x="917" y="53"/>
      <point x="835" y="4"/>
      <point x="729" y="-30"/>
      <point x="664" y="-30" type="qcurve" name="ab01"/>
      <point x="612" y="-30"/>
      <point x="513" y="-21"/>
      <point x="399" y="-9"/>
      <point x="260" y="0"/>
      <point x="167" y="0" type="qcurve" name="ab02"/>
      <point x="149" y="102" type="line"/>
      <point x="186" y="151"/>
      <point x="260" y="257"/>
      <point x="320" y="395"/>
      <point x="358" y="576"/>
      <point x="359" y="701" type="qcurve" name="sh04"/>
      <point x="126" y="718" type="line" name="ah01"/>
    </contour>
  </outline>
</glyph>
<glyph name="curr:yen" format="2">
  <advance width="1024"/>
  <unicode hex="00A5"/>
  <guideline x="407" y="0" angle="70"/>
  <guideline x="617" y="0" angle="110"/>
  <guideline x="816" y="0" angle="80"/>
  <guideline x="95" y="0" angle="90"/>
  <guideline x="809" y="0" angle="110"/>
  <guideline x="275" y="0" angle="70"/>
  <outline>
    <contour>
      <point x="276" y="1464" type="line" name="sh02"/>
      <point x="537" y="742" type="line"/>
      <point x="547" y="742" type="line"/>
      <point x="808" y="1464" type="line" name="sh04"/>
      <point x="929" y="1434" type="line" name="sh03"/>
      <point x="762" y="974" type="line" name="at01"/>
      <point x="929" y="974" type="line" name="sh05"/>
      <point x="911" y="872" type="line" name="sv01"/>
      <point x="724" y="872" type="line"/>
      <point x="642" y="645" type="line"/>
      <point x="929" y="645" type="line" name="sh06"/>
      <point x="911" y="543" type="line" name="sv02"/>
      <point x="603" y="543" type="line"/>
      <point x="603" y="0" type="line" name="sh07"/>
      <point x="421" y="0" type="line" name="ih01"/>
      <point x="421" y="543" type="line" name="sv03"/>
      <point x="95" y="543" type="line" name="sh09"/>
      <point x="113" y="645" type="line" name="sv04"/>
      <point x="382" y="645" type="line"/>
      <point x="300" y="872" type="line" name="sv05"/>
      <point x="95" y="872" type="line" name="sh08"/>
      <point x="113" y="974" type="line" name="at02"/>
      <point x="262" y="974" type="line"/>
      <point x="95" y="1434" type="line" name="sh01"/>
    </contour>
  </outline>
</glyph>
<glyph name="section" format="2">
  <advance width="1024"/>
  <unicode hex="00A7"/>
  <guideline x="525" y="0" angle="90"/>
  <outline>
    <contour>
      <point x="825" y="-184" type="qcurve" name="ih01"/>
      <point x="825" y="-251"/>
      <point x="786" y="-363"/>
      <point x="710" y="-444"/>
      <point x="599" y="-490"/>
      <point x="526" y="-490" type="qcurve" name="ab01"/>
      <point x="476" y="-490"/>
      <point x="384" y="-465" name="hr00"/>
      <point x="303" y="-423"/>
      <point x="235" y="-367"/>
      <point x="208" y="-335" type="qcurve" name="sh03"/>
      <point x="309" y="-233" type="line"/>
      <point x="325" y="-265"/>
      <point x="371" y="-321"/>
      <point x="427" y="-363"/>
      <point x="491" y="-388" name="hr01"/>
      <point x="526" y="-388" type="qcurve" name="sv01"/>
      <point x="558" y="-388"/>
      <point x="612" y="-363"/>
      <point x="651" y="-319"/>
      <point x="673" y="-258"/>
      <point x="673" y="-222" type="qcurve" name="sh04"/>
      <point x="673" y="-159"/>
      <point x="630" y="-64"/>
      <point x="560" y="13"/>
      <point x="470" y="78"/>
      <point x="376" y="144"/>
      <point x="286" y="218"/>
      <point x="216" y="313"/>
      <point x="173" y="435"/>
      <point x="173" y="516" type="qcurve" name="sh05"/>
      <point x="173" y="575"/>
      <point x="207" y="671"/>
      <point x="266" y="751"/>
      <point x="344" y="815"/>
      <point x="389" y="842" type="qcurve" name="sh07"/>
      <point x="335" y="896"/>
      <point x="263" y="1053"/>
      <point x="263" y="1158" type="qcurve" name="ih02"/>
      <point x="263" y="1225"/>
      <point x="305" y="1337"/>
      <point x="382" y="1418"/>
      <point x="493" y="1464"/>
      <point x="562" y="1464" type="qcurve" name="at01"/>
      <point x="665" y="1464"/>
      <point x="822" y="1378"/>
      <point x="880" y="1309" type="qcurve" name="sh08"/>
      <point x="779" y="1207" type="line"/>
      <point x="766" y="1234"/>
      <point x="722" y="1289"/>
      <point x="666" y="1334"/>
      <point x="599" y="1362"/>
      <point x="562" y="1362" type="qcurve" name="sv02"/>
      <point x="530" y="1362"/>
      <point x="476" y="1337"/>
      <point x="437" y="1293"/>
      <point x="415" y="1232"/>
      <point x="415" y="1196" type="qcurve" name="sh09"/>
      <point x="415" y="1133"/>
      <point x="458" y="1038"/>
      <point x="528" y="961"/>
      <point x="618" y="896"/>
      <point x="712" y="830"/>
      <point x="802" y="756"/>
      <point x="872" y="661"/>
      <point x="915" y="539"/>
      <point x="915" y="458" type="qcurve" name="sh01"/>
      <point x="915" y="399"/>
      <point x="881" y="302"/>
      <point x="822" y="222"/>
      <point x="743" y="158"/>
      <point x="698" y="131" type="qcurve" name="sh10"/>
      <point x="753" y="77"/>
      <point x="825" y="-79"/>
    </contour>
    <contour>
      <point x="335" y="547" type="qcurve" name="sh06"/>
      <point x="335" y="483"/>
      <point x="386" y="388"/>
      <point x="467" y="310"/>
      <point x="569" y="239"/>
      <point x="619" y="200" type="qcurve" name="iv02"/>
      <point x="685" y="236"/>
      <point x="753" y="352"/>
      <point x="753" y="427" type="qcurve" name="sh02"/>
      <point x="753" y="491"/>
      <point x="702" y="586"/>
      <point x="621" y="664"/>
      <point x="519" y="735"/>
      <point x="469" y="774" type="qcurve" name="iv01"/>
      <point x="403" y="738"/>
      <point x="335" y="622"/>
    </contour>
  </outline>
</glyph>
<glyph name="sign:diaeresis" format="2">
  <advance width="768"/>
  <unicode hex="00A8"/>
  <outline>
    <contour>
      <point x="76" y="1280" type="qcurve" name="sh01"/>
      <point x="76" y="1299"/>
      <point x="92" y="1335"/>
      <point x="119" y="1362"/>
      <point x="155" y="1378"/>
      <point x="176" y="1378" type="qcurve" name="dv01"/>
      <point x="196" y="1378"/>
      <point x="233" y="1362"/>
      <point x="261" y="1335"/>
      <point x="278" y="1299"/>
      <point x="278" y="1280" type="qcurve" name="dh01"/>
      <point x="278" y="1259"/>
      <point x="261" y="1221"/>
      <point x="233" y="1192"/>
      <point x="196" y="1176"/>
      <point x="176" y="1176" type="qcurve" name="dv02"/>
      <point x="155" y="1176"/>
      <point x="119" y="1192"/>
      <point x="92" y="1221"/>
      <point x="76" y="1259"/>
    </contour>
    <contour>
      <point x="490" y="1280" type="qcurve" name="dh02"/>
      <point x="490" y="1299"/>
      <point x="506" y="1335"/>
      <point x="533" y="1362"/>
      <point x="569" y="1378"/>
      <point x="590" y="1378" type="qcurve" name="sv01"/>
      <point x="610" y="1378"/>
      <point x="647" y="1362"/>
      <point x="675" y="1335"/>
      <point x="692" y="1299"/>
      <point x="692" y="1280" type="qcurve" name="sh02"/>
      <point x="692" y="1259"/>
      <point x="675" y="1221"/>
      <point x="647" y="1192"/>
      <point x="610" y="1176"/>
      <point x="590" y="1176" type="qcurve" name="sv02"/>
      <point x="569" y="1176"/>
      <point x="533" y="1192"/>
      <point x="506" y="1221"/>
      <point x="490" y="1259"/>
    </contour>
  </outline>
</glyph>
<glyph name="sign:macron" format="2">
  <advance width="768"/>
  <unicode hex="00AF"/>
  <guideline x="-71" y="0" angle="80"/>
  <outline>
    <contour>
      <point x="157" y="1364" type="line" name="hr00"/>
      <point x="631" y="1364" type="line" name="ah02"/>
      <point x="610" y="1242" type="line" name="av01"/>
      <point x="136" y="1242" type="line" name="ah01"/>
    </contour>
  </outline>
</glyph>
<glyph name="plusminus" format="2">
  <advance width="1152"/>
  <unicode hex="00B1"/>
  <guideline x="963" y="0" angle="90"/>
  <outline>
    <contour>
      <point x="125" y="653" type="line" name="sh01"/>
      <point x="125" y="775" type="line" name="sv02"/>
      <point x="515" y="775" type="line" name="dh01"/>
      <point x="515" y="1165" type="line" name="av01"/>
      <point x="637" y="1165" type="line"/>
      <point x="637" y="775" type="line" name="dh02"/>
      <point x="1027" y="775" type="line"/>
      <point x="1027" y="653" type="line" name="sh02"/>
      <point x="637" y="653" type="line" name="sh03"/>
      <point x="637" y="263" type="line"/>
      <point x="515" y="263" type="line" name="sh04"/>
      <point x="515" y="653" type="line"/>
    </contour>
    <contour>
      <point x="125" y="0" type="line" name="ah01"/>
      <point x="125" y="122" type="line" name="sv01"/>
      <point x="1027" y="122" type="line"/>
      <point x="1027" y="0" type="line" name="ah02"/>
    </contour>
  </outline>
</glyph>
<glyph name="acute" format="2">
  <advance width="768"/>
  <unicode hex="00B4"/>
  <guideline x="2696" y="0" angle="90"/>
  <guideline x="677" y="0" angle="90"/>
  <outline>
    <contour>
      <point x="221" y="1176" type="line" name="mh01"/>
      <point x="532" y="1521" type="line" name="av01"/>
      <point x="562" y="1521" type="line" name="mv01"/>
      <point x="644" y="1434" type="line" name="mh02"/>
      <point x="644" y="1404" type="line" name="dh02"/>
      <point x="278" y="1116" type="line" name="dh01"/>
    </contour>
  </outline>
</glyph>
<glyph name="mu" format="2">
  <advance width="1024"/>
  <unicode hex="00B5"/>
  <guideline x="264" y="0" angle="90"/>
  <outline>
    <contour>
      <point x="284" y="974" type="line" name="sh03"/>
      <point x="284" y="487" type="line"/>
      <point x="284" y="383"/>
      <point x="320" y="233"/>
      <point x="382" y="137"/>
      <point x="463" y="92"/>
      <point x="507" y="92" type="qcurve" name="sv01"/>
      <point x="551" y="92"/>
      <point x="629" y="137"/>
      <point x="688" y="233"/>
      <point x="722" y="383"/>
      <point x="722" y="487" type="qcurve" name="sh06"/>
      <point x="722" y="944" type="line"/>
      <point x="854" y="974" type="line" name="at01"/>
      <point x="884" y="974" type="line"/>
      <point x="884" y="259" type="line" name="sh04"/>
      <point x="884" y="186"/>
      <point x="942" y="92"/>
      <point x="1002" y="92" type="qcurve" name="sv02"/>
      <point x="980" y="-30" type="line" name="ab02"/>
      <point x="917" y="-30"/>
      <point x="827" y="-1"/>
      <point x="768" y="43"/>
      <point x="737" y="97"/>
      <point x="732" y="122" type="qcurve"/>
      <point x="722" y="122" type="line" name="sh05"/>
      <point x="713" y="97"/>
      <point x="679" y="44"/>
      <point x="626" y="-1"/>
      <point x="554" y="-30"/>
      <point x="506" y="-30" type="qcurve" name="ab03"/>
      <point x="465" y="-30"/>
      <point x="396" y="-1"/>
      <point x="343" y="43"/>
      <point x="305" y="97"/>
      <point x="294" y="122" type="qcurve" name="sh07"/>
      <point x="284" y="122" type="line"/>
      <point x="284" y="-460" type="line" name="sh02"/>
      <point x="152" y="-490" type="line" name="ab01"/>
      <point x="122" y="-490" type="line" name="sh01"/>
      <point x="122" y="944" type="line"/>
      <point x="254" y="974" type="line"/>
    </contour>
  </outline>
</glyph>
<glyph name="paragraph" format="2">
  <advance width="1024"/>
  <unicode hex="00B6"/>
  <outline>
    <contour>
      <point x="922" y="1434" type="line" name="at01"/>
      <point x="922" y="1332" type="line" name="sh02"/>
      <point x="808" y="1332" type="line"/>
      <point x="808" y="0" type="line" name="sh01"/>
      <point x="706" y="0" type="line" name="dh01"/>
      <point x="706" y="1332" type="line"/>
      <point x="560" y="1332" type="line"/>
      <point x="560" y="0" type="line" name="dh02"/>
      <point x="458" y="0" type="line" name="sh03"/>
      <point x="458" y="750" type="line"/>
      <point x="377" y="750"/>
      <point x="245" y="800"/>
      <point x="152" y="891"/>
      <point x="102" y="1017"/>
      <point x="102" y="1092" type="qcurve" name="sh05"/>
      <point x="102" y="1167"/>
      <point x="155" y="1293"/>
      <point x="253" y="1383"/>
      <point x="392" y="1434"/>
      <point x="478" y="1434" type="qcurve" name="sh04"/>
    </contour>
  </outline>
</glyph>
<glyph name="sign:cedilla" format="2">
  <advance width="768"/>
  <unicode hex="00B8"/>
  <guideline x="460" y="0" angle="70"/>
  <outline>
    <contour>
      <point x="470" y="29" type="line" name="ih01"/>
      <point x="420" y="-110" type="line" name="sv01"/>
      <point x="449" y="-110"/>
      <point x="505" y="-135"/>
      <point x="550" y="-182"/>
      <point x="577" y="-250"/>
      <point x="577" y="-293" type="qcurve" name="sh01"/>
      <point x="577" y="-344"/>
      <point x="539" y="-418"/>
      <point x="477" y="-466"/>
      <point x="401" y="-490"/>
      <point x="364" y="-490" type="qcurve" name="ab01"/>
      <point x="329" y="-490"/>
      <point x="270" y="-476"/>
      <point x="224" y="-456"/>
      <point x="192" y="-433"/>
      <point x="183" y="-423" type="qcurve"/>
      <point x="237" y="-347" type="line" name="av01"/>
      <point x="240" y="-352"/>
      <point x="258" y="-372"/>
      <point x="286" y="-393"/>
      <point x="323" y="-408"/>
      <point x="345" y="-408" type="qcurve" name="sv02"/>
      <point x="368" y="-408"/>
      <point x="408" y="-391"/>
      <point x="438" y="-361"/>
      <point x="455" y="-321"/>
      <point x="455" y="-298" type="qcurve" name="ah01"/>
      <point x="455" y="-276"/>
      <point x="438" y="-236"/>
      <point x="408" y="-207"/>
      <point x="368" y="-190" name="hr00"/>
      <point x="345" y="-190" type="qcurve" name="iv01"/>
      <point x="324" y="-190"/>
      <point x="298" y="-194"/>
      <point x="280" y="-199"/>
      <point x="268" y="-204"/>
      <point x="262" y="-206" type="qcurve" name="av02"/>
      <point x="348" y="29" type="line" name="sh02"/>
    </contour>
  </outline>
</glyph>
<glyph name="digit:one.superior" format="2">
  <advance width="736"/>
  <unicode hex="00B9"/>
  <guideline x="445" y="0" angle="100"/>
  <outline>
    <contour>
      <point x="488" y="1464" type="line" name="at01"/>
      <point x="488" y="586" type="line" name="dh02"/>
      <point x="376" y="586" type="line" name="dh01"/>
      <point x="376" y="1339" type="line"/>
      <point x="370" y="1339" type="line" name="iv01"/>
      <point x="214" y="1309" type="line" name="sh01"/>
      <point x="202" y="1381" type="line"/>
      <point x="455" y="1464" type="line"/>
    </contour>
  </outline>
</glyph>
<glyph name="sign:questiondown" format="2">
  <advance width="1024"/>
  <unicode hex="00BF"/>
  <outline>
    <contour>
      <point x="842" y="125" type="line" name="hr00"/>
      <point x="778" y="47"/>
      <point x="616" y="-30"/>
      <point x="522" y="-30" type="qcurve" name="ab01"/>
      <point x="462" y="-30"/>
      <point x="343" y="12" name="hr01"/>
      <point x="250" y="91"/>
      <point x="192" y="203"/>
      <point x="192" y="273" type="qcurve" name="dh01"/>
      <point x="192" y="339"/>
      <point x="225" y="436"/>
      <point x="288" y="516"/>
      <point x="381" y="591"/>
      <point x="440" y="635" type="qcurve"/>
      <point x="489" y="672"/>
      <point x="557" y="729"/>
      <point x="599" y="778"/>
      <point x="618" y="823"/>
      <point x="618" y="847" type="qcurve" name="dh03"/>
      <point x="618" y="878"/>
      <point x="601" y="923"/>
      <point x="574" y="953"/>
      <point x="539" y="967"/>
      <point x="522" y="967" type="qcurve" name="av01"/>
      <point x="483" y="967"/>
      <point x="445" y="949"/>
      <point x="428" y="933" type="qcurve"/>
      <point x="354" y="1006" type="line"/>
      <point x="383" y="1032"/>
      <point x="475" y="1069"/>
      <point x="522" y="1069" type="qcurve" name="sv01"/>
      <point x="563" y="1069"/>
      <point x="641" y="1042"/>
      <point x="703" y="987"/>
      <point x="740" y="903"/>
      <point x="740" y="846" type="qcurve" name="dh04"/>
      <point x="740" y="802"/>
      <point x="705" y="717"/>
      <point x="645" y="635"/>
      <point x="565" y="558"/>
      <point x="520" y="522" type="qcurve"/>
      <point x="472" y="483"/>
      <point x="409" y="421"/>
      <point x="370" y="362"/>
      <point x="354" y="301"/>
      <point x="354" y="264" type="qcurve" name="dh02"/>
      <point x="354" y="216"/>
      <point x="383" y="144"/>
      <point x="430" y="96"/>
      <point x="490" y="72"/>
      <point x="522" y="72" type="qcurve" name="sv02"/>
      <point x="553" y="72"/>
      <point x="616" y="92"/>
      <point x="673" y="132"/>
      <point x="722" y="189"/>
      <point x="740" y="227" type="qcurve" name="mh01"/>
    </contour>
    <contour>
      <point x="409" y="1321" type="qcurve" name="sh01"/>
      <point x="409" y="1344"/>
      <point x="427" y="1385"/>
      <point x="458" y="1416"/>
      <point x="499" y="1434"/>
      <point x="522" y="1434" type="qcurve" name="sv04"/>
      <point x="545" y="1434"/>
      <point x="586" y="1416"/>
      <point x="617" y="1385"/>
      <point x="635" y="1344"/>
      <point x="635" y="1321" type="qcurve" name="ih01"/>
      <point x="635" y="1298"/>
      <point x="617" y="1257"/>
      <point x="586" y="1226"/>
      <point x="545" y="1208"/>
      <point x="522" y="1208" type="qcurve" name="sv03"/>
      <point x="499" y="1208"/>
      <point x="458" y="1226"/>
      <point x="427" y="1257"/>
      <point x="409" y="1298"/>
    </contour>
  </outline>
</glyph>
<glyph name="latn:AE" format="2">
  <advance width="1760"/>
  <unicode hex="00C6"/>
  <guideline x="52" y="0" angle="60"/>
  <guideline x="189" y="0" angle="60"/>
  <outline>
    <contour>
      <point x="880" y="1434" type="line" name="dh01"/>
      <point x="1684" y="1434" type="line"/>
      <point x="1658" y="1292" type="line" name="sv01"/>
      <point x="1062" y="1312" type="line" name="dh02"/>
      <point x="1062" y="829" type="line"/>
      <point x="1577" y="829" type="line" name="dv03"/>
      <point x="1555" y="707" type="line" name="dv02"/>
      <point x="1062" y="707" type="line" name="sh01"/>
      <point x="1062" y="121" type="line"/>
      <point x="1684" y="142" type="line" name="sv02"/>
      <point x="1659" y="0" type="line"/>
      <point x="880" y="0" type="line" name="sh02"/>
      <point x="880" y="365" type="line" name="dv01"/>
      <point x="400" y="365" type="line"/>
      <point x="172" y="-30" type="line" name="ab01"/>
      <point x="52" y="0" type="line"/>
    </contour>
    <contour>
      <point x="860" y="1163" type="line"/>
      <point x="471" y="487" type="line"/>
      <point x="880" y="487" type="line" name="sh03"/>
      <point x="880" y="1163" type="line"/>
    </contour>
  </outline>
</glyph>
<glyph name="latn:Ccedilla" format="2">
  <advance width="1344"/>
  <unicode hex="00C7"/>
  <outline>
    <contour>
      <point x="1157" y="1112" type="line" name="sh03"/>
      <point x="1136" y="1149"/>
      <point x="1067" y="1230"/>
      <point x="971" y="1298"/>
      <point x="848" y="1342"/>
      <point x="772" y="1342" type="qcurve" name="sv01"/>
      <point x="683" y="1342"/>
      <point x="506" y="1266"/>
      <point x="363" y="1111"/>
      <point x="274" y="876"/>
      <point x="274" y="717" type="qcurve" name="sh05"/>
      <point x="274" y="558"/>
      <point x="363" y="323"/>
      <point x="506" y="168" name="hr00"/>
      <point x="683" y="92"/>
      <point x="772" y="92" type="qcurve" name="sv02"/>
      <point x="848" y="92"/>
      <point x="971" y="137"/>
      <point x="1067" y="205"/>
      <point x="1136" y="286"/>
      <point x="1157" y="322" type="qcurve" name="sh02"/>
      <point x="1274" y="204" type="line" name="sh01"/>
      <point x="1230" y="153"/>
      <point x="1122" y="68"/>
      <point x="994" y="5"/>
      <point x="851" y="-30"/>
      <point x="773" y="-30" type="qcurve" name="ab02"/>
      <point x="744" y="-110" type="line" name="ih01"/>
      <point x="777" y="-110"/>
      <point x="834" y="-135"/>
      <point x="876" y="-182"/>
      <point x="901" y="-250"/>
      <point x="901" y="-293" type="qcurve" name="dh02"/>
      <point x="901" y="-344"/>
      <point x="863" y="-418"/>
      <point x="801" y="-466"/>
      <point x="725" y="-490"/>
      <point x="688" y="-490" type="qcurve" name="ab01"/>
      <point x="653" y="-490"/>
      <point x="594" y="-476"/>
      <point x="548" y="-456"/>
      <point x="516" y="-433"/>
      <point x="507" y="-423" type="qcurve"/>
      <point x="561" y="-347" type="line"/>
      <point x="564" y="-352"/>
      <point x="582" y="-372"/>
      <point x="610" y="-393"/>
      <point x="647" y="-408"/>
      <point x="669" y="-408" type="qcurve" name="sv03"/>
      <point x="692" y="-408"/>
      <point x="732" y="-391"/>
      <point x="762" y="-361"/>
      <point x="779" y="-321"/>
      <point x="779" y="-298" type="qcurve" name="dh01"/>
      <point x="779" y="-276"/>
      <point x="762" y="-236"/>
      <point x="732" y="-207"/>
      <point x="692" y="-190"/>
      <point x="669" y="-190" type="qcurve" name="sv04"/>
      <point x="648" y="-190"/>
      <point x="622" y="-194"/>
      <point x="604" y="-199"/>
      <point x="592" y="-204"/>
      <point x="586" y="-206" type="qcurve" name="ih02"/>
      <point x="654" y="-19" type="line" name="ab03"/>
      <point x="540" y="2"/>
      <point x="332" y="123"/>
      <point x="175" y="312"/>
      <point x="82" y="564"/>
      <point x="82" y="717" type="qcurve" name="sh04"/>
      <point x="82" y="832"/>
      <point x="136" y="1032"/>
      <point x="231" y="1198"/>
      <point x="361" y="1328"/>
      <point x="514" y="1417"/>
      <point x="684" y="1464"/>
      <point x="772" y="1464" type="qcurve" name="at01"/>
      <point x="850" y="1464"/>
      <point x="993" y="1429"/>
      <point x="1121" y="1366"/>
      <point x="1230" y="1281"/>
      <point x="1274" y="1230" type="qcurve" name="sh06"/>
    </contour>
  </outline>
</glyph>
<glyph name="latn:Eth" format="2">
  <advance width="1504"/>
  <unicode hex="00D0"/>
  <guideline x="35" y="0" angle="90"/>
  <outline>
    <contour>
      <point x="192" y="1434" type="line" name="sh01"/>
      <point x="619" y="1434" type="line"/>
      <point x="801" y="1434"/>
      <point x="1090" y="1336"/>
      <point x="1290" y="1151"/>
      <point x="1396" y="885"/>
      <point x="1396" y="717" type="qcurve" name="sh02"/>
      <point x="1396" y="619"/>
      <point x="1346" y="436"/>
      <point x="1251" y="277"/>
      <point x="1115" y="145"/>
      <point x="945" y="52"/>
      <point x="743" y="0"/>
      <point x="629" y="0" type="qcurve" name="ab01"/>
      <point x="192" y="0" type="line" name="sh03"/>
      <point x="192" y="707" type="line" name="dv01"/>
      <point x="55" y="707" type="line"/>
      <point x="76" y="829" type="line" name="sh04"/>
      <point x="192" y="829" type="line" name="dv02"/>
    </contour>
    <contour>
      <point x="374" y="122" type="line" name="sh06"/>
      <point x="600" y="122" type="line"/>
      <point x="745" y="122"/>
      <point x="970" y="210"/>
      <point x="1124" y="368"/>
      <point x="1204" y="586"/>
      <point x="1204" y="717" type="qcurve" name="sh07"/>
      <point x="1204" y="873"/>
      <point x="1119" y="1097"/>
      <point x="960" y="1243" name="fv01"/>
      <point x="734" y="1312"/>
      <point x="593" y="1312" type="qcurve" name="sv01"/>
      <point x="374" y="1312" type="line" name="sh05"/>
      <point x="374" y="829" type="line" name="sv02"/>
      <point x="800" y="829" type="line"/>
      <point x="779" y="707" type="line" name="sv03"/>
      <point x="374" y="707" type="line"/>
    </contour>
  </outline>
</glyph>
<glyph name="math:multiply" format="2">
  <advance width="1152"/>
  <unicode hex="00D7"/>
  <guideline x="0" y="715" angle="0"/>
  <guideline x="512" y="0" angle="90"/>
  <outline>
    <contour>
      <point x="189" y="888" type="line" name="ah01"/>
      <point x="275" y="974" type="line" name="at01"/>
      <point x="576" y="673" type="line" name="mv01"/>
      <point x="877" y="974" type="line" name="sv01"/>
      <point x="963" y="888" type="line" name="ah02"/>
      <point x="662" y="587" type="line" name="mh01"/>
      <point x="963" y="286" type="line" name="sh01"/>
      <point x="877" y="200" type="line" name="sv02"/>
      <point x="576" y="501" type="line" name="mv02"/>
      <point x="275" y="200" type="line" name="av01"/>
      <point x="189" y="286" type="line" name="sh02"/>
      <point x="490" y="587" type="line" name="mh02"/>
    </contour>
  </outline>
</glyph>
<glyph name="latn:Ostroke" format="2">
  <advance width="1600"/>
  <unicode hex="00D8"/>
  <outline>
    <contour>
      <point x="100" y="717" type="qcurve" name="sh01"/>
      <point x="100" y="832"/>
      <point x="155" y="1032"/>
      <point x="252" y="1198"/>
      <point x="385" y="1328"/>
      <point x="541" y="1417"/>
      <point x="712" y="1464"/>
      <point x="800" y="1464" type="qcurve" name="at01"/>
      <point x="861" y="1464"/>
      <point x="981" y="1441"/>
      <point x="1039" y="1419" type="qcurve"/>
      <point x="1103" y="1559" type="line" name="sv01"/>
      <point x="1246" y="1529" type="line"/>
      <point x="1167" y="1354" type="line" name="sv03"/>
      <point x="1239" y="1308"/>
      <point x="1361" y="1179"/>
      <point x="1450" y="1018"/>
      <point x="1500" y="826"/>
      <point x="1500" y="717" type="qcurve" name="sh02"/>
      <point x="1500" y="602"/>
      <point x="1445" y="402"/>
      <point x="1348" y="236"/>
      <point x="1215" y="106"/>
      <point x="1059" y="17"/>
      <point x="887" y="-30"/>
      <point x="800" y="-30" type="qcurve" name="ab01"/>
      <point x="739" y="-30"/>
      <point x="618" y="-7"/>
      <point x="560" y="15" type="qcurve"/>
      <point x="497" y="-125" type="line" name="sv04"/>
      <point x="354" y="-95" type="line"/>
      <point x="433" y="79" type="line" name="sv06"/>
      <point x="361" y="125"/>
      <point x="238" y="254"/>
      <point x="150" y="415"/>
      <point x="100" y="607"/>
    </contour>
    <contour>
      <point x="800" y="92" type="qcurve" name="sv05"/>
      <point x="859" y="92"/>
      <point x="980" y="126"/>
      <point x="1093" y="194"/>
      <point x="1192" y="297"/>
      <point x="1266" y="436"/>
      <point x="1308" y="611"/>
      <point x="1308" y="717" type="qcurve" name="sh03"/>
      <point x="1308" y="806"/>
      <point x="1278" y="957"/>
      <point x="1224" y="1083"/>
      <point x="1150" y="1184"/>
      <point x="1107" y="1222" type="qcurve" name="ih01"/>
      <point x="614" y="133" type="line"/>
      <point x="710" y="92"/>
    </contour>
    <contour>
      <point x="292" y="717" type="qcurve" name="sh04"/>
      <point x="292" y="628"/>
      <point x="322" y="476"/>
      <point x="375" y="349"/>
      <point x="449" y="249"/>
      <point x="493" y="212" type="qcurve" name="ih02"/>
      <point x="986" y="1300" type="line"/>
      <point x="894" y="1342"/>
      <point x="800" y="1342" type="qcurve" name="sv02"/>
      <point x="711" y="1342"/>
      <point x="531" y="1266"/>
      <point x="384" y="1111"/>
      <point x="292" y="876"/>
    </contour>
  </outline>
</glyph>
<glyph name="Thorn" format="2">
  <advance width="1152"/>
  <unicode hex="00DE"/>
  <outline>
    <contour>
      <point x="182" y="1434" type="line" name="sh01"/>
      <point x="364" y="1434" type="line" name="sh02"/>
      <point x="364" y="1126" type="line" name="sv01"/>
      <point x="560" y="1126" type="line"/>
      <point x="703" y="1126"/>
      <point x="905" y="1062"/>
      <point x="1032" y="951"/>
      <point x="1090" y="802"/>
      <point x="1090" y="717" type="qcurve" name="sh03"/>
      <point x="1090" y="632"/>
      <point x="1032" y="483"/>
      <point x="905" y="372"/>
      <point x="703" y="308"/>
      <point x="560" y="308" type="qcurve"/>
      <point x="364" y="308" type="line" name="sh04"/>
      <point x="364" y="0" type="line" name="ab01"/>
      <point x="182" y="0" type="line"/>
    </contour>
    <contour>
      <point x="364" y="1024" type="line" name="sh05"/>
      <point x="364" y="410" type="line" name="sv02"/>
      <point x="534" y="410" type="line"/>
      <point x="627" y="410"/>
      <point x="764" y="455"/>
      <point x="854" y="536"/>
      <point x="898" y="649"/>
      <point x="898" y="717" type="qcurve" name="sh06"/>
      <point x="898" y="785"/>
      <point x="854" y="898"/>
      <point x="764" y="979"/>
      <point x="627" y="1024"/>
      <point x="534" y="1024" type="qcurve"/>
    </contour>
  </outline>
</glyph>
<glyph name="latn:germandbls" format="2">
  <advance width="1152"/>
  <unicode hex="00DF"/>
  <guideline x="603" y="0" angle="90"/>
  <outline>
    <contour>
      <point x="142" y="1039" type="line" name="hr00"/>
      <point x="142" y="1153"/>
      <point x="214" y="1347"/>
      <point x="336" y="1487"/>
      <point x="496" y="1566"/>
      <point x="583" y="1566" type="qcurve" name="sv01"/>
      <point x="652" y="1566"/>
      <point x="762" y="1521" name="hr01"/>
      <point x="839" y="1448"/>
      <point x="880" y="1357"/>
      <point x="880" y="1311" type="qcurve" name="sh03"/>
      <point x="880" y="1256"/>
      <point x="846" y="1170" name="hr02"/>
      <point x="794" y="1100"/>
      <point x="734" y="1042"/>
      <point x="682" y="988"/>
      <point x="648" y="934"/>
      <point x="648" y="902" type="qcurve" name="sh06"/>
      <point x="648" y="860"/>
      <point x="712" y="792"/>
      <point x="807" y="724"/>
      <point x="919" y="651"/>
      <point x="1014" y="557"/>
      <point x="1078" y="437"/>
      <point x="1078" y="356" type="qcurve" name="sh01"/>
      <point x="1078" y="283"/>
      <point x="1027" y="144"/>
      <point x="898" y="36"/>
      <point x="677" y="-30"/>
      <point x="508" y="-30" type="qcurve" name="ab01"/>
      <point x="526" y="72" type="line" name="sh04"/>
      <point x="713" y="72"/>
      <point x="916" y="217"/>
      <point x="916" y="352" type="qcurve" name="sh02"/>
      <point x="916" y="401"/>
      <point x="882" y="475"/>
      <point x="828" y="534"/>
      <point x="758" y="583"/>
      <point x="684" y="630"/>
      <point x="614" y="680"/>
      <point x="560" y="741"/>
      <point x="526" y="816"/>
      <point x="526" y="866" type="qcurve" name="sh05"/>
      <point x="526" y="907"/>
      <point x="557" y="977"/>
      <point x="605" y="1043"/>
      <point x="659" y="1107"/>
      <point x="707" y="1177"/>
      <point x="738" y="1255"/>
      <point x="738" y="1302" type="qcurve" name="sh07"/>
      <point x="738" y="1333"/>
      <point x="716" y="1392"/>
      <point x="674" y="1437"/>
      <point x="614" y="1464"/>
      <point x="577" y="1464" type="qcurve" name="at01"/>
      <point x="524" y="1464"/>
      <point x="425" y="1407"/>
      <point x="349" y="1292"/>
      <point x="304" y="1118"/>
      <point x="304" y="1001" type="qcurve"/>
      <point x="304" y="0" type="line" name="dh02"/>
      <point x="142" y="0" type="line" name="dh01"/>
    </contour>
  </outline>
</glyph>
<glyph name="latn:ae" format="2">
  <advance width="1600"/>
  <unicode hex="00E6"/>
  <guideline x="707" y="0" angle="90"/>
  <outline>
    <contour>
      <point x="858" y="487" type="line" name="sh01"/>
      <point x="858" y="373"/>
      <point x="909" y="215"/>
      <point x="996" y="116"/>
      <point x="1109" y="72"/>
      <point x="1171" y="72" type="qcurve" name="sv01"/>
      <point x="1220" y="72"/>
      <point x="1295" y="103" name="hr00"/>
      <point x="1352" y="149"/>
      <point x="1393" y="204"/>
      <point x="1407" y="227" type="qcurve" name="av01"/>
      <point x="1508" y="125" type="line" name="sh03"/>
      <point x="1492" y="106"/>
      <point x="1433" y="53"/>
      <point x="1347" y="4"/>
      <point x="1235" y="-30"/>
      <point x="1166" y="-30" type="qcurve" name="ab01"/>
      <point x="881" y="-30"/>
      <point x="760" y="195" type="qcurve"/>
      <point x="750" y="195" type="line"/>
      <point x="702" y="139"/>
      <point x="618" y="55"/>
      <point x="528" y="-2"/>
      <point x="423" y="-30"/>
      <point x="354" y="-30" type="qcurve" name="ab02"/>
      <point x="294" y="-30"/>
      <point x="197" y="10"/>
      <point x="129" y="83"/>
      <point x="92" y="184"/>
      <point x="92" y="245" type="qcurve" name="sh04"/>
      <point x="92" y="330"/>
      <point x="162" y="459"/>
      <point x="309" y="547"/>
      <point x="538" y="595"/>
      <point x="696" y="599" type="qcurve" name="dh01"/>
      <point x="696" y="667" type="line"/>
      <point x="696" y="727"/>
      <point x="663" y="816"/>
      <point x="607" y="874"/>
      <point x="534" y="902"/>
      <point x="494" y="902" type="qcurve" name="sv02"/>
      <point x="401" y="902"/>
      <point x="276" y="817"/>
      <point x="234" y="747" type="qcurve" name="sh06"/>
      <point x="132" y="849" type="line"/>
      <point x="204" y="928"/>
      <point x="379" y="1004"/>
      <point x="494" y="1004" type="qcurve" name="at01"/>
      <point x="541" y="1004"/>
      <point x="632" y="983"/>
      <point x="714" y="942"/>
      <point x="784" y="883"/>
      <point x="810" y="844" type="qcurve" name="ih01"/>
      <point x="873" y="920"/>
      <point x="1030" y="1004"/>
      <point x="1133" y="1004" type="qcurve" name="at02"/>
      <point x="1217" y="1004"/>
      <point x="1364" y="944"/>
      <point x="1474" y="817"/>
      <point x="1538" y="622"/>
      <point x="1538" y="487" type="qcurve" name="sh02"/>
    </contour>
    <contour>
      <point x="696" y="537" type="line" name="sh07"/>
      <point x="576" y="534"/>
      <point x="408" y="490"/>
      <point x="302" y="417"/>
      <point x="254" y="316"/>
      <point x="254" y="256" type="qcurve" name="sh05"/>
      <point x="254" y="208"/>
      <point x="282" y="138"/>
      <point x="326" y="93"/>
      <point x="377" y="72"/>
      <point x="401" y="72" type="qcurve" name="sv03"/>
      <point x="450" y="72"/>
      <point x="533" y="93"/>
      <point x="604" y="133"/>
      <point x="667" y="194"/>
      <point x="696" y="233" type="qcurve"/>
    </contour>
    <contour>
      <point x="1386" y="589" type="line" name="sh08"/>
      <point x="1386" y="649"/>
      <point x="1353" y="762"/>
      <point x="1288" y="849"/>
      <point x="1190" y="902"/>
      <point x="1125" y="902" type="qcurve" name="sv04"/>
      <point x="1063" y="902"/>
      <point x="967" y="853"/>
      <point x="900" y="769"/>
      <point x="862" y="655"/>
      <point x="858" y="589" type="qcurve" name="dh02"/>
    </contour>
  </outline>
</glyph>
<glyph name="latn:eth" format="2">
  <advance width="1120"/>
  <unicode hex="00F0"/>
  <guideline x="0" y="706" angle="40"/>
  <guideline x="0" y="545" angle="40"/>
  <guideline x="0" y="952" angle="40"/>
  <guideline x="2131" y="0" angle="130"/>
  <guideline x="1674" y="0" angle="130"/>
  <outline>
    <contour>
      <point x="1012" y="611" type="qcurve" name="dh02"/>
      <point x="1012" y="449"/>
      <point x="929" y="207"/>
      <point x="794" y="47"/>
      <point x="623" y="-32"/>
      <point x="535" y="-32" type="qcurve" name="ab01"/>
      <point x="451" y="-32"/>
      <point x="296" y="28"/>
      <point x="178" y="142"/>
      <point x="108" y="306"/>
      <point x="108" y="410" type="qcurve" name="sh01"/>
      <point x="108" y="506"/>
      <point x="170" y="668"/>
      <point x="282" y="784"/>
      <point x="439" y="849"/>
      <point x="535" y="849" type="qcurve" name="sv01"/>
      <point x="577" y="849" name="hr00"/>
      <point x="663" y="826"/>
      <point x="743" y="779"/>
      <point x="814" y="707"/>
      <point x="840" y="659" type="qcurve"/>
      <point x="850" y="659" type="line" name="sh02"/>
      <point x="850" y="705"/>
      <point x="843" y="826"/>
      <point x="816" y="956"/>
      <point x="761" y="1087"/>
      <point x="713" y="1143" type="qcurve" name="sv02"/>
      <point x="548" y="1005" type="line" name="at03"/>
      <point x="468" y="1099" type="line" name="ah01"/>
      <point x="634" y="1238" type="line" name="dh04"/>
      <point x="513" y="1381" type="line"/>
      <point x="611" y="1464" type="line" name="at01"/>
      <point x="733" y="1321" type="line" name="sv03"/>
      <point x="903" y="1464" type="line" name="at02"/>
      <point x="982" y="1369" type="line" name="ah02"/>
      <point x="813" y="1227" type="line" name="dh03"/>
      <point x="851" y="1180"/>
      <point x="923" y="1046"/>
      <point x="978" y="886"/>
      <point x="1012" y="705"/>
    </contour>
    <contour>
      <point x="535" y="747" type="qcurve" name="sv04"/>
      <point x="479" y="747"/>
      <point x="385" y="695"/>
      <point x="317" y="604"/>
      <point x="280" y="481"/>
      <point x="280" y="410" type="qcurve" name="sh03"/>
      <point x="280" y="335"/>
      <point x="317" y="210"/>
      <point x="385" y="120"/>
      <point x="479" y="70"/>
      <point x="535" y="70" type="qcurve" name="sv05"/>
      <point x="595" y="70"/>
      <point x="699" y="123"/>
      <point x="776" y="219"/>
      <point x="820" y="351"/>
      <point x="820" y="430" type="qcurve" name="dh01"/>
      <point x="820" y="486"/>
      <point x="779" y="599"/>
      <point x="704" y="690"/>
      <point x="599" y="747"/>
    </contour>
  </outline>
</glyph>
<glyph name="divide" format="2">
  <advance width="1152"/>
  <unicode hex="00F7"/>
  <outline>
    <contour>
      <point x="166" y="548" type="line" name="sv03"/>
      <point x="986" y="548" type="line"/>
      <point x="986" y="426" type="line"/>
      <point x="166" y="426" type="line" name="iv01"/>
    </contour>
    <contour>
      <point x="453" y="93" type="qcurve" name="dh01"/>
      <point x="453" y="118"/>
      <point x="472" y="163"/>
      <point x="506" y="197"/>
      <point x="550" y="216"/>
      <point x="576" y="216" type="qcurve" name="sv02"/>
      <point x="601" y="216"/>
      <point x="646" y="197"/>
      <point x="680" y="163"/>
      <point x="699" y="118"/>
      <point x="699" y="93" type="qcurve" name="dh02"/>
      <point x="699" y="68"/>
      <point x="680" y="23"/>
      <point x="646" y="-10"/>
      <point x="601" y="-30"/>
      <point x="576" y="-30" type="qcurve" name="ab01"/>
      <point x="550" y="-30"/>
      <point x="506" y="-10"/>
      <point x="472" y="23"/>
      <point x="453" y="68"/>
    </contour>
    <contour>
      <point x="453" y="881" type="qcurve" name="sh01"/>
      <point x="453" y="906"/>
      <point x="472" y="951"/>
      <point x="506" y="984"/>
      <point x="550" y="1004"/>
      <point x="576" y="1004" type="qcurve" name="at01"/>
      <point x="601" y="1004"/>
      <point x="646" y="984"/>
      <point x="680" y="951"/>
      <point x="699" y="906"/>
      <point x="699" y="881" type="qcurve" name="sh02"/>
      <point x="699" y="855"/>
      <point x="680" y="811"/>
      <point x="646" y="777"/>
      <point x="601" y="758"/>
      <point x="576" y="758" type="qcurve" name="sv01"/>
      <point x="550" y="758"/>
      <point x="506" y="777"/>
      <point x="472" y="811"/>
      <point x="453" y="855"/>
    </contour>
  </outline>
</glyph>
<glyph name="latn:ostroke" format="2">
  <advance width="1120"/>
  <unicode hex="00F8"/>
  <guideline x="526" y="0" angle="90"/>
  <outline>
    <contour>
      <point x="560" y="1004" type="qcurve" name="at01"/>
      <point x="608" y="1004"/>
      <point x="693" y="988"/>
      <point x="733" y="974" type="qcurve"/>
      <point x="793" y="1099" type="line" name="sv01"/>
      <point x="896" y="1069" type="line"/>
      <point x="828" y="926" type="line"/>
      <point x="879" y="893"/>
      <point x="960" y="801"/>
      <point x="1017" y="689"/>
      <point x="1048" y="559"/>
      <point x="1048" y="487" type="qcurve" name="sh01"/>
      <point x="1048" y="376"/>
      <point x="976" y="186"/>
      <point x="846" y="48"/>
      <point x="667" y="-30"/>
      <point x="560" y="-30" type="qcurve" name="ab01"/>
      <point x="512" y="-30"/>
      <point x="426" y="-14"/>
      <point x="386" y="0" type="qcurve"/>
      <point x="327" y="-125" type="line" name="sv02"/>
      <point x="224" y="-95" type="line"/>
      <point x="292" y="47" type="line"/>
      <point x="189" y="114"/>
      <point x="72" y="340"/>
      <point x="72" y="487" type="qcurve" name="sh02"/>
      <point x="72" y="598"/>
      <point x="144" y="788"/>
      <point x="274" y="926"/>
      <point x="453" y="1004"/>
    </contour>
    <contour>
      <point x="560" y="902" type="qcurve" name="sv03"/>
      <point x="489" y="902"/>
      <point x="372" y="837"/>
      <point x="289" y="724"/>
      <point x="244" y="573"/>
      <point x="244" y="487" type="qcurve" name="sh03"/>
      <point x="244" y="390"/>
      <point x="299" y="226"/>
      <point x="350" y="169" type="qcurve" name="ih01"/>
      <point x="685" y="872" type="line" name="sv04"/>
      <point x="656" y="886"/>
      <point x="594" y="902"/>
    </contour>
    <contour>
      <point x="560" y="72" type="qcurve" name="sv05"/>
      <point x="631" y="72"/>
      <point x="748" y="137"/>
      <point x="831" y="249"/>
      <point x="876" y="401"/>
      <point x="876" y="487" type="qcurve" name="sh04"/>
      <point x="876" y="584"/>
      <point x="821" y="747"/>
      <point x="770" y="804" type="qcurve" name="ih02"/>
      <point x="435" y="102" type="line" name="sv06"/>
      <point x="490" y="72"/>
    </contour>
  </outline>
</glyph>
<glyph name="thorn" format="2">
  <advance width="1120"/>
  <unicode hex="00FE"/>
  <guideline x="50" y="0" angle="90"/>
  <outline>
    <contour>
      <point x="304" y="1464" type="line" name="sh03"/>
      <point x="304" y="894" type="line" name="ih01"/>
      <point x="326" y="916"/>
      <point x="391" y="956"/>
      <point x="464" y="986"/>
      <point x="542" y="1004"/>
      <point x="577" y="1004" type="qcurve" name="at01"/>
      <point x="680" y="1004"/>
      <point x="850" y="927"/>
      <point x="971" y="789"/>
      <point x="1038" y="599"/>
      <point x="1038" y="487" type="qcurve" name="dh01"/>
      <point x="1038" y="378"/>
      <point x="972" y="189"/>
      <point x="850" y="50"/>
      <point x="674" y="-30"/>
      <point x="565" y="-30" type="qcurve" name="ab01"/>
      <point x="527" y="-30"/>
      <point x="453" y="-13"/>
      <point x="385" y="15"/>
      <point x="326" y="52"/>
      <point x="304" y="72" type="qcurve" name="iv01"/>
      <point x="304" y="-460" type="line" name="sh02"/>
      <point x="172" y="-490" type="line"/>
      <point x="142" y="-490" type="line" name="sh01"/>
      <point x="142" y="1434" type="line"/>
      <point x="274" y="1464" type="line"/>
    </contour>
    <contour>
      <point x="554" y="72" type="qcurve" name="sv01"/>
      <point x="623" y="72"/>
      <point x="737" y="135"/>
      <point x="820" y="247"/>
      <point x="866" y="398"/>
      <point x="866" y="487" type="qcurve" name="dh02"/>
      <point x="866" y="578"/>
      <point x="817" y="731"/>
      <point x="732" y="841"/>
      <point x="619" y="902"/>
      <point x="555" y="902" type="qcurve" name="sv02"/>
      <point x="513" y="902"/>
      <point x="435" y="880"/>
      <point x="369" y="845"/>
      <point x="318" y="803"/>
      <point x="304" y="784" type="qcurve" name="sh04"/>
      <point x="304" y="190" type="line"/>
      <point x="319" y="172"/>
      <point x="368" y="131"/>
      <point x="433" y="95"/>
      <point x="510" y="72"/>
    </contour>
  </outline>
</glyph>
<glyph name="Aogonek" format="2">
  <advance width="1344"/>
  <unicode hex="0104"/>
  <guideline x="973" y="0" angle="135"/>
  <anchor x="672" y="1600" name="AccentAbove"/>
  <anchor x="1022" y="1600" name="AccentAboveRight"/>
  <outline>
    <contour>
      <point x="1085" y="-30" type="line" name="sh02"/>
      <point x="925" y="365" type="line" name="iv01"/>
      <point x="339" y="365" type="line"/>
      <point x="179" y="-30" type="line" name="sh04"/>
      <point x="59" y="0" type="line" name="sh03"/>
      <point x="650" y="1464" type="line" name="mh01"/>
      <point x="694" y="1464" type="line" name="mh02"/>
      <point x="1285" y="0" type="line" name="sh01"/>
      <point x="1234" y="-38"/>
      <point x="1165" y="-94"/>
      <point x="1122" y="-143"/>
      <point x="1103" y="-191"/>
      <point x="1103" y="-222" type="qcurve" name="ih01"/>
      <point x="1103" y="-245"/>
      <point x="1120" y="-284"/>
      <point x="1148" y="-312"/>
      <point x="1183" y="-328"/>
      <point x="1201" y="-328" type="qcurve" name="sv01"/>
      <point x="1216" y="-328"/>
      <point x="1237" y="-326"/>
      <point x="1256" y="-320"/>
      <point x="1274" y="-310"/>
      <point x="1285" y="-302" type="qcurve"/>
      <point x="1306" y="-419" type="line"/>
      <point x="1280" y="-432"/>
      <point x="1222" y="-440"/>
      <point x="1193" y="-440" type="qcurve" name="mh03"/>
      <point x="1152" y="-440"/>
      <point x="1078" y="-408"/>
      <point x="1023" y="-353"/>
      <point x="991" y="-280"/>
      <point x="991" y="-239" type="qcurve" name="sh05"/>
      <point x="991" y="-213"/>
      <point x="1003" y="-161"/>
      <point x="1038" y="-108"/>
      <point x="1102" y="-51"/>
      <point x="1155" y="-19" type="qcurve"/>
    </contour>
    <contour>
      <point x="627" y="1102" type="line" name="av01"/>
      <point x="388" y="487" type="line" name="sh06"/>
      <point x="875" y="487" type="line" name="sv02"/>
      <point x="637" y="1102" type="line" name="sv03"/>
    </contour>
  </outline>
</glyph>
<glyph name="aogonek" format="2">
  <advance width="1120"/>
  <unicode hex="0105"/>
  <guideline x="944" y="0" angle="90"/>
  <anchor x="532" y="1100" name="AccentAbove"/>
  <anchor x="882" y="1100" name="AccentAboveRight"/>
  <outline>
    <contour>
      <point x="1030" y="-419" type="line" name="sh02"/>
      <point x="1004" y="-432"/>
      <point x="946" y="-440"/>
      <point x="917" y="-440" type="qcurve" name="av01"/>
      <point x="876" y="-440"/>
      <point x="802" y="-408"/>
      <point x="747" y="-353" name="hr00"/>
      <point x="715" y="-280"/>
      <point x="715" y="-239" type="qcurve" name="sh04"/>
      <point x="715" y="-195"/>
      <point x="750" y="-122" name="hr01"/>
      <point x="805" y="-62"/>
      <point x="874" y="-15"/>
      <point x="907" y="3" type="qcurve" name="sh05"/>
      <point x="871" y="26"/>
      <point x="827" y="101"/>
      <point x="818" y="142" type="qcurve" name="ih02"/>
      <point x="808" y="142" type="line" name="sh06"/>
      <point x="784" y="115"/>
      <point x="708" y="55"/>
      <point x="611" y="4"/>
      <point x="496" y="-30"/>
      <point x="435" y="-30" type="qcurve" name="ab01"/>
      <point x="371" y="-30" name="hr02"/>
      <point x="258" y="4" name="fv01"/>
      <point x="173" y="69"/>
      <point x="124" y="164"/>
      <point x="124" y="225" type="qcurve" name="sh07"/>
      <point x="124" y="313"/>
      <point x="218" y="449"/>
      <point x="395" y="541"/>
      <point x="649" y="589"/>
      <point x="808" y="589" type="qcurve" name="iv01"/>
      <point x="808" y="637" type="line" name="sh09"/>
      <point x="808" y="716"/>
      <point x="762" y="819"/>
      <point x="691" y="879"/>
      <point x="605" y="902"/>
      <point x="565" y="902" type="qcurve" name="sv01"/>
      <point x="525" y="902"/>
      <point x="440" y="879"/>
      <point x="358" y="839"/>
      <point x="284" y="781"/>
      <point x="255" y="747" type="qcurve" name="iv02"/>
      <point x="153" y="849" type="line" name="ih03"/>
      <point x="234" y="925"/>
      <point x="450" y="1004"/>
      <point x="565" y="1004" type="qcurve" name="at01"/>
      <point x="640" y="1004"/>
      <point x="785" y="960"/>
      <point x="899" y="862" name="fv02"/>
      <point x="970" y="708"/>
      <point x="970" y="597" type="qcurve"/>
      <point x="970" y="174" type="line" name="sh03"/>
      <point x="970" y="72"/>
      <point x="1048" y="72" type="qcurve" name="sh01"/>
      <point x="1030" y="-30" type="line" name="ab02"/>
      <point x="1015" y="-30"/>
      <point x="988" y="-27"/>
      <point x="975" y="-25" type="qcurve"/>
      <point x="930" y="-62"/>
      <point x="872" y="-115"/>
      <point x="839" y="-159"/>
      <point x="827" y="-199"/>
      <point x="827" y="-222" type="qcurve" name="ih01"/>
      <point x="827" y="-245"/>
      <point x="844" y="-284"/>
      <point x="872" y="-312"/>
      <point x="907" y="-328"/>
      <point x="925" y="-328" type="qcurve" name="sv03"/>
      <point x="940" y="-328"/>
      <point x="961" y="-326"/>
      <point x="980" y="-320"/>
      <point x="998" y="-310"/>
      <point x="1009" y="-302" type="qcurve"/>
    </contour>
    <contour>
      <point x="808" y="507" type="line" name="sv04"/>
      <point x="763" y="507"/>
      <point x="651" y="501"/>
      <point x="535" y="482"/>
      <point x="425" y="447"/>
      <point x="338" y="389"/>
      <point x="286" y="305"/>
      <point x="286" y="246" type="qcurve" name="sh10"/>
      <point x="286" y="164"/>
      <point x="384" y="72"/>
      <point x="472" y="72" type="qcurve" name="sv02"/>
      <point x="523" y="72"/>
      <point x="619" y="104"/>
      <point x="705" y="157"/>
      <point x="779" y="226"/>
      <point x="808" y="263" type="qcurve" name="sh08"/>
    </contour>
  </outline>
</glyph>
<glyph name="dcroat" format="2">
  <advance width="1120"/>
  <unicode hex="0111"/>
  <guideline x="1055" y="0" angle="90"/>
  <outline>
    <contour>
      <point x="818" y="1464" type="line" name="hr00"/>
      <point x="950" y="1494" type="line" name="av01"/>
      <point x="980" y="1494" type="line"/>
      <point x="980" y="1292" type="line" name="sh01"/>
      <point x="1120" y="1292" type="line" name="sh02"/>
      <point x="1097" y="1160" type="line" name="sv01"/>
      <point x="980" y="1166" type="line"/>
      <point x="980" y="179" type="line" name="ah01"/>
      <point x="980" y="125"/>
      <point x="1016" y="72"/>
      <point x="1058" y="72" type="qcurve" name="sh03"/>
      <point x="1040" y="-30" type="line" name="ab01"/>
      <point x="982" y="-30"/>
      <point x="904" y="7"/>
      <point x="856" y="60"/>
      <point x="832" y="119"/>
      <point x="828" y="142" type="qcurve" name="sv02"/>
      <point x="818" y="142" type="line"/>
      <point x="798" y="114"/>
      <point x="744" y="54"/>
      <point x="671" y="3"/>
      <point x="576" y="-30"/>
      <point x="515" y="-30" type="qcurve" name="ab02"/>
      <point x="431" y="-30"/>
      <point x="275" y="40"/>
      <point x="155" y="172"/>
      <point x="82" y="365"/>
      <point x="82" y="488" type="qcurve" name="sh04"/>
      <point x="82" y="594"/>
      <point x="153" y="782"/>
      <point x="274" y="922"/>
      <point x="435" y="1004"/>
      <point x="524" y="1004" type="qcurve" name="at01"/>
      <point x="568" y="1004"/>
      <point x="650" y="986"/>
      <point x="724" y="957"/>
      <point x="785" y="921"/>
      <point x="808" y="902" type="qcurve" name="sv03"/>
      <point x="818" y="902" type="line" name="sh06"/>
      <point x="818" y="1175" type="line" name="iv01"/>
      <point x="552" y="1190" type="line" name="sv04"/>
      <point x="570" y="1292" type="line"/>
      <point x="818" y="1292" type="line" name="sh07"/>
    </contour>
    <contour>
      <point x="818" y="785" type="line"/>
      <point x="799" y="806"/>
      <point x="747" y="848"/>
      <point x="681" y="881"/>
      <point x="601" y="902"/>
      <point x="555" y="902" type="qcurve" name="sv05"/>
      <point x="492" y="902"/>
      <point x="383" y="844"/>
      <point x="301" y="736"/>
      <point x="254" y="583"/>
      <point x="254" y="489" type="qcurve" name="sh08"/>
      <point x="254" y="375"/>
      <point x="306" y="217"/>
      <point x="389" y="117"/>
      <point x="493" y="72"/>
      <point x="545" y="72" type="qcurve" name="sv06"/>
      <point x="592" y="72"/>
      <point x="673" y="105"/>
      <point x="742" y="158"/>
      <point x="797" y="227"/>
      <point x="818" y="263" type="qcurve" name="sh05"/>
    </contour>
  </outline>
</glyph>
<glyph name="Eogonek" format="2">
  <advance width="1088"/>
  <unicode hex="0118"/>
  <guideline x="1138" y="0" angle="90"/>
  <guideline x="961" y="0" angle="80"/>
  <anchor x="554" y="1600" name="AccentDefault"/>
  <outline>
    <contour>
      <point x="182" y="1434" type="line" name="at01"/>
      <point x="986" y="1434" type="line" name="sh01"/>
      <point x="961" y="1292" type="line" name="sv01"/>
      <point x="364" y="1312" type="line"/>
      <point x="364" y="839" type="line" name="sh04"/>
      <point x="879" y="839" type="line" name="sh05"/>
      <point x="857" y="717" type="line"/>
      <point x="364" y="717" type="line" name="sv02"/>
      <point x="364" y="122" type="line" name="sh03"/>
      <point x="986" y="142" type="line" name="ah03"/>
      <point x="961" y="0" type="line"/>
      <point x="908" y="0" type="line" name="ab01"/>
      <point x="857" y="-38"/>
      <point x="788" y="-94"/>
      <point x="745" y="-143"/>
      <point x="726" y="-191"/>
      <point x="726" y="-222" type="qcurve" name="ah01"/>
      <point x="726" y="-245"/>
      <point x="743" y="-284"/>
      <point x="771" y="-312"/>
      <point x="806" y="-328"/>
      <point x="824" y="-328" type="qcurve" name="sv03"/>
      <point x="839" y="-328"/>
      <point x="860" y="-326"/>
      <point x="879" y="-320"/>
      <point x="897" y="-310"/>
      <point x="908" y="-302" type="qcurve"/>
      <point x="929" y="-419" type="line"/>
      <point x="903" y="-432"/>
      <point x="845" y="-440"/>
      <point x="816" y="-440" type="qcurve" name="av01"/>
      <point x="775" y="-440"/>
      <point x="701" y="-408"/>
      <point x="646" y="-353"/>
      <point x="614" y="-280"/>
      <point x="614" y="-239" type="qcurve" name="sh06"/>
      <point x="614" y="-211"/>
      <point x="628" y="-156"/>
      <point x="670" y="-98"/>
      <point x="748" y="-35"/>
      <point x="811" y="0" type="qcurve" name="ah02"/>
      <point x="182" y="0" type="line" name="sh02"/>
    </contour>
  </outline>
</glyph>
<glyph name="latn:eogonek" format="2">
  <advance width="1024"/>
  <unicode hex="0119"/>
  <guideline x="374" y="0" angle="135"/>
  <anchor x="532" y="1100" name="AccentAbove"/>
  <anchor x="882" y="1100" name="AccentAboveRight"/>
  <outline>
    <contour>
      <point x="244" y="487" type="line" name="sh02"/>
      <point x="244" y="373"/>
      <point x="301" y="215"/>
      <point x="394" y="116"/>
      <point x="513" y="72"/>
      <point x="575" y="72" type="qcurve" name="sv01"/>
      <point x="623" y="72"/>
      <point x="705" y="103"/>
      <point x="769" y="149"/>
      <point x="817" y="204"/>
      <point x="831" y="227" type="qcurve" name="sh05"/>
      <point x="932" y="125" type="line" name="sh06"/>
      <point x="910" y="99"/>
      <point x="811" y="26"/>
      <point x="739" y="0" type="qcurve" name="sh08"/>
      <point x="688" y="-38"/>
      <point x="619" y="-94"/>
      <point x="576" y="-143"/>
      <point x="557" y="-191"/>
      <point x="557" y="-222" type="qcurve" name="ih01"/>
      <point x="557" y="-245"/>
      <point x="574" y="-284"/>
      <point x="602" y="-312"/>
      <point x="637" y="-328"/>
      <point x="655" y="-328" type="qcurve" name="sv02"/>
      <point x="670" y="-328"/>
      <point x="691" y="-326"/>
      <point x="710" y="-320"/>
      <point x="728" y="-310"/>
      <point x="739" y="-302" type="qcurve"/>
      <point x="760" y="-419" type="line" name="ah01"/>
      <point x="734" y="-432"/>
      <point x="676" y="-440"/>
      <point x="647" y="-440" type="qcurve" name="av01"/>
      <point x="606" y="-440"/>
      <point x="532" y="-408"/>
      <point x="477" y="-353"/>
      <point x="445" y="-280"/>
      <point x="445" y="-239" type="qcurve" name="sh09"/>
      <point x="445" y="-214"/>
      <point x="457" y="-164"/>
      <point x="488" y="-112"/>
      <point x="542" y="-58"/>
      <point x="584" y="-30" type="qcurve" name="sh07"/>
      <point x="457" y="-30"/>
      <point x="265" y="47"/>
      <point x="137" y="188"/>
      <point x="72" y="386"/>
      <point x="72" y="507" type="qcurve" name="sh01"/>
      <point x="72" y="617"/>
      <point x="146" y="800"/>
      <point x="274" y="931"/>
      <point x="442" y="1004"/>
      <point x="537" y="1004" type="qcurve" name="at01"/>
      <point x="621" y="1004"/>
      <point x="774" y="944"/>
      <point x="892" y="817"/>
      <point x="962" y="622"/>
      <point x="962" y="487" type="qcurve" name="sh03"/>
    </contour>
    <contour>
      <point x="810" y="589" type="line" name="sh04"/>
      <point x="810" y="649"/>
      <point x="771" y="762"/>
      <point x="698" y="849"/>
      <point x="594" y="902"/>
      <point x="529" y="902" type="qcurve" name="sv03"/>
      <point x="467" y="902"/>
      <point x="366" y="853"/>
      <point x="292" y="769"/>
      <point x="248" y="655"/>
      <point x="244" y="589" type="qcurve" name="sh10"/>
    </contour>
  </outline>
</glyph>
<glyph name="latn:Hstroke" format="2">
  <advance width="1504"/>
  <unicode hex="0126"/>
  <guideline x="35" y="0" angle="90"/>
  <guideline x="1460" y="0" angle="90"/>
  <outline>
    <contour>
      <point x="364" y="1434" type="line" name="sh03"/>
      <point x="364" y="1188" type="line" name="sv01"/>
      <point x="1140" y="1188" type="line" name="sh05"/>
      <point x="1140" y="1434" type="line" name="at01"/>
      <point x="1322" y="1434" type="line"/>
      <point x="1322" y="1188" type="line" name="sh04"/>
      <point x="1422" y="1188" type="line" name="sh06"/>
      <point x="1400" y="1066" type="line" name="dv01"/>
      <point x="1322" y="1066" type="line" name="sh07"/>
      <point x="1322" y="0" type="line" name="ab01"/>
      <point x="1140" y="0" type="line" name="sh08"/>
      <point x="1140" y="707" type="line" name="sv02"/>
      <point x="364" y="707" type="line"/>
      <point x="364" y="0" type="line" name="sh02"/>
      <point x="182" y="0" type="line" name="sh01"/>
      <point x="182" y="1066" type="line" name="sv03"/>
      <point x="82" y="1066" type="line" name="sh10"/>
      <point x="103" y="1188" type="line" name="sv04"/>
      <point x="182" y="1188" type="line" name="sh09"/>
      <point x="182" y="1434" type="line"/>
    </contour>
    <contour>
      <point x="364" y="1066" type="line" name="sh11"/>
      <point x="364" y="829" type="line"/>
      <point x="1140" y="829" type="line" name="sh12"/>
      <point x="1140" y="1066" type="line"/>
    </contour>
  </outline>
</glyph>
<glyph name="latn:hstroke" format="2">
  <advance width="1120"/>
  <unicode hex="0127"/>
  <guideline x="20" y="0" angle="90"/>
  <guideline x="758" y="0" angle="90"/>
  <outline>
    <contour>
      <point x="38" y="1292" type="line" name="sv02"/>
      <point x="152" y="1292" type="line" name="sh01"/>
      <point x="152" y="1464" type="line" name="at02"/>
      <point x="284" y="1494" type="line"/>
      <point x="314" y="1494" type="line" name="av01"/>
      <point x="314" y="1292" type="line" name="sh02"/>
      <point x="590" y="1292" type="line" name="ah02"/>
      <point x="567" y="1160" type="line" name="sv01"/>
      <point x="314" y="1172" type="line" name="sh03"/>
      <point x="314" y="837" type="line"/>
      <point x="324" y="837" type="line" name="sh04"/>
      <point x="387" y="916"/>
      <point x="546" y="1004"/>
      <point x="652" y="1004" type="qcurve" name="at01"/>
      <point x="721" y="1004"/>
      <point x="838" y="963"/>
      <point x="923" y="884"/>
      <point x="970" y="770"/>
      <point x="970" y="697" type="qcurve"/>
      <point x="970" y="196" type="line" name="sh05"/>
      <point x="970" y="130"/>
      <point x="1005" y="72"/>
      <point x="1048" y="72" type="qcurve"/>
      <point x="1030" y="-30" type="line" name="ab01"/>
      <point x="969" y="-30"/>
      <point x="885" y="9"/>
      <point x="832" y="77"/>
      <point x="808" y="171"/>
      <point x="808" y="227" type="qcurve" name="sh06"/>
      <point x="808" y="697" type="line"/>
      <point x="808" y="743"/>
      <point x="781" y="819"/>
      <point x="732" y="873"/>
      <point x="662" y="902"/>
      <point x="619" y="902" type="qcurve" name="sv03"/>
      <point x="569" y="902"/>
      <point x="480" y="869"/>
      <point x="403" y="812"/>
      <point x="339" y="738"/>
      <point x="314" y="696" type="qcurve" name="sh07"/>
      <point x="314" y="0" type="line" name="ab02"/>
      <point x="152" y="0" type="line" name="sh08"/>
      <point x="152" y="1182" type="line" name="sv04"/>
      <point x="20" y="1190" type="line" name="ah01"/>
    </contour>
  </outline>
</glyph>
<glyph name="latn:Iogonek" format="2">
  <advance width="576"/>
  <unicode hex="012E"/>
  <anchor x="288" y="1600" name="AccentAbove"/>
  <anchor x="438" y="1600" name="AccentAboveRight"/>
  <outline>
    <contour>
      <point x="379" y="1464" type="line" name="at01"/>
      <point x="379" y="0" type="line" name="sh02"/>
      <point x="328" y="-38"/>
      <point x="259" y="-94"/>
      <point x="216" y="-143"/>
      <point x="197" y="-191"/>
      <point x="197" y="-222" type="qcurve" name="ih01"/>
      <point x="197" y="-245"/>
      <point x="214" y="-284"/>
      <point x="242" y="-312"/>
      <point x="277" y="-328"/>
      <point x="295" y="-328" type="qcurve" name="sv01"/>
      <point x="310" y="-328"/>
      <point x="331" y="-326"/>
      <point x="350" y="-320"/>
      <point x="368" y="-310"/>
      <point x="379" y="-302" type="qcurve"/>
      <point x="400" y="-419" type="line"/>
      <point x="374" y="-432"/>
      <point x="316" y="-440"/>
      <point x="287" y="-440" type="qcurve" name="av01"/>
      <point x="246" y="-440"/>
      <point x="172" y="-408"/>
      <point x="117" y="-353"/>
      <point x="85" y="-280" name="hr00"/>
      <point x="85" y="-239" type="qcurve" name="sh03"/>
      <point x="85" y="-209"/>
      <point x="101" y="-150"/>
      <point x="151" y="-88"/>
      <point x="197" y="-53" type="qcurve"/>
      <point x="232" y="-28"/>
      <point x="282" y="0" type="qcurve" name="ab01"/>
      <point x="197" y="0" type="line" name="sh01"/>
      <point x="197" y="1434" type="line" name="at02"/>
    </contour>
  </outline>
</glyph>
<glyph name="dotlessi" format="2">
  <advance width="576"/>
  <unicode hex="0131"/>
  <anchor x="288" y="0" name="AccentBelow"/>
  <anchor x="288" y="1100" name="AccentDefault"/>
  <anchor x="288" y="486" name="AccentMiddle"/>
  <anchor x="50" y="0" name="AccentOgonek"/>
  <outline>
    <contour>
      <point x="207" y="0" type="line" name="dh01"/>
      <point x="207" y="974" type="line"/>
      <point x="339" y="1004" type="line" name="at01"/>
      <point x="369" y="1004" type="line" name="at02"/>
      <point x="369" y="0" type="line" name="dh02"/>
    </contour>
  </outline>
</glyph>
<glyph name="kgreenlandic" format="2">
  <advance width="1024"/>
  <unicode hex="0138"/>
  <outline>
    <contour>
      <point x="1009" y="0" type="line" name="ab02"/>
      <point x="825" y="-30" type="line" name="ab01"/>
      <point x="410" y="477" type="line"/>
      <point x="400" y="477" type="line"/>
      <point x="314" y="390" type="line"/>
      <point x="314" y="0" type="line" name="dh02"/>
      <point x="152" y="0" type="line" name="dh01"/>
      <point x="152" y="974" type="line"/>
      <point x="284" y="1004" type="line" name="at01"/>
      <point x="314" y="1004" type="line" name="sh01"/>
      <point x="314" y="546" type="line"/>
      <point x="324" y="546" type="line"/>
      <point x="772" y="1004" type="line" name="at02"/>
      <point x="899" y="974" type="line" name="iv01"/>
      <point x="494" y="571" type="line"/>
    </contour>
  </outline>
</glyph>
<glyph name="latn:Lstroke" format="2">
  <advance width="1088"/>
  <unicode hex="0141"/>
  <guideline x="0" y="504" angle="35"/>
  <guideline x="0" y="627" angle="35"/>
  <guideline x="614" y="0" angle="90"/>
  <guideline x="35" y="0" angle="90"/>
  <guideline x="772" y="0" angle="100"/>
  <outline>
    <contour>
      <point x="364" y="1464" type="line" name="sh03"/>
      <point x="364" y="867" type="line"/>
      <point x="560" y="1004" type="line" name="at01"/>
      <point x="580" y="896" type="line" name="ah01"/>
      <point x="364" y="745" type="line"/>
      <point x="364" y="122" type="line" name="sh02"/>
      <point x="1010" y="142" type="line"/>
      <point x="985" y="0" type="line"/>
      <point x="182" y="0" type="line" name="sh01"/>
      <point x="182" y="618" type="line"/>
      <point x="20" y="505" type="line" name="av01"/>
      <point x="1" y="613" type="line" name="ah02"/>
      <point x="182" y="739" type="line" name="sh04"/>
      <point x="182" y="1434" type="line"/>
    </contour>
  </outline>
</glyph>
<glyph name="latn:lstroke" format="2">
  <advance width="576"/>
  <unicode hex="0142"/>
  <guideline x="0" y="452" angle="39.24"/>
  <guideline x="0" y="557" angle="39.24"/>
  <outline>
    <contour>
      <point x="207" y="1464" type="line" name="dh01"/>
      <point x="339" y="1494" type="line" name="av01"/>
      <point x="369" y="1494" type="line" name="dh02"/>
      <point x="369" y="898" type="line" name="iv01"/>
      <point x="498" y="1004" type="line" name="iv02"/>
      <point x="520" y="880" type="line" name="sh02"/>
      <point x="369" y="756" type="line" name="sh01"/>
      <point x="369" y="293" type="line"/>
      <point x="369" y="226"/>
      <point x="400" y="140"/>
      <point x="448" y="91"/>
      <point x="505" y="72"/>
      <point x="530" y="72" type="qcurve" name="sh03"/>
      <point x="512" y="-30" type="line" name="ab01"/>
      <point x="455" y="-30"/>
      <point x="345" y="0"/>
      <point x="259" y="75"/>
      <point x="207" y="202"/>
      <point x="207" y="300" type="qcurve" name="sh04"/>
      <point x="207" y="624" type="line" name="iv03"/>
      <point x="70" y="512" type="line" name="sh05"/>
      <point x="48" y="636" type="line"/>
      <point x="207" y="766" type="line"/>
    </contour>
  </outline>
</glyph>
<glyph name="latn:Eng" format="2">
  <advance width="1504"/>
  <unicode hex="014A"/>
  <guideline x="955" y="0" angle="90"/>
  <outline>
    <contour>
      <point x="294" y="1464" type="line" name="hr00"/>
      <point x="1200" y="306" type="line"/>
      <point x="1210" y="306" type="line"/>
      <point x="1210" y="1464" type="line"/>
      <point x="1332" y="1434" type="line"/>
      <point x="1332" y="-77" type="line"/>
      <point x="1332" y="-196"/>
      <point x="1283" y="-354"/>
      <point x="1192" y="-450"/>
      <point x="1060" y="-490"/>
      <point x="977" y="-490" type="qcurve"/>
      <point x="995" y="-388" type="line" name="hr01"/>
      <point x="1031" y="-388"/>
      <point x="1095" y="-365"/>
      <point x="1143" y="-310"/>
      <point x="1170" y="-220"/>
      <point x="1170" y="-152" type="qcurve"/>
      <point x="1170" y="51" type="line"/>
      <point x="304" y="1159" type="line"/>
      <point x="294" y="1159" type="line"/>
      <point x="294" y="0" type="line"/>
      <point x="172" y="0" type="line"/>
      <point x="172" y="1434" type="line"/>
    </contour>
  </outline>
</glyph>
<glyph name="latn:eng" format="2">
  <advance width="1120"/>
  <unicode hex="014B"/>
  <outline>
    <contour>
      <point x="970" y="-77" type="line" name="sh01"/>
      <point x="970" y="-196"/>
      <point x="921" y="-354"/>
      <point x="830" y="-450"/>
      <point x="698" y="-490" name="hr00"/>
      <point x="615" y="-490" type="qcurve" name="ab01"/>
      <point x="633" y="-388" type="line" name="sv01"/>
      <point x="669" y="-388"/>
      <point x="733" y="-365"/>
      <point x="781" y="-310"/>
      <point x="808" y="-220" name="hr01"/>
      <point x="808" y="-152" type="qcurve" name="ah01"/>
      <point x="808" y="687" type="line"/>
      <point x="808" y="790"/>
      <point x="710" y="902"/>
      <point x="619" y="902" type="qcurve" name="sv02"/>
      <point x="525" y="902"/>
      <point x="378" y="797"/>
      <point x="314" y="697" type="qcurve"/>
      <point x="314" y="0" type="line" name="sh03"/>
      <point x="152" y="0" type="line" name="sh02"/>
      <point x="152" y="944" type="line"/>
      <point x="284" y="974" type="line" name="at01"/>
      <point x="314" y="974" type="line" name="sh04"/>
      <point x="314" y="837" type="line"/>
      <point x="324" y="837" type="line" name="sh05"/>
      <point x="394" y="925"/>
      <point x="551" y="1004"/>
      <point x="642" y="1004" type="qcurve" name="at02"/>
      <point x="715" y="1004"/>
      <point x="835" y="963"/>
      <point x="922" y="887"/>
      <point x="970" y="776"/>
      <point x="970" y="707" type="qcurve"/>
    </contour>
  </outline>
</glyph>
<glyph name="latn:OE" format="2">
  <advance width="1888"/>
  <unicode hex="0152"/>
  <outline>
    <contour>
      <point x="978" y="1434" type="line" name="sh03"/>
      <point x="1782" y="1434" type="line"/>
      <point x="1757" y="1290" type="line"/>
      <point x="1170" y="1332" type="line" name="sv01"/>
      <point x="1160" y="1332" type="line" name="sh01"/>
      <point x="1160" y="829" type="line"/>
      <point x="1676" y="829" type="line" name="dv02"/>
      <point x="1655" y="707" type="line" name="dv01"/>
      <point x="1160" y="707" type="line" name="sh04"/>
      <point x="1160" y="102" type="line" name="sv02"/>
      <point x="1170" y="102" type="line" name="sh05"/>
      <point x="1806" y="144" type="line"/>
      <point x="1782" y="0" type="line"/>
      <point x="978" y="0" type="line" name="sh06"/>
      <point x="930" y="-14"/>
      <point x="833" y="-30"/>
      <point x="782" y="-30" type="qcurve" name="ab01"/>
      <point x="695" y="-30"/>
      <point x="523" y="17"/>
      <point x="367" y="106"/>
      <point x="234" y="236"/>
      <point x="137" y="402"/>
      <point x="82" y="602"/>
      <point x="82" y="717" type="qcurve" name="sh07"/>
      <point x="82" y="832"/>
      <point x="137" y="1032"/>
      <point x="234" y="1198"/>
      <point x="367" y="1328"/>
      <point x="523" y="1417"/>
      <point x="694" y="1464"/>
      <point x="782" y="1464" type="qcurve" name="at01"/>
      <point x="833" y="1464"/>
      <point x="930" y="1448"/>
      <point x="978" y="1433" type="qcurve"/>
    </contour>
    <contour>
      <point x="782" y="1342" type="qcurve" name="sv03"/>
      <point x="693" y="1342"/>
      <point x="513" y="1266"/>
      <point x="366" y="1111"/>
      <point x="274" y="876"/>
      <point x="274" y="717" type="qcurve" name="sh08"/>
      <point x="274" y="558"/>
      <point x="366" y="323"/>
      <point x="513" y="168"/>
      <point x="693" y="92"/>
      <point x="782" y="92" type="qcurve" name="sv04"/>
      <point x="830" y="92"/>
      <point x="930" y="114"/>
      <point x="978" y="137" type="qcurve"/>
      <point x="978" y="1296" type="line" name="sh02"/>
      <point x="930" y="1319"/>
      <point x="830" y="1342"/>
    </contour>
  </outline>
</glyph>
<glyph name="scedilla" format="2">
  <advance width="864"/>
  <unicode hex="015F"/>
  <outline>
    <contour>
      <point x="194" y="227" type="line" name="ih01"/>
      <point x="214" y="193"/>
      <point x="266" y="136"/>
      <point x="328" y="95"/>
      <point x="396" y="72"/>
      <point x="431" y="72" type="qcurve" name="sv01"/>
      <point x="466" y="72"/>
      <point x="534" y="91"/>
      <point x="587" y="132"/>
      <point x="620" y="194"/>
      <point x="620" y="238" type="qcurve" name="sh01"/>
      <point x="620" y="272"/>
      <point x="596" y="325"/>
      <point x="542" y="372"/>
      <point x="456" y="414"/>
      <point x="394" y="437" type="qcurve"/>
      <point x="350" y="453"/>
      <point x="261" y="507"/>
      <point x="190" y="583"/>
      <point x="145" y="685"/>
      <point x="145" y="749" type="qcurve" name="dh01"/>
      <point x="145" y="807"/>
      <point x="190" y="902"/>
      <point x="268" y="968"/>
      <point x="371" y="1004"/>
      <point x="429" y="1004" type="qcurve" name="at01"/>
      <point x="477" y="1004"/>
      <point x="569" y="980"/>
      <point x="652" y="938"/>
      <point x="723" y="882"/>
      <point x="751" y="849" type="qcurve"/>
      <point x="650" y="747" type="line" name="ih02"/>
      <point x="634" y="778"/>
      <point x="589" y="834"/>
      <point x="533" y="877"/>
      <point x="467" y="902"/>
      <point x="430" y="902" type="qcurve" name="sv02"/>
      <point x="402" y="902"/>
      <point x="354" y="884"/>
      <point x="318" y="850"/>
      <point x="297" y="800"/>
      <point x="297" y="768" type="qcurve" name="dh02"/>
      <point x="297" y="733"/>
      <point x="328" y="673"/>
      <point x="379" y="624"/>
      <point x="444" y="587"/>
      <point x="478" y="575" type="qcurve"/>
      <point x="553" y="548"/>
      <point x="664" y="484"/>
      <point x="737" y="404"/>
      <point x="772" y="306" name="hr00"/>
      <point x="772" y="246" type="qcurve" name="sh02"/>
      <point x="772" y="190"/>
      <point x="728" y="97"/>
      <point x="651" y="28"/>
      <point x="550" y="-17"/>
      <point x="493" y="-25" type="qcurve" name="ab03"/>
      <point x="463" y="-110" type="line" name="ih03"/>
      <point x="496" y="-110"/>
      <point x="553" y="-135"/>
      <point x="595" y="-182"/>
      <point x="620" y="-250"/>
      <point x="620" y="-293" type="qcurve" name="dh04"/>
      <point x="620" y="-344"/>
      <point x="582" y="-418"/>
      <point x="520" y="-466"/>
      <point x="444" y="-490"/>
      <point x="407" y="-490" type="qcurve" name="ab01"/>
      <point x="372" y="-490"/>
      <point x="313" y="-476"/>
      <point x="267" y="-456"/>
      <point x="235" y="-433"/>
      <point x="226" y="-423" type="qcurve"/>
      <point x="280" y="-347" type="line"/>
      <point x="283" y="-352"/>
      <point x="301" y="-372"/>
      <point x="329" y="-393"/>
      <point x="366" y="-408"/>
      <point x="388" y="-408" type="qcurve" name="sv03"/>
      <point x="411" y="-408"/>
      <point x="451" y="-391"/>
      <point x="481" y="-361"/>
      <point x="498" y="-321" name="hr01"/>
      <point x="498" y="-298" type="qcurve" name="dh03"/>
      <point x="498" y="-276"/>
      <point x="481" y="-236"/>
      <point x="451" y="-207"/>
      <point x="411" y="-190"/>
      <point x="388" y="-190" type="qcurve"/>
      <point x="367" y="-190"/>
      <point x="341" y="-194"/>
      <point x="323" y="-199"/>
      <point x="311" y="-204"/>
      <point x="305" y="-206" type="qcurve" name="ih04"/>
      <point x="371" y="-26" type="line" name="ab02"/>
      <point x="210" y="-5"/>
      <point x="92" y="125" type="qcurve"/>
    </contour>
  </outline>
</glyph>
<glyph name="latn:Tcedilla" format="2">
  <advance width="1152"/>
  <unicode hex="0162"/>
  <guideline x="621" y="0" angle="90"/>
  <outline>
    <contour>
      <point x="57" y="1434" type="line" name="at01"/>
      <point x="1120" y="1434" type="line"/>
      <point x="1095" y="1292" type="line" name="sv02"/>
      <point x="667" y="1312" type="line"/>
      <point x="667" y="0" type="line" name="dh02"/>
      <point x="628" y="-110" type="line"/>
      <point x="661" y="-110"/>
      <point x="718" y="-135"/>
      <point x="760" y="-182"/>
      <point x="785" y="-250"/>
      <point x="785" y="-293" type="qcurve" name="sh02"/>
      <point x="785" y="-344"/>
      <point x="747" y="-418"/>
      <point x="685" y="-466"/>
      <point x="609" y="-490"/>
      <point x="572" y="-490" type="qcurve" name="ab02"/>
      <point x="537" y="-490"/>
      <point x="478" y="-476"/>
      <point x="432" y="-456"/>
      <point x="400" y="-433"/>
      <point x="391" y="-423" type="qcurve"/>
      <point x="445" y="-347" type="line"/>
      <point x="448" y="-352"/>
      <point x="466" y="-372"/>
      <point x="494" y="-393"/>
      <point x="531" y="-408"/>
      <point x="553" y="-408" type="qcurve" name="sv03"/>
      <point x="576" y="-408"/>
      <point x="616" y="-391"/>
      <point x="646" y="-361"/>
      <point x="663" y="-321"/>
      <point x="663" y="-298" type="qcurve" name="sh01"/>
      <point x="663" y="-276"/>
      <point x="646" y="-236"/>
      <point x="616" y="-207"/>
      <point x="576" y="-190"/>
      <point x="553" y="-190" type="qcurve"/>
      <point x="532" y="-190"/>
      <point x="506" y="-194"/>
      <point x="488" y="-199"/>
      <point x="476" y="-204"/>
      <point x="470" y="-206" type="qcurve"/>
      <point x="545" y="0" type="line" name="ab01"/>
      <point x="485" y="0" type="line" name="dh01"/>
      <point x="485" y="1312" type="line"/>
      <point x="32" y="1292" type="line" name="sv01"/>
    </contour>
  </outline>
</glyph>
<glyph name="tcommaaccent" format="2">
  <advance width="736"/>
  <unicode hex="0163"/>
  <guideline x="594" y="0" angle="90"/>
  <outline>
    <contour>
      <point x="413" y="1322" type="line" name="sh03"/>
      <point x="413" y="1004" type="line" name="at01"/>
      <point x="650" y="1004" type="line"/>
      <point x="627" y="872" type="line"/>
      <point x="413" y="886" type="line" name="sv01"/>
      <point x="413" y="297" type="line" name="sh02"/>
      <point x="413" y="240"/>
      <point x="431" y="155"/>
      <point x="479" y="99"/>
      <point x="563" y="72"/>
      <point x="629" y="72" type="qcurve" name="sv02"/>
      <point x="611" y="-30" type="line" name="sh05"/>
      <point x="539" y="-30"/>
      <point x="485" y="-21" type="qcurve" name="sh07"/>
      <point x="454" y="-110" type="line"/>
      <point x="487" y="-110"/>
      <point x="544" y="-135"/>
      <point x="586" y="-182"/>
      <point x="611" y="-250" name="hr00"/>
      <point x="611" y="-293" type="qcurve" name="sh04"/>
      <point x="611" y="-344"/>
      <point x="573" y="-418"/>
      <point x="511" y="-466"/>
      <point x="435" y="-490"/>
      <point x="398" y="-490" type="qcurve" name="ab01"/>
      <point x="363" y="-490"/>
      <point x="304" y="-476"/>
      <point x="258" y="-456"/>
      <point x="226" y="-433"/>
      <point x="217" y="-423" type="qcurve"/>
      <point x="271" y="-347" type="line"/>
      <point x="274" y="-352"/>
      <point x="292" y="-372"/>
      <point x="320" y="-393"/>
      <point x="357" y="-408"/>
      <point x="379" y="-408" type="qcurve" name="sv03"/>
      <point x="402" y="-408"/>
      <point x="442" y="-391"/>
      <point x="472" y="-361"/>
      <point x="489" y="-321"/>
      <point x="489" y="-298" type="qcurve" name="sh06"/>
      <point x="489" y="-276"/>
      <point x="472" y="-236"/>
      <point x="442" y="-207"/>
      <point x="402" y="-190"/>
      <point x="379" y="-190" type="qcurve"/>
      <point x="358" y="-190"/>
      <point x="332" y="-194"/>
      <point x="314" y="-199"/>
      <point x="302" y="-204"/>
      <point x="296" y="-206" type="qcurve"/>
      <point x="376" y="12" type="line" name="sv04"/>
      <point x="340" y="31"/>
      <point x="292" y="87"/>
      <point x="263" y="165"/>
      <point x="251" y="264"/>
      <point x="251" y="326" type="qcurve" name="sh01"/>
      <point x="251" y="893" type="line" name="sv05"/>
      <point x="82" y="902" type="line"/>
      <point x="100" y="1004" type="line"/>
      <point x="251" y="1004" type="line" name="sh08"/>
      <point x="251" y="1292" type="line"/>
      <point x="383" y="1322" type="line"/>
    </contour>
  </outline>
</glyph>
<glyph name="Tbar" format="2">
  <advance width="1152"/>
  <unicode hex="0166"/>
  <guideline x="297" y="0" angle="90"/>
  <guideline x="876" y="0" angle="90"/>
  <outline>
    <contour>
      <point x="67" y="1434" type="line" name="at01"/>
      <point x="1110" y="1434" type="line"/>
      <point x="1085" y="1292" type="line" name="sv02"/>
      <point x="677" y="1332" type="line"/>
      <point x="667" y="1332" type="line" name="sh01"/>
      <point x="667" y="829" type="line"/>
      <point x="936" y="829" type="line" name="dv01"/>
      <point x="915" y="707" type="line" name="sh02"/>
      <point x="667" y="707" type="line"/>
      <point x="667" y="0" type="line" name="dh02"/>
      <point x="485" y="0" type="line" name="dh01"/>
      <point x="485" y="707" type="line" name="sv04"/>
      <point x="216" y="707" type="line"/>
      <point x="237" y="829" type="line" name="sh03"/>
      <point x="485" y="829" type="line" name="sh04"/>
      <point x="485" y="1332" type="line" name="sv03"/>
      <point x="475" y="1332" type="line"/>
      <point x="42" y="1292" type="line" name="sv01"/>
    </contour>
  </outline>
</glyph>
